<svg width="16" height="16" viewBox="0 0 16 16" fill="none" xmlns="http://www.w3.org/2000/svg">
<path d="M8.00098 15.9998C12.4136 15.9998 16.001 12.4124 16.001 7.99976C16.001 3.58712 12.4136 -0.000244141 8.00098 -0.000244141C3.58835 -0.000244141 0.000977516 3.58712 0.000977516 7.99976C0.000977516 12.4124 3.58835 15.9998 8.00098 15.9998ZM8.00098 1.14502C11.7736 1.14502 14.8557 4.22712 14.8557 7.99976C14.8557 11.7724 11.7736 14.8545 8.00098 14.8545C4.22835 14.8545 1.14624 11.7724 1.14624 7.99976C1.14624 4.22712 4.22835 1.14502 8.00098 1.14502Z" fill="#1E5CA4"/>
<path d="M7.59654 10.2719C7.69758 10.373 7.84913 10.4404 8.00078 10.4404C8.15234 10.4404 8.30388 10.3731 8.40502 10.2719L11.4871 7.18984C11.7061 6.97086 11.7061 6.60031 11.4871 6.38145C11.2681 6.16247 10.8976 6.16247 10.6787 6.38145L8.00075 9.04241L5.3397 6.38136C5.22175 6.26341 5.08712 6.21289 4.93546 6.21289C4.78391 6.21289 4.63236 6.26341 4.53122 6.38136C4.31224 6.60034 4.31224 6.97089 4.53122 7.18975L7.59654 10.2719Z" fill="#1E5CA4"/>
</svg>
