<svg width="16" height="16" viewBox="0 0 16 16" fill="none" xmlns="http://www.w3.org/2000/svg">
<path d="M16 8C16 3.58737 12.4126 0 8 0C3.58737 0 0 3.58737 0 8C0 12.4126 3.58737 16 8 16C12.4126 16 16 12.4126 16 8ZM1.14526 8C1.14526 4.22737 4.22737 1.14526 8 1.14526C11.7726 1.14526 14.8547 4.22737 14.8547 8C14.8547 11.7726 11.7726 14.8547 8 14.8547C4.22737 14.8547 1.14526 11.7726 1.14526 8Z" fill="#707070"/>
<path d="M10.2719 8.40443C10.373 8.3034 10.4404 8.15185 10.4404 8.00019C10.4404 7.84864 10.3731 7.6971 10.2719 7.59595L7.18984 4.51385C6.97086 4.29486 6.60031 4.29486 6.38145 4.51385C6.16247 4.73283 6.16247 5.10338 6.38145 5.32224L9.04241 8.00022L6.38136 10.6613C6.26341 10.7792 6.21289 10.9139 6.21289 11.0655C6.21289 11.2171 6.26341 11.3686 6.38136 11.4698C6.60034 11.6887 6.97089 11.6887 7.18975 11.4698L10.2719 8.40443Z" fill="#707070"/>
</svg>
