<svg width="18" height="16" viewBox="0 0 18 16" fill="none" xmlns="http://www.w3.org/2000/svg">
<path d="M3.48624 5.15799C7.11224 8.09449 7.16847 8.12609 7.22647 8.14859C7.74336 8.51241 8.36102 8.70472 8.99307 8.69852C9.62132 8.70607 10.2363 8.51532 10.7499 8.15348C10.8129 8.13098 10.8733 8.09749 14.5038 5.15799C14.6283 5.05705 14.7073 4.91085 14.724 4.7515C14.7408 4.59214 14.6939 4.43267 14.5932 4.30802C14.4922 4.18358 14.3463 4.10434 14.1869 4.08756C14.0276 4.07078 13.8677 4.11786 13.7431 4.21854L10.1191 7.12552C9.79127 7.36441 9.39623 7.49308 8.99063 7.49308C8.58504 7.49308 8.18999 7.36441 7.86222 7.12552L4.24698 4.21854C4.12233 4.11786 3.96249 4.07078 3.80313 4.08756C3.64378 4.10434 3.49783 4.18358 3.39688 4.30802C3.29633 4.43272 3.24925 4.59218 3.26602 4.7515C3.2828 4.91081 3.36191 5.05697 3.48624 5.15799Z" fill="white"/>
<path fill-rule="evenodd" clip-rule="evenodd" d="M4.9808 15.4296H13.0123C15.9438 15.4296 17.6308 13.7426 17.6308 10.8111V5.18906C17.6308 2.25706 15.9438 0.570557 13.0123 0.570557H4.9808C2.0488 0.570557 0.362305 2.25706 0.362305 5.18906V10.8111C0.362305 13.7426 2.0488 15.4296 4.9808 15.4296ZM1.5673 5.18906C1.5673 2.89156 2.6833 1.77556 4.9808 1.77556H13.0123C15.3093 1.77556 16.4258 2.89206 16.4258 5.18906V10.8111C16.4258 13.1081 15.3093 14.2246 13.0123 14.2246H4.9808C2.6838 14.2246 1.5673 13.1081 1.5673 10.8111V5.18906Z" fill="white"/>
</svg>
