<svg width="40" height="40" viewBox="0 0 40 40" fill="none" xmlns="http://www.w3.org/2000/svg">
<path d="M28.6659 16.666H23.3326C22.9645 16.666 22.6659 16.9645 22.6659 17.3327V17.9993C22.6659 18.1761 22.5957 18.3458 22.4707 18.4708C22.3457 18.5958 22.1761 18.666 21.9993 18.666H17.9993C17.6312 18.666 17.3326 18.3675 17.3326 17.9993V17.3327C17.3326 17.1559 17.2624 16.9862 17.1374 16.8613C17.0124 16.7363 16.8428 16.666 16.666 16.666H11.3327C10.9645 16.666 10.666 16.9645 10.666 17.3327C10.666 17.7008 10.9645 17.9993 11.3327 17.9993H15.9993C15.9993 18.5297 16.21 19.0387 16.585 19.4136C16.96 19.7885 17.469 19.9993 17.9993 19.9993H21.9992C22.5296 19.9993 23.0386 19.7886 23.4135 19.4136C23.7884 19.0386 23.9992 18.5296 23.9992 17.9993H28.6658C29.034 17.9993 29.3325 17.7008 29.3325 17.3327C29.3325 16.9645 29.034 16.666 28.6658 16.666H28.6659Z" fill="#333333"/>
<path d="M35.3036 16.0665C35.1878 12.7998 34.0253 9.657 31.9878 7.10121C29.95 4.54557 27.1452 2.71198 23.9863 1.87145C23.9548 1.3655 23.7318 0.890502 23.3628 0.543151C22.9937 0.195534 22.5066 0.00148571 21.9997 0H17.9997C17.492 0.00119047 17.0036 0.196128 16.6345 0.544637C16.2652 0.893442 16.0429 1.36962 16.0125 1.87674C12.8512 2.71156 10.0432 4.54248 8.00416 7.09843C5.96517 9.65407 4.80388 12.799 4.69195 16.0668C3.93482 16.2159 3.25265 16.623 2.7616 17.2185C2.27083 17.8141 2.00178 18.5617 2 19.3334V20.6667C2 21.1971 2.21071 21.706 2.58571 22.081C2.96071 22.4559 3.46967 22.6667 3.99995 22.6667H4.66661V27.3333C4.66661 27.5101 4.73685 27.6797 4.86185 27.8047C4.98685 27.9297 5.15649 28 5.33328 28H9.16274C9.37197 28.6815 9.64518 29.3419 9.97851 29.972L7.27467 32.6821C7.01426 32.9422 7.01426 33.3642 7.27467 33.6246L11.0414 37.3913C11.3018 37.6514 11.7238 37.6514 11.9839 37.3913L14.694 34.6875V34.6872C15.3243 35.0211 15.9847 35.2946 16.6666 35.5039V39.3333C16.6666 39.5101 16.7369 39.6798 16.8619 39.8048C16.9869 39.9298 17.1565 40 17.3333 40H22.6666C22.8434 40 23.013 39.9298 23.138 39.8048C23.263 39.6798 23.3332 39.5101 23.3332 39.3333V35.5039C24.0139 35.2938 24.6731 35.0188 25.3011 34.6828L28.0151 37.392H28.0153C28.2755 37.6524 28.6975 37.6524 28.9579 37.392L32.7246 33.6253C32.9847 33.3649 32.9847 32.9429 32.7246 32.6828L30.0159 29.9688C30.3523 29.3402 30.6272 28.6811 30.837 28.0001H34.6665C34.8433 28.0001 35.0129 27.9298 35.1379 27.8048C35.2629 27.6798 35.3332 27.5102 35.3332 27.3334V22.6668H35.9998C36.5302 22.6668 37.0391 22.4561 37.4141 22.0811C37.789 21.7061 37.9998 21.1971 37.9998 20.6668V19.3335C37.998 18.5611 37.7281 17.8133 37.2367 17.2175C36.745 16.6219 36.0617 16.2151 35.3036 16.0668L35.3036 16.0665ZM33.9997 26.666H30.3331C30.0292 26.666 29.7637 26.8717 29.6878 27.166C29.4548 28.0699 29.0932 28.9359 28.6143 29.7375C28.4575 29.9994 28.4989 30.3345 28.7143 30.5506L31.3104 33.1505L28.4858 35.9752L25.8858 33.3791V33.3794C25.6694 33.1633 25.334 33.122 25.0718 33.2794C24.2705 33.7583 23.4048 34.1199 22.5009 34.3526C22.2057 34.4282 21.9995 34.6946 21.9998 34.9994V38.666H17.9998V34.9994C17.9998 34.6955 17.7941 34.43 17.4998 34.3541C16.5935 34.1211 15.7248 33.7622 14.9185 33.2875C14.6569 33.133 14.3242 33.1749 14.109 33.3892L11.5138 35.9785L8.68917 33.1538L11.2784 30.5586C11.493 30.3437 11.5347 30.011 11.3805 29.7494C10.9058 28.9432 10.5466 28.0741 10.3138 27.1682C10.2385 26.8723 9.97187 26.6655 9.66652 26.6661H5.99987V22.6661H13.6509C13.0012 24.6938 13.3592 26.9098 14.6143 28.63C15.8694 30.35 17.8705 31.3672 19.9997 31.3672C22.1289 31.3672 24.1301 30.35 25.3851 28.63C26.6402 26.9098 26.9982 24.6938 26.3486 22.6661H33.9996L33.9997 26.666ZM24.9331 22.6661C25.609 24.311 25.42 26.1848 24.4298 27.6622C23.4397 29.1393 21.7783 30.0258 19.9998 30.0258C18.2212 30.0258 16.5599 29.1392 15.5697 27.6622C14.5795 26.1848 14.3905 24.311 15.0664 22.6661H24.9331ZM36.6664 20.6661C36.6664 20.8429 36.5961 21.0125 36.4711 21.1375C36.3461 21.2625 36.1765 21.3327 35.9997 21.3327H3.9999C3.63175 21.3327 3.33323 21.0342 3.33323 20.6661V19.3328C3.33502 18.9206 3.46388 18.519 3.70258 18.1831C3.94127 17.847 4.27788 17.5929 4.66654 17.4554V19.3328C4.66654 19.7009 4.96505 19.9994 5.3332 19.9994C5.70135 19.9994 5.99986 19.7009 5.99986 19.3328V16.6661C5.98677 13.6495 6.95521 10.7102 8.75909 8.29207C10.563 5.87426 13.1043 4.10848 15.9998 3.26147V11.9997C15.9998 12.3679 16.2983 12.6664 16.6665 12.6664C17.0346 12.6664 17.3331 12.3679 17.3331 11.9997V1.99977C17.3331 1.63162 17.6316 1.3331 17.9998 1.3331H21.9998C22.1766 1.3331 22.3462 1.40334 22.4712 1.52834C22.5962 1.65334 22.6664 1.82298 22.6664 1.99977V11.9997C22.6664 12.3679 22.9649 12.6664 23.3331 12.6664C23.7012 12.6664 23.9998 12.3679 23.9998 11.9997V3.25309C26.8905 4.11084 29.4265 5.88043 31.2286 8.29802C33.0309 10.7155 34.003 13.651 33.9997 16.6667V19.3334C33.9997 19.7015 34.2982 20 34.6664 20C35.0345 20 35.333 19.7015 35.333 19.3334V17.456C35.7217 17.5935 36.0583 17.8476 36.297 18.1837C36.5357 18.5197 36.6645 18.9212 36.6663 19.3334L36.6664 20.6661Z" fill="#333333"/>
<path d="M26.0006 10.6658C26.1774 10.6658 26.3471 10.5956 26.4721 10.4706C26.5971 10.3456 26.6673 10.1759 26.6673 9.99916V5.99918C26.6673 5.63103 26.3688 5.33252 26.0006 5.33252C25.6325 5.33252 25.334 5.63103 25.334 5.99918V9.99916C25.334 10.1759 25.4042 10.3456 25.5292 10.4706C25.6542 10.5956 25.8239 10.6658 26.0006 10.6658Z" fill="#333333"/>
<path d="M14.0006 10.6658C14.1774 10.6658 14.3471 10.5956 14.4721 10.4706C14.5971 10.3456 14.6673 10.1759 14.6673 9.99916V5.99918C14.6673 5.63103 14.3688 5.33252 14.0006 5.33252C13.6325 5.33252 13.334 5.63103 13.334 5.99918V9.99916C13.334 10.1759 13.4042 10.3456 13.5292 10.4706C13.6542 10.5956 13.8239 10.6658 14.0006 10.6658Z" fill="#333333"/>
<path d="M31.9993 16.666H31.3327C30.9645 16.666 30.666 16.9645 30.666 17.3327C30.666 17.7008 30.9645 17.9993 31.3327 17.9993H31.9993C32.3675 17.9993 32.666 17.7008 32.666 17.3327C32.666 16.9645 32.3675 16.666 31.9993 16.666Z" fill="#333333"/>
<path d="M8.66731 16.666H8.00065C7.6325 16.666 7.33398 16.9645 7.33398 17.3327C7.33398 17.7008 7.6325 17.9993 8.00065 17.9993H8.66731C9.03546 17.9993 9.33397 17.7008 9.33397 17.3327C9.33397 16.9645 9.03546 16.666 8.66731 16.666Z" fill="#333333"/>
<path d="M7.33398 23.9995H8.66731V25.3328H7.33398V23.9995Z" fill="#333333"/>
<path d="M10.5703 33.1513L11.5132 32.2085L12.456 33.1513L11.5132 34.0942L10.5703 33.1513Z" fill="#333333"/>
<path d="M19.334 35.9995H20.6673V37.3328H19.334V35.9995Z" fill="#333333"/>
<path d="M27.541 33.1513L28.4839 32.2085L29.4267 33.1513L28.4839 34.0942L27.541 33.1513Z" fill="#333333"/>
<path d="M31.334 23.9995H32.6673V25.3328H31.334V23.9995Z" fill="#333333"/>
</svg>
