<svg width="13" height="15" viewBox="0 0 13 15" fill="none" xmlns="http://www.w3.org/2000/svg">
<path d="M11.6364 6.31818C11.6364 10.4545 6.31818 14 6.31818 14C6.31818 14 1 10.4545 1 6.31818C1 4.90771 1.56031 3.55501 2.55766 2.55766C3.55501 1.56031 4.90771 1 6.31818 1C7.72865 1 9.08135 1.56031 10.0787 2.55766C11.0761 3.55501 11.6364 4.90771 11.6364 6.31818Z" stroke="#636363" stroke-linecap="round" stroke-linejoin="round"/>
<path d="M6.31863 8.09135C7.29768 8.09135 8.09135 7.29768 8.09135 6.31863C8.09135 5.33958 7.29768 4.5459 6.31863 4.5459C5.33958 4.5459 4.5459 5.33958 4.5459 6.31863C4.5459 7.29768 5.33958 8.09135 6.31863 8.09135Z" stroke="#636363" stroke-linecap="round" stroke-linejoin="round"/>
</svg>
