<svg width="38" height="26" viewBox="0 0 38 26" fill="none" xmlns="http://www.w3.org/2000/svg">
<path d="M35.4289 11.6717H37.3104C37.3885 11.6718 37.4651 11.6502 37.5316 11.6092C37.598 11.5682 37.6517 11.5095 37.6867 11.4396C37.7279 11.3738 37.7497 11.2978 37.7497 11.2201C37.7497 11.1425 37.7279 11.0664 37.6867 11.0006L32.1112 2.80974C32.0724 2.75216 32.02 2.70492 31.9588 2.67213C31.8976 2.63934 31.8293 2.62198 31.7599 2.62158H30.6059V0.426473C30.6059 0.313364 30.561 0.204887 30.481 0.124906C30.401 0.0449263 30.2926 0 30.1794 0H28.0031C27.8911 0.00164751 27.7843 0.0473053 27.7056 0.127108C27.627 0.20691 27.5829 0.314443 27.5829 0.426473V2.62158H19.7056H19.6053H19.53H19.4799L19.4297 2.67802L13.9607 10.662C13.9209 10.7283 13.8999 10.8041 13.8999 10.8815C13.8999 10.9588 13.9209 11.0347 13.9607 11.101C13.9966 11.1696 14.0507 11.227 14.1171 11.2669C14.1835 11.3067 14.2596 11.3274 14.337 11.3268H17.0213V13.4717H17.8241V11.032L21.1858 6.08985L21.2422 6.16511L24.861 11.4773C24.8985 11.5361 24.9506 11.5842 25.0121 11.6172C25.0736 11.6501 25.1425 11.6667 25.2122 11.6654H27.5328V19.7811H24.2527V20.634H34.9648C35.0779 20.634 35.1864 20.5891 35.2664 20.5091C35.3463 20.4291 35.3913 20.3206 35.3913 20.2075L35.4289 11.6717ZM20.684 5.39996L17.1969 10.4989H15.121L19.7056 3.81321L20.7405 5.33725L20.684 5.39996ZM34.5759 19.8249H28.4171V11.6717H34.5759V19.8249ZM25.4756 10.8564L20.4959 3.54353H27.5892V6.23411C27.5819 6.29403 27.5874 6.35481 27.6053 6.41245C27.6233 6.47009 27.6532 6.52327 27.6933 6.56846C27.7333 6.61365 27.7824 6.64983 27.8375 6.67461C27.8925 6.69939 27.9522 6.7122 28.0126 6.7122C28.0729 6.7122 28.1326 6.69939 28.1876 6.67461C28.2427 6.64983 28.2918 6.61365 28.3318 6.56846C28.3719 6.52327 28.4018 6.47009 28.4198 6.41245C28.4377 6.35481 28.4432 6.29403 28.4359 6.23411V0.921946H29.7404V6.23411C29.7404 6.34722 29.7853 6.45569 29.8653 6.53567C29.9453 6.61565 30.0538 6.66058 30.1669 6.66058C30.28 6.66058 30.3885 6.61565 30.4685 6.53567C30.5484 6.45569 30.5934 6.34722 30.5934 6.23411V3.54353H31.5216L36.5014 10.8627L25.4756 10.8564Z" fill="white"/>
<path d="M20.6277 14.6009C20.5884 14.54 20.5346 14.4898 20.4711 14.4548C20.4077 14.4198 20.3365 14.401 20.264 14.4002H15.3156V11.9166C15.3156 11.8584 15.304 11.8008 15.2816 11.7471C15.2591 11.6935 15.2262 11.6448 15.1848 11.6039C15.1434 11.5631 15.0942 11.5309 15.0402 11.5092C14.9862 11.4875 14.9285 11.4768 14.8703 11.4776H0.445307C0.387128 11.4768 0.329355 11.4875 0.275365 11.5092C0.221374 11.5309 0.172235 11.5631 0.130802 11.6039C0.089368 11.6448 0.0564655 11.6935 0.0340115 11.7471C0.0115574 11.8008 -5.93523e-06 11.8584 2.28539e-09 11.9166V22.7981C-5.93523e-06 22.8563 0.0115574 22.9139 0.0340115 22.9675C0.0564655 23.0212 0.089368 23.0699 0.130802 23.1107C0.172235 23.1516 0.221374 23.1838 0.275365 23.2055C0.329355 23.2272 0.387128 23.2379 0.445307 23.2371H1.77491C1.87684 23.7442 2.15118 24.2004 2.55134 24.5281C2.9515 24.8558 3.45278 25.0349 3.97002 25.0349C4.48726 25.0349 4.98854 24.8558 5.3887 24.5281C5.78886 24.2004 6.0632 23.7442 6.16513 23.2371H7.66406C7.72655 23.2445 7.78992 23.2387 7.84997 23.2199C7.91002 23.201 7.96539 23.1697 8.01245 23.1279C8.05951 23.0862 8.09718 23.0349 8.12298 22.9775C8.14878 22.9201 8.16212 22.8579 8.16212 22.7949C8.16212 22.732 8.14878 22.6698 8.12298 22.6124C8.09718 22.555 8.05951 22.5037 8.01245 22.4619C7.96539 22.4202 7.91002 22.3888 7.84997 22.37C7.78992 22.3512 7.72655 22.3453 7.66406 22.3528H6.16513C6.0632 21.8457 5.78886 21.3895 5.3887 21.0618C4.98854 20.7341 4.48726 20.555 3.97002 20.555C3.45278 20.555 2.9515 20.7341 2.55134 21.0618C2.15118 21.3895 1.87684 21.8457 1.77491 22.3528H0.890595V12.3745H14.4313V22.3653H9.24455C9.18207 22.3579 9.1187 22.3637 9.05865 22.3826C8.9986 22.4014 8.94323 22.4327 8.89617 22.4745C8.84911 22.5163 8.81143 22.5675 8.78564 22.6249C8.75984 22.6823 8.7465 22.7445 8.7465 22.8075C8.7465 22.8704 8.75984 22.9326 8.78564 22.99C8.81143 23.0474 8.84911 23.0987 8.89617 23.1405C8.94323 23.1823 8.9986 23.2136 9.05865 23.2324C9.1187 23.2512 9.18207 23.2571 9.24455 23.2496H15.8048C15.9001 23.7622 16.1718 24.2253 16.5727 24.5585C16.9736 24.8918 17.4786 25.0742 17.9999 25.0742C18.5213 25.0742 19.0262 24.8918 19.4271 24.5585C19.828 24.2253 20.0997 23.7622 20.195 23.2496H23.1992C23.2573 23.2505 23.3151 23.2397 23.3691 23.218C23.4231 23.1964 23.4722 23.1641 23.5137 23.1233C23.5551 23.0824 23.588 23.0338 23.6104 22.9801C23.6329 22.9264 23.6445 22.8688 23.6445 22.8106V19.1856C23.6455 19.0962 23.6192 19.0087 23.5692 18.9347L20.6277 14.6009ZM3.95121 21.4559C4.2194 21.4547 4.48192 21.5331 4.70552 21.6812C4.92913 21.8293 5.10374 22.0404 5.20724 22.2878C5.31073 22.5353 5.33846 22.8078 5.2869 23.071C5.23534 23.3342 5.10682 23.5762 4.91761 23.7663C4.72841 23.9564 4.48704 24.086 4.22408 24.1388C3.96113 24.1916 3.68842 24.1651 3.44052 24.0628C3.19261 23.9604 2.98066 23.7868 2.83153 23.5639C2.68239 23.341 2.60279 23.0788 2.60279 22.8106C2.60278 22.4524 2.74463 22.1088 2.99733 21.8549C3.25003 21.601 3.59301 21.4576 3.95121 21.4559ZM17.9748 24.159C17.7066 24.159 17.4444 24.0794 17.2215 23.9303C16.9986 23.7812 16.825 23.5692 16.7226 23.3213C16.6203 23.0734 16.5938 22.8007 16.6466 22.5377C16.6994 22.2748 16.829 22.0334 17.0191 21.8442C17.2092 21.655 17.4512 21.5265 17.7144 21.4749C17.9776 21.4234 18.2502 21.4511 18.4976 21.5546C18.745 21.6581 18.9561 21.8327 19.1042 22.0563C19.2523 22.2799 19.3308 22.5424 19.3295 22.8106C19.3279 23.1688 19.1844 23.5118 18.9305 23.7645C18.6767 24.0172 18.333 24.159 17.9748 24.159ZM22.7351 22.3653H20.1699C20.068 21.8582 19.7936 21.4021 19.3935 21.0743C18.9933 20.7466 18.492 20.5675 17.9748 20.5675C17.4576 20.5675 16.9563 20.7466 16.5561 21.0743C16.156 21.4021 15.8816 21.8582 15.7797 22.3653H15.3156V15.2908H20.0382L22.7476 19.3173L22.7351 22.3653Z" fill="white"/>
<path d="M12.8699 18.1885H11.5528C11.4947 18.1885 11.4371 18.2 11.3834 18.2225C11.3297 18.2449 11.281 18.2778 11.2402 18.3193C11.1993 18.3607 11.1671 18.4099 11.1454 18.4638C11.1237 18.5178 11.113 18.5756 11.1138 18.6338C11.1138 18.7502 11.1601 18.8619 11.2424 18.9442C11.3247 19.0265 11.4364 19.0728 11.5528 19.0728H12.8448C12.903 19.0736 12.9608 19.0629 13.0148 19.0412C13.0688 19.0195 13.1179 18.9873 13.1593 18.9465C13.2008 18.9056 13.2337 18.8569 13.2561 18.8032C13.2786 18.7496 13.2901 18.6919 13.2901 18.6338C13.2903 18.5199 13.2468 18.4103 13.1687 18.3275C13.0905 18.2446 12.9836 18.1949 12.8699 18.1885Z" fill="white"/>
<path d="M2.42136 19.0728H10.0603C10.1185 19.0736 10.1763 19.0629 10.2303 19.0412C10.2843 19.0195 10.3334 18.9873 10.3748 18.9465C10.4163 18.9056 10.4492 18.8569 10.4716 18.8032C10.4941 18.7496 10.5056 18.6919 10.5056 18.6338C10.5056 18.5157 10.4587 18.4024 10.3752 18.3189C10.2917 18.2354 10.1784 18.1885 10.0603 18.1885H2.42136C2.30326 18.1885 2.19 18.2354 2.10649 18.3189C2.02298 18.4024 1.97607 18.5157 1.97607 18.6338C1.97607 18.6919 1.98761 18.7496 2.01007 18.8032C2.03252 18.8569 2.06542 18.9056 2.10686 18.9465C2.14829 18.9873 2.19743 19.0195 2.25142 19.0412C2.30541 19.0629 2.36318 19.0736 2.42136 19.0728Z" fill="white"/>
<path d="M19.4114 16.0551H16.5703C16.5121 16.0542 16.4543 16.065 16.4003 16.0867C16.3464 16.1084 16.2972 16.1406 16.2558 16.1814C16.2143 16.2223 16.1815 16.2709 16.159 16.3246C16.1366 16.3783 16.125 16.4359 16.125 16.4941V18.8962C16.125 19.0143 16.1719 19.1275 16.2554 19.211C16.3389 19.2945 16.4522 19.3415 16.5703 19.3415H21.042C21.1218 19.3418 21.2002 19.3203 21.2687 19.2794C21.3372 19.2385 21.3933 19.1798 21.4309 19.1094C21.4723 19.0402 21.4942 18.9611 21.4942 18.8805C21.4942 18.7999 21.4723 18.7207 21.4309 18.6516L19.819 16.2495C19.7756 16.1827 19.7145 16.1292 19.6426 16.0949C19.5706 16.0606 19.4907 16.0468 19.4114 16.0551ZM17.003 18.4571V16.9331H19.1731L20.1954 18.4509L17.003 18.4571Z" fill="white"/>
<path d="M25.238 20.3141H24.2972V13.0514H20.0199V13.8667H19.0791V12.7629C19.0791 12.5966 19.1452 12.437 19.2628 12.3194C19.3804 12.2018 19.5399 12.1357 19.7063 12.1357H24.5606C24.7269 12.1357 24.8864 12.2018 25.0041 12.3194C25.1217 12.437 25.1878 12.5966 25.1878 12.7629L25.238 20.3141Z" fill="white"/>
<path d="M10.1852 15.1843L8.21586 13.491C8.18566 13.4661 8.14923 13.4501 8.11051 13.4445C8.0718 13.439 8.03229 13.4442 7.99634 13.4596C7.96061 13.4764 7.93041 13.503 7.9093 13.5363C7.88818 13.5696 7.87706 13.6083 7.8772 13.6478V14.4255H2.29534C2.24045 14.4255 2.18781 14.4473 2.14899 14.4861C2.11018 14.5249 2.08838 14.5775 2.08838 14.6324V15.8868C2.08838 15.9417 2.11018 15.9943 2.14899 16.0331C2.18781 16.0719 2.24045 16.0937 2.29534 16.0937H7.8772V16.9342C7.87693 16.972 7.88739 17.0092 7.90736 17.0414C7.92734 17.0736 7.95602 17.0995 7.99009 17.116H8.07788C8.12569 17.1181 8.1726 17.1025 8.2096 17.0721L10.1789 15.4791C10.2032 15.461 10.2227 15.4372 10.2358 15.4099C10.2489 15.3826 10.2552 15.3526 10.2542 15.3223C10.2527 15.2958 10.2458 15.2699 10.234 15.2462C10.2221 15.2225 10.2055 15.2014 10.1852 15.1843Z" fill="white"/>
</svg>
