<svg width="13" height="7" viewBox="0 0 13 7" fill="none" xmlns="http://www.w3.org/2000/svg">
<path fill-rule="evenodd" clip-rule="evenodd" d="M0.29794 0.263105C0.483896 0.102721 0.733277 0.0150814 0.991278 0.0194454C1.24928 0.023809 1.4948 0.119819 1.67387 0.286377L6.48963 4.86878L11.3054 0.286378C11.3929 0.199867 11.4989 0.12999 11.6172 0.0808832C11.7354 0.0317766 11.8634 0.00444093 11.9936 0.000497007C12.1238 -0.00344739 12.2536 0.0160805 12.3752 0.057922C12.4969 0.0997635 12.6079 0.163067 12.7017 0.244084C12.7956 0.3251 12.8704 0.422179 12.9216 0.529569C12.9728 0.63696 12.9995 0.752476 13 0.869273C13.0005 0.98607 12.9749 1.10177 12.9246 1.20952C12.8743 1.31727 12.8004 1.41488 12.7073 1.49656L7.19057 6.73292C7.09976 6.81739 6.99088 6.88457 6.87044 6.93046C6.75001 6.97635 6.62049 7 6.48963 7C6.35876 7 6.22925 6.97635 6.10881 6.93046C5.98837 6.88457 5.8795 6.81739 5.78868 6.73292L0.271979 1.49656C0.0930687 1.32986 -0.00469443 1.1063 0.000173532 0.875016C0.0050415 0.64373 0.112142 0.423637 0.29794 0.263105Z" fill="#333333"/>
</svg>
