<svg width="21" height="24" viewBox="0 0 21 24" fill="none" xmlns="http://www.w3.org/2000/svg">
<path d="M20.1806 9.50785C19.8826 4.46947 15.8464 0.379165 10.8081 0.0270199C10.5643 -2.88317e-09 10.3206 0 10.1039 0C4.52371 0 0 4.52371 0 10.1039C0 12.623 0.920946 14.9255 2.43783 16.6863L9.50782 23.7563C9.67032 23.9187 9.88704 24 10.1038 24C10.3205 24 10.5372 23.9187 10.6997 23.7563L17.7697 16.6863C19.3949 14.7901 20.343 12.2438 20.1805 9.50792L20.1806 9.50785ZM10.1038 18.0135C5.74263 18.0135 2.19409 14.465 2.19409 10.1038C2.19409 5.74261 5.74258 2.19407 10.1038 2.19407C14.465 2.19407 18.0135 5.74256 18.0135 10.1038C18.0135 14.465 14.465 18.0135 10.1038 18.0135Z" fill="black"/>
</svg>
