<svg width="15" height="15" viewBox="0 0 15 15" fill="none" xmlns="http://www.w3.org/2000/svg">
<path d="M5.80965 14.0554L5.81112 13.5554L5.80826 13.5554L5.80965 14.0554ZM5.24995 13.9427L5.44481 13.4822L5.44463 13.4821L5.24995 13.9427ZM4.79298 13.6347L5.14694 13.2815L5.14608 13.2807L4.79298 13.6347ZM4.4852 13.1783L4.02476 13.3732L4.0248 13.3733L4.4852 13.1783ZM4.37233 12.6184L4.87233 12.6199L4.87233 12.6169L4.37233 12.6184ZM4.4852 12.0584L4.94563 12.2534L4.94567 12.2533L4.4852 12.0584ZM4.79298 11.6021L5.14599 11.9562L5.14709 11.9551L4.79298 11.6021ZM5.24995 11.2942L5.44443 11.7548L5.44491 11.7546L5.24995 11.2942ZM5.80965 11.1814L5.80814 11.6814L5.81127 11.6814L5.80965 11.1814ZM6.36973 11.2942L6.17467 11.7545L6.17561 11.7549L6.36973 11.2942ZM6.82632 11.6021L6.47193 11.9549L6.47362 11.9565L6.82632 11.6021ZM7.13448 12.0584L6.67385 12.2529L6.67406 12.2534L7.13448 12.0584ZM7.24697 12.6184L6.74696 12.6169L6.74697 12.6199L7.24697 12.6184ZM7.13448 13.1783L6.67404 12.9834L6.6739 12.9837L7.13448 13.1783ZM6.82632 13.6347L6.47352 13.2804L6.47217 13.2817L6.82632 13.6347ZM6.36973 13.9427L6.17531 13.482L6.1748 13.4822L6.36973 13.9427ZM11.5339 14.0554L11.5354 13.5554L11.5325 13.5554L11.5339 14.0554ZM10.9742 13.9427L11.1691 13.4822L11.1689 13.4821L10.9742 13.9427ZM10.5173 13.6347L10.8712 13.2815L10.8704 13.2807L10.5173 13.6347ZM10.2095 13.1783L9.74904 13.3732L9.74908 13.3733L10.2095 13.1783ZM10.0966 12.6184L10.5966 12.6199L10.5966 12.6169L10.0966 12.6184ZM10.2095 12.0584L10.6699 12.2534L10.67 12.2533L10.2095 12.0584ZM10.5173 11.6021L10.8703 11.9562L10.8714 11.9551L10.5173 11.6021ZM10.9742 11.2942L11.1687 11.7548L11.1692 11.7546L10.9742 11.2942ZM11.5339 11.1814L11.5324 11.6814L11.5356 11.6814L11.5339 11.1814ZM12.094 11.2942L11.899 11.7545L11.8999 11.7549L12.094 11.2942ZM12.5506 11.6021L12.1962 11.9549L12.1979 11.9565L12.5506 11.6021ZM12.8588 12.0584L12.3981 12.2529L12.3983 12.2534L12.8588 12.0584ZM12.9713 12.6184L12.4712 12.6169L12.4713 12.6199L12.9713 12.6184ZM12.8588 13.1783L12.3983 12.9834L12.3982 12.9837L12.8588 13.1783ZM12.5506 13.6347L12.1978 13.2804L12.1965 13.2817L12.5506 13.6347ZM12.094 13.9427L11.8996 13.482L11.8991 13.4822L12.094 13.9427ZM0.784227 0.255669C0.508387 0.268587 0.295247 0.502671 0.308165 0.778511C0.321083 1.05435 0.555167 1.26749 0.831007 1.25457L0.784227 0.255669ZM2.81457 0.661133L3.31168 0.607514C3.28333 0.344665 3.05526 0.149313 2.79118 0.16168L2.81457 0.661133ZM3.75805 9.40844L3.26093 9.46206C3.26524 9.502 3.27435 9.54128 3.28806 9.57905L3.75805 9.40844ZM4.04481 9.83839L3.70672 10.2068C3.71977 10.2187 3.73345 10.23 3.7477 10.2405L4.04481 9.83839ZM4.54715 10.0684L4.43689 10.556C4.47307 10.5642 4.51005 10.5684 4.54715 10.5684V10.0684ZM12.5461 10.0684V10.5684C12.6074 10.5684 12.6682 10.5571 12.7254 10.5351L12.5461 10.0684ZM12.9609 9.81319L13.2967 10.1837C13.3064 10.1748 13.3158 10.1657 13.3248 10.1561L12.9609 9.81319ZM13.2173 9.40804L13.683 9.59006C13.6924 9.56583 13.7 9.54091 13.7056 9.5155L13.2173 9.40804ZM14.3723 4.1595L13.8932 4.01637C13.8897 4.02814 13.8866 4.04003 13.884 4.05203L14.3723 4.1595ZM14.2863 3.87393L13.8457 4.11021C13.8499 4.11802 13.8543 4.12572 13.8589 4.1333L14.2863 3.87393ZM14.0152 3.65956L14.1434 3.17627C14.1003 3.16486 14.056 3.15924 14.0115 3.15957L14.0152 3.65956ZM3.15724 3.23956C2.8811 3.2416 2.6589 3.4671 2.66094 3.74323C2.66297 4.01937 2.88847 4.24157 3.16461 4.23953L3.15724 3.23956ZM5.80826 13.5554C5.6834 13.5558 5.55992 13.5309 5.44481 13.4822L5.0551 14.4031C5.29425 14.5043 5.55122 14.5562 5.81104 14.5554L5.80826 13.5554ZM5.44463 13.4821C5.33324 13.435 5.23204 13.3668 5.14693 13.2815L4.43902 13.9878C4.61575 14.165 4.82522 14.306 5.05527 14.4032L5.44463 13.4821ZM5.14608 13.2807C5.06087 13.1957 4.99281 13.0948 4.94561 12.9833L4.0248 13.3733C4.12208 13.603 4.2628 13.8121 4.43987 13.9887L5.14608 13.2807ZM4.94565 12.9834C4.8969 12.8682 4.87197 12.7446 4.87233 12.6199L3.87233 12.617C3.87158 12.8769 3.92355 13.1341 4.02476 13.3732L4.94565 12.9834ZM4.87233 12.6169C4.87195 12.4922 4.89689 12.3685 4.94563 12.2534L4.02478 11.8635C3.92352 12.1026 3.87155 12.36 3.87233 12.6199L4.87233 12.6169ZM4.94567 12.2533C4.99276 12.142 5.06074 12.0412 5.14599 11.9562L4.43997 11.248C4.26285 11.4246 4.12204 11.6337 4.02474 11.8636L4.94567 12.2533ZM5.14709 11.9551C5.23205 11.8699 5.33314 11.8018 5.44443 11.7548L5.05547 10.8335C4.82524 10.9307 4.61562 11.0718 4.43887 11.2491L5.14709 11.9551ZM5.44491 11.7546C5.55995 11.7059 5.68336 11.681 5.80814 11.6814L5.81115 10.6814C5.55125 10.6806 5.29419 10.7325 5.05499 10.8337L5.44491 11.7546ZM5.81127 11.6814C5.93612 11.681 6.05984 11.7059 6.17467 11.7545L6.5648 10.8338C6.32542 10.7324 6.06787 10.6806 5.80803 10.6814L5.81127 11.6814ZM6.17561 11.7549C6.28634 11.8016 6.38693 11.8694 6.47194 11.9549L7.1807 11.2494C7.00417 11.0721 6.79479 10.9307 6.56386 10.8334L6.17561 11.7549ZM6.47362 11.9565C6.55917 12.0417 6.62719 12.1424 6.67385 12.2529L7.59512 11.864C7.49767 11.6331 7.35609 11.424 7.17902 11.2477L6.47362 11.9565ZM6.67406 12.2534C6.72253 12.3679 6.74735 12.4915 6.74697 12.6169L7.74697 12.6199C7.74775 12.3606 7.69643 12.1032 7.59491 11.8635L6.67406 12.2534ZM6.74697 12.6199C6.74733 12.7453 6.72252 12.8689 6.67404 12.9834L7.59493 13.3732C7.6964 13.1335 7.74772 12.8762 7.74697 12.617L6.74697 12.6199ZM6.6739 12.9837C6.62714 13.0944 6.55904 13.1952 6.47352 13.2804L7.17911 13.989C7.35614 13.8127 7.49763 13.6035 7.59506 13.3729L6.6739 12.9837ZM6.47217 13.2817C6.38695 13.3672 6.2862 13.4352 6.17531 13.482L6.56416 14.4033C6.79481 14.306 7.00399 14.1647 7.18047 13.9877L6.47217 13.2817ZM6.1748 13.4822C6.05987 13.5309 5.93606 13.5558 5.81112 13.5554L5.80817 14.5554C6.06792 14.5562 6.32535 14.5044 6.56467 14.4031L6.1748 13.4822ZM11.5325 13.5554C11.4077 13.5558 11.2842 13.5309 11.1691 13.4822L10.7794 14.4031C11.0185 14.5043 11.2755 14.5562 11.5353 14.5554L11.5325 13.5554ZM11.1689 13.4821C11.0575 13.435 10.9563 13.3668 10.8712 13.2815L10.1633 13.9878C10.34 14.165 10.5495 14.306 10.7796 14.4032L11.1689 13.4821ZM10.8704 13.2807C10.7852 13.1957 10.7171 13.0948 10.6699 12.9833L9.74908 13.3733C9.84636 13.603 9.98708 13.8121 10.1642 13.9887L10.8704 13.2807ZM10.6699 12.9834C10.6212 12.8682 10.5962 12.7446 10.5966 12.6199L9.59661 12.617C9.59586 12.8769 9.64784 13.1341 9.74904 13.3732L10.6699 12.9834ZM10.5966 12.6169C10.5962 12.4922 10.6212 12.3685 10.6699 12.2534L9.74906 11.8635C9.64781 12.1026 9.59583 12.36 9.59661 12.6199L10.5966 12.6169ZM10.67 12.2533C10.717 12.142 10.785 12.0412 10.8703 11.9562L10.1643 11.248C9.98713 11.4246 9.84632 11.6337 9.74903 11.8636L10.67 12.2533ZM10.8714 11.9551C10.9563 11.8699 11.0574 11.8018 11.1687 11.7548L10.7798 10.8335C10.5495 10.9307 10.3399 11.0718 10.1632 11.2491L10.8714 11.9551ZM11.1692 11.7546C11.2842 11.7059 11.4076 11.681 11.5324 11.6814L11.5354 10.6814C11.2755 10.6806 11.0185 10.7325 10.7793 10.8337L11.1692 11.7546ZM11.5356 11.6814C11.6604 11.681 11.7841 11.7059 11.899 11.7545L12.2891 10.8338C12.0497 10.7324 11.7922 10.6806 11.5323 10.6814L11.5356 11.6814ZM11.8999 11.7549C12.0106 11.8016 12.1112 11.8694 12.1962 11.9549L12.905 11.2494C12.7285 11.0721 12.5191 10.9307 12.2881 10.8334L11.8999 11.7549ZM12.1979 11.9565C12.2835 12.0417 12.3515 12.1424 12.3981 12.2529L13.3194 11.864C13.222 11.6331 13.0804 11.424 12.9033 11.2477L12.1979 11.9565ZM12.3983 12.2534C12.4468 12.3679 12.4716 12.4915 12.4713 12.6169L13.4713 12.6199C13.472 12.3606 13.4207 12.1032 13.3192 11.8635L12.3983 12.2534ZM12.4713 12.6199C12.4716 12.7453 12.4468 12.8689 12.3983 12.9834L13.3192 13.3732C13.4207 13.1335 13.472 12.8762 13.4713 12.617L12.4713 12.6199ZM12.3982 12.9837C12.3514 13.0944 12.2833 13.1952 12.1978 13.2804L12.9034 13.989C13.0804 13.8127 13.2219 13.6035 13.3193 13.3729L12.3982 12.9837ZM12.1965 13.2817C12.1112 13.3672 12.0105 13.4352 11.8996 13.482L12.2884 14.4033C12.5191 14.306 12.7283 14.1647 12.9048 13.9877L12.1965 13.2817ZM11.8991 13.4822C11.7842 13.5309 11.6603 13.5558 11.5354 13.5554L11.5325 14.5554C11.7922 14.5562 12.0496 14.5044 12.289 14.4031L11.8991 13.4822ZM0.831007 1.25457L2.83796 1.16059L2.79118 0.16168L0.784227 0.255669L0.831007 1.25457ZM2.31745 0.714752L3.26093 9.46206L4.25516 9.35482L3.31168 0.607514L2.31745 0.714752ZM3.28806 9.57905C3.37512 9.8189 3.51873 10.0342 3.70672 10.2068L4.38291 9.47002C4.31337 9.4062 4.26025 9.32655 4.22804 9.23783L3.28806 9.57905ZM3.7477 10.2405C3.95311 10.3923 4.18779 10.4997 4.43689 10.556L4.65741 9.58067C4.54338 9.55489 4.43595 9.5057 4.34192 9.43623L3.7477 10.2405ZM4.54715 10.5684H12.5461V9.56836H4.54715V10.5684ZM12.7254 10.5351C12.9359 10.4543 13.1296 10.3351 13.2967 10.1837L12.6251 9.44273C12.5496 9.51118 12.462 9.56505 12.3669 9.60161L12.7254 10.5351ZM13.3248 10.1561C13.4793 9.99211 13.6009 9.79994 13.683 9.59006L12.7516 9.22602C12.7162 9.31659 12.6637 9.39951 12.597 9.47027L13.3248 10.1561ZM13.7056 9.5155L14.8606 4.26696L13.884 4.05203L12.729 9.30058L13.7056 9.5155ZM14.3723 4.1595C14.8514 4.30262 14.8515 4.30224 14.8516 4.30186C14.8517 4.30173 14.8518 4.30135 14.8519 4.30109C14.852 4.30058 14.8522 4.30006 14.8523 4.29954C14.8526 4.29851 14.8529 4.29746 14.8532 4.29641C14.8538 4.2943 14.8544 4.29216 14.855 4.28998C14.8562 4.28563 14.8573 4.28113 14.8585 4.2765C14.8607 4.26723 14.8628 4.25743 14.8648 4.24709C14.8687 4.22639 14.8717 4.20371 14.8736 4.17915C14.8773 4.12975 14.8759 4.07432 14.8669 4.01361C14.8486 3.89138 14.8006 3.75765 14.7138 3.61456L13.8589 4.1333C13.8868 4.17939 13.8819 4.18844 13.8779 4.1617C13.8759 4.14873 13.8745 4.12922 13.8764 4.10381C13.8774 4.09124 13.8791 4.07757 13.8819 4.06288C13.8833 4.05555 13.8849 4.048 13.8868 4.04023C13.8877 4.03635 13.8887 4.03242 13.8898 4.02844C13.8903 4.02646 13.8909 4.02445 13.8915 4.02244C13.8918 4.02144 13.892 4.02043 13.8923 4.01941C13.8925 4.01891 13.8926 4.0184 13.8928 4.01789C13.8929 4.01764 13.893 4.01726 13.893 4.01713C13.8931 4.01675 13.8932 4.01637 14.3723 4.1595ZM14.727 3.63765C14.6665 3.52487 14.5835 3.42571 14.4831 3.34635L13.8629 4.13081C13.8558 4.1252 13.85 4.11818 13.8457 4.11021L14.727 3.63765ZM14.4831 3.34635C14.3827 3.26698 14.2671 3.20909 14.1434 3.17627L13.887 4.14284C13.8782 4.14052 13.87 4.13643 13.8629 4.13081L14.4831 3.34635ZM14.0115 3.15957L3.15724 3.23956L3.16461 4.23953L14.0189 4.15954L14.0115 3.15957Z" fill="white"/>
</svg>
