<svg width="7" height="13" viewBox="0 0 7 13" fill="none" xmlns="http://www.w3.org/2000/svg">
<path fill-rule="evenodd" clip-rule="evenodd" d="M0.263105 12.7021C0.102721 12.5161 0.0150813 12.2667 0.0194453 12.0087C0.0238093 11.7507 0.119819 11.5052 0.286377 11.3261L4.86878 6.51037L0.286376 1.69462C0.199866 1.60708 0.129989 1.50106 0.080882 1.38285C0.0317754 1.26464 0.00443975 1.13663 0.000495816 1.00641C-0.00344812 0.876197 0.0160793 0.746423 0.0579208 0.624781C0.0997623 0.503139 0.163066 0.392103 0.244082 0.298253C0.325098 0.204403 0.422178 0.129647 0.529568 0.0784174C0.636958 0.027187 0.752474 0.000524113 0.869272 9.11903e-06C0.986069 -0.000506829 1.10177 0.0251356 1.20952 0.0754161C1.31727 0.125697 1.41488 0.199593 1.49656 0.292725L6.73292 5.80943C6.81739 5.90024 6.88457 6.00912 6.93046 6.12956C6.97635 6.24999 7 6.37951 7 6.51037C7 6.64124 6.97635 6.77076 6.93046 6.89119C6.88457 7.01163 6.81739 7.1205 6.73292 7.21132L1.49656 12.728C1.32986 12.9069 1.1063 13.0047 0.875016 12.9998C0.64373 12.995 0.423637 12.8879 0.263105 12.7021Z" fill="#333333"/>
</svg>
