<svg width="50" height="50" viewBox="0 0 50 50" fill="none" xmlns="http://www.w3.org/2000/svg">
<g clip-path="url(#clip0_2323_4547)">
<path d="M24.0227 5.56149C25.427 5.33688 26.9075 5.60641 28.1301 6.33492C29.552 7.16012 30.6194 8.57125 31.0168 10.167C31.3645 11.5175 31.2346 12.9824 30.6565 14.2509C29.7864 16.2002 27.8557 17.6181 25.7336 17.8613C25.7317 19.9961 25.7336 22.1308 25.7327 24.2666C26.5598 24.2822 27.3899 24.2402 28.2161 24.2851C28.6819 24.3134 28.9924 24.8613 28.7971 25.2802C28.6829 25.5918 28.343 25.7431 28.0276 25.7304C27.2629 25.7382 26.4973 25.7285 25.7327 25.7334C25.7336 27.5097 25.7317 29.2861 25.7346 31.0625C25.7336 31.3115 25.7073 31.5908 25.5159 31.7734C25.2454 32.0527 24.7542 32.0527 24.4846 31.7724C24.2903 31.5888 24.2659 31.3056 24.2659 31.0537C24.2688 29.2802 24.2678 27.5068 24.2668 25.7334C18.8137 25.7324 13.3606 25.7314 7.90747 25.7334C7.42603 25.6826 6.95337 26.0605 6.95435 26.5547C6.92798 28.122 6.96411 29.6904 6.93774 31.2568C6.95435 31.7041 6.49243 32.081 6.05786 31.9677C5.68384 31.9023 5.45728 31.5214 5.48267 31.1601C5.47974 29.6582 5.47974 28.1552 5.48267 26.6533C5.47095 25.9687 5.75122 25.2744 6.28247 24.832C6.72388 24.4384 7.31958 24.2578 7.90552 24.2675C13.3596 24.2666 18.8137 24.2685 24.2668 24.2666C24.2678 22.1318 24.2688 19.9961 24.2668 17.8603C22.7395 17.6738 21.2903 16.9091 20.2952 15.7343C19.2493 14.5371 18.7034 12.9218 18.803 11.3359C18.8694 10.1396 19.2942 8.96578 20.011 8.00485C20.9622 6.7109 22.4338 5.8066 24.0227 5.56149ZM24.4504 6.97945C23.0002 7.16305 21.6467 8.03219 20.9163 9.30465C20.2786 10.3974 20.0579 11.7578 20.4475 12.9746C20.76 14.1191 21.5334 15.124 22.5461 15.7373C23.6506 16.4013 25.0374 16.6416 26.2786 16.2451C27.4329 15.9316 28.4465 15.1484 29.0588 14.123C29.7454 12.9765 29.9592 11.5273 29.5061 10.2558C28.8801 8.14645 26.6301 6.69528 24.4504 6.97945Z" fill="#333333"/>
<path d="M31.2013 24.2813C34.881 24.252 38.5626 24.2705 42.2423 24.2725C43.42 24.2608 44.4845 25.2774 44.5099 26.458C44.5284 28.0537 44.5216 29.6514 44.5138 31.2481C44.5323 31.6895 44.0929 32.0694 43.6583 31.9727C43.3165 31.919 43.0548 31.5967 43.0626 31.2529C43.0362 29.6904 43.0714 28.127 43.047 26.5645C43.0489 26.1074 42.6397 25.7139 42.1827 25.7383C38.5704 25.7236 34.9571 25.7393 31.3458 25.7305C31.004 25.7461 30.6515 25.5381 30.5665 25.1953C30.4317 24.7783 30.7638 24.3028 31.2013 24.2813Z" fill="#333333"/>
<path d="M0 35.832C0.0615234 34.6738 1.08105 33.6669 2.24902 33.6689C4.78418 33.6484 7.32031 33.6689 9.85547 33.6591C10.4023 33.6494 10.9727 33.7431 11.4238 34.0712C12.0645 34.5048 12.4414 35.2695 12.4219 36.04C12.4277 38.0224 12.4209 40.0058 12.4248 41.9882C12.4297 42.4628 12.3623 42.954 12.1104 43.3652C11.7197 44.0595 10.9502 44.5068 10.1553 44.5136C8.9502 44.5302 7.74512 44.5107 6.54102 44.5224C6.27148 44.5156 5.96484 44.5322 5.74707 44.3437C5.42969 44.0927 5.40039 43.5673 5.69238 43.2851C5.87695 43.0703 6.17871 43.0576 6.44043 43.0527C7.64648 43.0497 8.85352 43.0634 10.0605 43.0497C10.4268 43.0605 10.8066 42.8398 10.9082 42.4746C10.9883 42.1249 10.9551 41.7626 10.96 41.4072C10.958 39.6806 10.957 37.954 10.9609 36.2275C10.957 35.9326 10.9453 35.5966 10.7129 35.3818C10.4961 35.1464 10.1592 35.1249 9.86133 35.124C7.41992 35.1279 4.97852 35.1269 2.53809 35.124C2.24316 35.1249 1.91309 35.1552 1.70312 35.3886C1.47656 35.6064 1.46582 35.9384 1.46191 36.2324C1.4668 38.1533 1.46484 40.0742 1.46289 41.996C1.46094 42.3037 1.50391 42.6533 1.76953 42.8535C2.29102 43.288 3.09766 42.8046 3.5957 43.2812C3.99512 43.6435 3.7832 44.3994 3.24609 44.4872C2.49121 44.5683 1.65039 44.5683 1.00391 44.1122C0.411133 43.7148 0.0478516 43.0302 0 42.3242V35.832Z" fill="#333333"/>
<path d="M20.6265 33.7158C21.0396 33.6396 21.4605 33.662 21.8775 33.6601C24.0904 33.6601 26.3043 33.663 28.5172 33.6591C29.0514 33.6484 29.6139 33.6943 30.0767 33.9863C30.7681 34.3827 31.2008 35.1572 31.2086 35.9501C31.2193 37.997 31.2105 40.0449 31.2125 42.0917C31.2183 42.6816 31.0377 43.2851 30.6392 43.7294C30.191 44.2558 29.4967 44.5312 28.8121 44.5185C26.2691 44.5204 23.7262 44.5204 21.1842 44.5175C20.4996 44.5312 19.8062 44.2548 19.3599 43.7284C18.9625 43.2851 18.7818 42.6845 18.7867 42.0966C18.7887 40.0449 18.7799 37.9941 18.7906 35.9433C18.7887 34.8906 19.5885 33.9062 20.6265 33.7158ZM20.7408 35.2099C20.3834 35.3603 20.233 35.7607 20.2506 36.1259C20.2555 38.1425 20.2447 40.1601 20.2555 42.1757C20.2369 42.6376 20.6275 43.0566 21.0943 43.0478C23.6002 43.0644 26.108 43.0468 28.6148 43.0566C28.9039 43.0566 29.2291 43.0517 29.4556 42.8417C29.7056 42.6386 29.7555 42.2978 29.7496 41.995C29.7467 40.04 29.7486 38.0849 29.7486 36.1308C29.7515 35.8329 29.6822 35.5029 29.4293 35.3173C29.231 35.1435 28.9537 35.1298 28.7047 35.1249C26.231 35.1269 23.7584 35.1269 21.2848 35.1249C21.1012 35.1298 20.9117 35.1366 20.7408 35.2099Z" fill="#333333"/>
<path d="M37.5823 35.9434C37.5637 34.7344 38.636 33.6553 39.8459 33.668C42.4797 33.6563 45.1145 33.6543 47.7483 33.6689C48.9123 33.665 49.928 34.6631 50.0002 35.8154V42.3174C49.9582 43.4854 48.9348 44.5117 47.758 44.5117C45.1828 44.5293 42.6067 44.5147 40.0315 44.5195C39.4563 44.5293 38.8655 44.3711 38.4221 43.9932C37.8576 43.5391 37.553 42.8125 37.5774 42.0928C37.5793 40.043 37.5686 37.9932 37.5823 35.9434ZM39.5784 35.1914C39.2346 35.3154 39.0285 35.6768 39.0451 36.0352C39.0354 37.9873 39.0471 39.9404 39.0393 41.8926C39.0461 42.1719 39.0266 42.4873 39.217 42.7168C39.3996 42.9795 39.7336 43.0625 40.0383 43.0547C42.5471 43.0537 45.0559 43.0557 47.5637 43.0537C47.8655 43.0615 48.1936 42.9668 48.3694 42.7041C48.5686 42.4473 48.5276 42.1006 48.5383 41.7959C48.5334 39.9434 48.5344 38.0898 48.5373 36.2363C48.5325 35.9629 48.5334 35.6582 48.342 35.4404C48.1594 35.2012 47.8479 35.1221 47.5608 35.127C45.1858 35.124 42.8117 35.1289 40.4377 35.124C40.1516 35.1279 39.8557 35.1016 39.5784 35.1914Z" fill="#333333"/>
</g>
<defs>
<clipPath id="clip0_2323_4547">
<rect width="50" height="50" fill="white"/>
</clipPath>
</defs>
</svg>
