<svg width="13" height="13" viewBox="0 0 13 13" fill="none" xmlns="http://www.w3.org/2000/svg">
<path d="M5.61937 2.42856H2.1908C1.78666 2.42856 1.39908 2.5891 1.11331 2.87487C0.827536 3.16064 0.666992 3.54823 0.666992 3.95237V10.8095C0.666992 11.2137 0.827536 11.6012 1.11331 11.887C1.39908 12.1728 1.78666 12.3333 2.1908 12.3333H9.80985C10.214 12.3333 10.6016 12.1728 10.8873 11.887C11.1731 11.6012 11.3337 11.2137 11.3337 10.8095V7.38094" stroke="#1E5CA4" stroke-width="0.761905" stroke-linecap="round" stroke-linejoin="round"/>
<path d="M9.81008 3.19047L10.5362 3.95238M11.3339 1.64152C11.537 1.85154 11.6495 2.13296 11.647 2.42512C11.6446 2.71729 11.5275 2.9968 11.3209 3.20343L6.00056 8.52381L3.71484 9.28571L4.47675 7L9.80018 1.63162C9.98732 1.44303 10.2378 1.33054 10.503 1.3159C10.7683 1.30127 11.0296 1.38552 11.2364 1.55238L11.3339 1.64152Z" stroke="#1E5CA4" stroke-width="0.761905" stroke-linecap="round" stroke-linejoin="round"/>
</svg>
