<svg width="16" height="16" viewBox="0 0 16 16" fill="none" xmlns="http://www.w3.org/2000/svg">
<g clip-path="url(#clip0_1700_1389)">
<path d="M6.80965 15.0554L6.81112 14.5554L6.80826 14.5554L6.80965 15.0554ZM6.24995 14.9427L6.44481 14.4822L6.44463 14.4821L6.24995 14.9427ZM5.79298 14.6347L6.14694 14.2815L6.14608 14.2807L5.79298 14.6347ZM5.4852 14.1783L5.02476 14.3732L5.0248 14.3733L5.4852 14.1783ZM5.37233 13.6184L5.87233 13.6199L5.87233 13.6169L5.37233 13.6184ZM5.4852 13.0584L5.94563 13.2534L5.94567 13.2533L5.4852 13.0584ZM5.79298 12.6021L6.14599 12.9562L6.14709 12.9551L5.79298 12.6021ZM6.24995 12.2942L6.44443 12.7548L6.44491 12.7546L6.24995 12.2942ZM6.80965 12.1814L6.80814 12.6814L6.81127 12.6814L6.80965 12.1814ZM7.36973 12.2942L7.17467 12.7545L7.17561 12.7549L7.36973 12.2942ZM7.82632 12.6021L7.47193 12.9549L7.47362 12.9565L7.82632 12.6021ZM8.13448 13.0584L7.67385 13.2529L7.67406 13.2534L8.13448 13.0584ZM8.24697 13.6184L7.74696 13.6169L7.74697 13.6199L8.24697 13.6184ZM8.13448 14.1783L7.67404 13.9834L7.6739 13.9837L8.13448 14.1783ZM7.82632 14.6347L7.47352 14.2804L7.47217 14.2817L7.82632 14.6347ZM7.36973 14.9427L7.17531 14.482L7.1748 14.4822L7.36973 14.9427ZM12.5339 15.0554L12.5354 14.5554L12.5325 14.5554L12.5339 15.0554ZM11.9742 14.9427L12.1691 14.4822L12.1689 14.4821L11.9742 14.9427ZM11.5173 14.6347L11.8712 14.2815L11.8704 14.2807L11.5173 14.6347ZM11.2095 14.1783L10.749 14.3732L10.7491 14.3733L11.2095 14.1783ZM11.0966 13.6184L11.5966 13.6199L11.5966 13.6169L11.0966 13.6184ZM11.2095 13.0584L11.6699 13.2534L11.67 13.2533L11.2095 13.0584ZM11.5173 12.6021L11.8703 12.9562L11.8714 12.9551L11.5173 12.6021ZM11.9742 12.2942L12.1687 12.7548L12.1692 12.7546L11.9742 12.2942ZM12.5339 12.1814L12.5324 12.6814L12.5356 12.6814L12.5339 12.1814ZM13.094 12.2942L12.899 12.7545L12.8999 12.7549L13.094 12.2942ZM13.5506 12.6021L13.1962 12.9549L13.1979 12.9565L13.5506 12.6021ZM13.8588 13.0584L13.3981 13.2529L13.3983 13.2534L13.8588 13.0584ZM13.9713 13.6184L13.4712 13.6169L13.4713 13.6199L13.9713 13.6184ZM13.8588 14.1783L13.3983 13.9834L13.3982 13.9837L13.8588 14.1783ZM13.5506 14.6347L13.1978 14.2804L13.1965 14.2817L13.5506 14.6347ZM13.094 14.9427L12.8996 14.482L12.8991 14.4822L13.094 14.9427ZM1.78423 1.25567C1.50839 1.26859 1.29525 1.50267 1.30816 1.77851C1.32108 2.05435 1.55517 2.26749 1.83101 2.25457L1.78423 1.25567ZM3.81457 1.66113L4.31168 1.60751C4.28333 1.34467 4.05526 1.14931 3.79118 1.16168L3.81457 1.66113ZM4.75805 10.4084L4.26093 10.4621C4.26524 10.502 4.27435 10.5413 4.28806 10.579L4.75805 10.4084ZM5.04481 10.8384L4.70672 11.2068C4.71977 11.2187 4.73345 11.23 4.7477 11.2405L5.04481 10.8384ZM5.54715 11.0684L5.43689 11.556C5.47307 11.5642 5.51005 11.5684 5.54715 11.5684V11.0684ZM13.5461 11.0684V11.5684C13.6074 11.5684 13.6682 11.5571 13.7254 11.5351L13.5461 11.0684ZM13.9609 10.8132L14.2967 11.1837C14.3064 11.1748 14.3158 11.1657 14.3248 11.1561L13.9609 10.8132ZM14.2173 10.408L14.683 10.5901C14.6924 10.5658 14.7 10.5409 14.7056 10.5155L14.2173 10.408ZM15.3723 5.1595L14.8932 5.01637C14.8897 5.02814 14.8866 5.04003 14.884 5.05203L15.3723 5.1595ZM15.2863 4.87393L14.8457 5.11021C14.8499 5.11802 14.8543 5.12572 14.8589 5.1333L15.2863 4.87393ZM15.0152 4.65956L15.1434 4.17627C15.1003 4.16486 15.056 4.15924 15.0115 4.15957L15.0152 4.65956ZM4.15724 4.23956C3.8811 4.2416 3.6589 4.4671 3.66094 4.74323C3.66297 5.01937 3.88847 5.24157 4.16461 5.23953L4.15724 4.23956ZM6.80826 14.5554C6.6834 14.5558 6.55992 14.5309 6.44481 14.4822L6.0551 15.4031C6.29425 15.5043 6.55122 15.5562 6.81104 15.5554L6.80826 14.5554ZM6.44463 14.4821C6.33324 14.435 6.23204 14.3668 6.14693 14.2815L5.43902 14.9878C5.61575 15.165 5.82522 15.306 6.05527 15.4032L6.44463 14.4821ZM6.14608 14.2807C6.06087 14.1957 5.99281 14.0948 5.94561 13.9833L5.0248 14.3733C5.12208 14.603 5.2628 14.8121 5.43987 14.9887L6.14608 14.2807ZM5.94565 13.9834C5.8969 13.8682 5.87197 13.7446 5.87233 13.6199L4.87233 13.617C4.87158 13.8769 4.92355 14.1341 5.02476 14.3732L5.94565 13.9834ZM5.87233 13.6169C5.87195 13.4922 5.89689 13.3685 5.94563 13.2534L5.02478 12.8635C4.92352 13.1026 4.87155 13.36 4.87233 13.6199L5.87233 13.6169ZM5.94567 13.2533C5.99276 13.142 6.06074 13.0412 6.14599 12.9562L5.43997 12.248C5.26285 12.4246 5.12204 12.6337 5.02474 12.8636L5.94567 13.2533ZM6.14709 12.9551C6.23205 12.8699 6.33314 12.8018 6.44443 12.7548L6.05547 11.8335C5.82524 11.9307 5.61562 12.0718 5.43887 12.2491L6.14709 12.9551ZM6.44491 12.7546C6.55995 12.7059 6.68336 12.681 6.80814 12.6814L6.81115 11.6814C6.55125 11.6806 6.29419 11.7325 6.05499 11.8337L6.44491 12.7546ZM6.81127 12.6814C6.93612 12.681 7.05984 12.7059 7.17467 12.7545L7.5648 11.8338C7.32542 11.7324 7.06787 11.6806 6.80803 11.6814L6.81127 12.6814ZM7.17561 12.7549C7.28634 12.8016 7.38693 12.8694 7.47194 12.9549L8.1807 12.2494C8.00417 12.0721 7.79479 11.9307 7.56386 11.8334L7.17561 12.7549ZM7.47362 12.9565C7.55917 13.0417 7.62719 13.1424 7.67385 13.2529L8.59512 12.864C8.49767 12.6331 8.35609 12.424 8.17902 12.2477L7.47362 12.9565ZM7.67406 13.2534C7.72253 13.3679 7.74735 13.4915 7.74697 13.6169L8.74697 13.6199C8.74775 13.3606 8.69643 13.1032 8.59491 12.8635L7.67406 13.2534ZM7.74697 13.6199C7.74733 13.7453 7.72252 13.8689 7.67404 13.9834L8.59493 14.3732C8.6964 14.1335 8.74772 13.8762 8.74697 13.617L7.74697 13.6199ZM7.6739 13.9837C7.62714 14.0944 7.55904 14.1952 7.47352 14.2804L8.17911 14.989C8.35614 14.8127 8.49763 14.6035 8.59506 14.3729L7.6739 13.9837ZM7.47217 14.2817C7.38695 14.3672 7.2862 14.4352 7.17531 14.482L7.56416 15.4033C7.79481 15.306 8.00399 15.1647 8.18047 14.9877L7.47217 14.2817ZM7.1748 14.4822C7.05987 14.5309 6.93606 14.5558 6.81112 14.5554L6.80817 15.5554C7.06792 15.5562 7.32535 15.5044 7.56467 15.4031L7.1748 14.4822ZM12.5325 14.5554C12.4077 14.5558 12.2842 14.5309 12.1691 14.4822L11.7794 15.4031C12.0185 15.5043 12.2755 15.5562 12.5353 15.5554L12.5325 14.5554ZM12.1689 14.4821C12.0575 14.435 11.9563 14.3668 11.8712 14.2815L11.1633 14.9878C11.34 15.165 11.5495 15.306 11.7796 15.4032L12.1689 14.4821ZM11.8704 14.2807C11.7852 14.1957 11.7171 14.0948 11.6699 13.9833L10.7491 14.3733C10.8464 14.603 10.9871 14.8121 11.1642 14.9887L11.8704 14.2807ZM11.6699 13.9834C11.6212 13.8682 11.5962 13.7446 11.5966 13.6199L10.5966 13.617C10.5959 13.8769 10.6478 14.1341 10.749 14.3732L11.6699 13.9834ZM11.5966 13.6169C11.5962 13.4922 11.6212 13.3685 11.6699 13.2534L10.7491 12.8635C10.6478 13.1026 10.5958 13.36 10.5966 13.6199L11.5966 13.6169ZM11.67 13.2533C11.717 13.142 11.785 13.0412 11.8703 12.9562L11.1643 12.248C10.9871 12.4246 10.8463 12.6337 10.749 12.8636L11.67 13.2533ZM11.8714 12.9551C11.9563 12.8699 12.0574 12.8018 12.1687 12.7548L11.7798 11.8335C11.5495 11.9307 11.3399 12.0718 11.1632 12.2491L11.8714 12.9551ZM12.1692 12.7546C12.2842 12.7059 12.4076 12.681 12.5324 12.6814L12.5354 11.6814C12.2755 11.6806 12.0185 11.7325 11.7793 11.8337L12.1692 12.7546ZM12.5356 12.6814C12.6604 12.681 12.7841 12.7059 12.899 12.7545L13.2891 11.8338C13.0497 11.7324 12.7922 11.6806 12.5323 11.6814L12.5356 12.6814ZM12.8999 12.7549C13.0106 12.8016 13.1112 12.8694 13.1962 12.9549L13.905 12.2494C13.7285 12.0721 13.5191 11.9307 13.2881 11.8334L12.8999 12.7549ZM13.1979 12.9565C13.2835 13.0417 13.3515 13.1424 13.3981 13.2529L14.3194 12.864C14.222 12.6331 14.0804 12.424 13.9033 12.2477L13.1979 12.9565ZM13.3983 13.2534C13.4468 13.3679 13.4716 13.4915 13.4713 13.6169L14.4713 13.6199C14.472 13.3606 14.4207 13.1032 14.3192 12.8635L13.3983 13.2534ZM13.4713 13.6199C13.4716 13.7453 13.4468 13.8689 13.3983 13.9834L14.3192 14.3732C14.4207 14.1335 14.472 13.8762 14.4713 13.617L13.4713 13.6199ZM13.3982 13.9837C13.3514 14.0944 13.2833 14.1952 13.1978 14.2804L13.9034 14.989C14.0804 14.8127 14.2219 14.6035 14.3193 14.3729L13.3982 13.9837ZM13.1965 14.2817C13.1112 14.3672 13.0105 14.4352 12.8996 14.482L13.2884 15.4033C13.5191 15.306 13.7283 15.1647 13.9048 14.9877L13.1965 14.2817ZM12.8991 14.4822C12.7842 14.5309 12.6603 14.5558 12.5354 14.5554L12.5325 15.5554C12.7922 15.5562 13.0496 15.5044 13.289 15.4031L12.8991 14.4822ZM1.83101 2.25457L3.83796 2.16059L3.79118 1.16168L1.78423 1.25567L1.83101 2.25457ZM3.31745 1.71475L4.26093 10.4621L5.25516 10.3548L4.31168 1.60751L3.31745 1.71475ZM4.28806 10.579C4.37512 10.8189 4.51873 11.0342 4.70672 11.2068L5.38291 10.47C5.31337 10.4062 5.26025 10.3266 5.22804 10.2378L4.28806 10.579ZM4.7477 11.2405C4.95311 11.3923 5.18779 11.4997 5.43689 11.556L5.65741 10.5807C5.54338 10.5549 5.43595 10.5057 5.34192 10.4362L4.7477 11.2405ZM5.54715 11.5684H13.5461V10.5684H5.54715V11.5684ZM13.7254 11.5351C13.9359 11.4543 14.1296 11.3351 14.2967 11.1837L13.6251 10.4427C13.5496 10.5112 13.462 10.5651 13.3669 10.6016L13.7254 11.5351ZM14.3248 11.1561C14.4793 10.9921 14.6009 10.7999 14.683 10.5901L13.7516 10.226C13.7162 10.3166 13.6637 10.3995 13.597 10.4703L14.3248 11.1561ZM14.7056 10.5155L15.8606 5.26696L14.884 5.05203L13.729 10.3006L14.7056 10.5155ZM15.3723 5.1595C15.8514 5.30262 15.8515 5.30224 15.8516 5.30186C15.8517 5.30173 15.8518 5.30135 15.8519 5.30109C15.852 5.30058 15.8522 5.30006 15.8523 5.29954C15.8526 5.29851 15.8529 5.29746 15.8532 5.29641C15.8538 5.2943 15.8544 5.29216 15.855 5.28998C15.8562 5.28563 15.8573 5.28113 15.8585 5.2765C15.8607 5.26723 15.8628 5.25743 15.8648 5.24709C15.8687 5.22639 15.8717 5.20371 15.8736 5.17915C15.8773 5.12975 15.8759 5.07432 15.8669 5.01361C15.8486 4.89138 15.8006 4.75765 15.7138 4.61456L14.8589 5.1333C14.8868 5.17939 14.8819 5.18844 14.8779 5.1617C14.8759 5.14873 14.8745 5.12922 14.8764 5.10381C14.8774 5.09124 14.8791 5.07757 14.8819 5.06288C14.8833 5.05555 14.8849 5.048 14.8868 5.04023C14.8877 5.03635 14.8887 5.03242 14.8898 5.02844C14.8903 5.02646 14.8909 5.02445 14.8915 5.02244C14.8918 5.02144 14.892 5.02043 14.8923 5.01941C14.8925 5.01891 14.8926 5.0184 14.8928 5.01789C14.8929 5.01764 14.893 5.01726 14.893 5.01713C14.8931 5.01675 14.8932 5.01637 15.3723 5.1595ZM15.727 4.63765C15.6665 4.52487 15.5835 4.42571 15.4831 4.34635L14.8629 5.13081C14.8558 5.1252 14.85 5.11818 14.8457 5.11021L15.727 4.63765ZM15.4831 4.34635C15.3827 4.26698 15.2671 4.20909 15.1434 4.17627L14.887 5.14284C14.8782 5.14052 14.87 5.13643 14.8629 5.13081L15.4831 4.34635ZM15.0115 4.15957L4.15724 4.23956L4.16461 5.23953L15.0189 5.15954L15.0115 4.15957Z" fill="white"/>
</g>
<path d="M14 11L15.0007 5H4.5L5 11H14ZM8.06794 7.36275C8.19045 7.25777 8.37453 7.27247 8.47957 7.39215L9.26428 8.30772L11.3643 6.05584C11.4749 5.93895 11.659 5.93333 11.7752 6.04115C11.8948 6.15174 11.9005 6.33582 11.7899 6.45555L9.46799 8.94405C9.41267 9.00215 9.33357 9.03716 9.25242 9.03716H9.2468C9.16492 9.03438 9.0865 8.99659 9.03401 8.93496L8.03582 7.77436C7.93153 7.65185 7.94543 7.46495 8.06794 7.36275Z" fill="white"/>
<defs>
<clipPath id="clip0_1700_1389">
<rect width="16" height="16" fill="white"/>
</clipPath>
</defs>
</svg>
