<svg width="35" height="29" viewBox="0 0 35 29" fill="none" xmlns="http://www.w3.org/2000/svg">
<path d="M34.002 28.0762H3.00195M3.00195 28.0762H0.501953M3.00195 28.0762V5.58477C3.00195 4.69181 3.59391 3.90704 4.45251 3.66173L14.4525 0.804584C15.7301 0.439546 17.002 1.39887 17.002 2.72763V3.07617M17.002 28.0762V9.57617C17.002 8.4716 17.8974 7.57617 19.002 7.57617H28.502C29.6065 7.57617 30.502 8.4716 30.502 9.57617V24.5762M8.50195 7.57617H12.002M8.50195 12.5762H12.002M22.002 12.5762H25.502M8.50195 17.5762H12.002M22.002 17.5762H25.502M8.50195 22.5762H12.002M22.002 22.5762H25.502" stroke="#333333" stroke-linecap="round" stroke-linejoin="round"/>
</svg>
