<svg width="12" height="15" viewBox="0 0 12 15" fill="none" xmlns="http://www.w3.org/2000/svg">
<path d="M3.03125 11.375C3.03125 11.2886 3.10114 11.2187 3.1875 11.2187H8.8125C8.89886 11.2187 8.96875 11.2886 8.96875 11.375C8.96875 11.4614 8.89886 11.5312 8.8125 11.5312H3.1875C3.10114 11.5312 3.03125 11.4614 3.03125 11.375ZM3.03125 12.9375C3.03125 13.0239 3.10114 13.0937 3.1875 13.0937H9.4375C9.52386 13.0937 9.59375 13.0239 9.59375 12.9375C9.59375 12.8511 9.52386 12.7812 9.4375 12.7812H3.1875C3.10114 12.7812 3.03125 12.8511 3.03125 12.9375ZM11 11.375V14.5C11 14.5864 10.9301 14.6562 10.8438 14.6562H1.15625C1.06989 14.6562 1 14.5864 1 14.5V2.625C1 2.53864 1.06989 2.46875 1.15625 2.46875H3.1875V0.75C3.1875 0.663635 3.25739 0.59375 3.34375 0.59375H8.34375C8.43011 0.59375 8.5 0.663635 8.5 0.75V2.46875H10.8438C10.9301 2.46875 11 2.53864 11 2.625V11.2187H6.85938H10.8438C10.9301 11.2187 11 11.2886 11 11.375ZM10.6875 11.5312H10.8438C10.7574 11.5312 10.6875 11.4614 10.6875 11.375V2.78125H8.34375C8.25739 2.78125 8.1875 2.71136 8.1875 2.625V0.90625H3.5V2.625C3.5 2.71136 3.43011 2.78125 3.34375 2.78125H1.3125V14.3437H10.6875V11.5312ZM4.06976 5.02566C4.06976 4.04651 4.86597 3.25 5.84467 3.25C6.82336 3.25 7.61957 4.04651 7.61957 5.02566C7.61957 6.00406 6.82336 6.80011 5.84467 6.80011C4.86597 6.80011 4.06976 6.00406 4.06976 5.02566ZM4.38226 5.02566C4.38226 5.83179 5.03824 6.48761 5.84467 6.48761C6.65109 6.48761 7.30707 5.83179 7.30707 5.02566C7.30707 4.21893 6.65109 3.5625 5.84467 3.5625C5.03824 3.5625 4.38226 4.21893 4.38226 5.02566Z" fill="black" stroke="#636363" stroke-width="0.4"/>
</svg>
