<svg width="20" height="20" viewBox="0 0 20 20" fill="none" xmlns="http://www.w3.org/2000/svg">
<path d="M7.63599 19L7.63748 18.5L7.63458 18.5L7.63599 19ZM6.89346 18.8484L7.09045 18.3889L7.09028 18.3888L6.89346 18.8484ZM6.28722 18.4346L6.64344 18.0837L6.64259 18.0828L6.28722 18.4346ZM5.8789 17.8212L5.41756 18.014L5.4176 18.0141L5.8789 17.8212ZM5.72916 17.0688L6.22916 17.0703L6.22915 17.0674L5.72916 17.0688ZM5.8789 16.3163L6.34022 16.5091L6.34026 16.509L5.8789 16.3163ZM6.28722 15.7031L6.6425 16.0549L6.64359 16.0538L6.28722 15.7031ZM6.89346 15.2892L7.09008 15.749L7.09056 15.7488L6.89346 15.2892ZM7.63599 15.1377L7.63447 15.6377L7.63763 15.6377L7.63599 15.1377ZM8.37903 15.2892L8.18183 15.7487L8.18278 15.7491L8.37903 15.2892ZM8.98476 15.7031L8.62811 16.0535L8.62979 16.0552L8.98476 15.7031ZM9.39359 16.3163L8.93207 16.5086L8.93228 16.5091L9.39359 16.3163ZM9.54282 17.0688L9.04282 17.0674L9.04282 17.0703L9.54282 17.0688ZM9.39359 17.8212L8.93225 17.6285L8.93212 17.6288L9.39359 17.8212ZM8.98476 18.4346L8.62969 18.0825L8.62835 18.0839L8.98476 18.4346ZM8.37903 18.8484L8.18247 18.3887L8.18196 18.3889L8.37903 18.8484ZM15.2302 19L15.2317 18.5L15.2288 18.5L15.2302 19ZM14.4876 18.8484L14.6846 18.3889L14.6845 18.3888L14.4876 18.8484ZM13.8814 18.4346L14.2376 18.0837L14.2368 18.0828L13.8814 18.4346ZM13.4731 17.8212L13.0117 18.014L13.0118 18.0141L13.4731 17.8212ZM13.3233 17.0688L13.8233 17.0703L13.8233 17.0674L13.3233 17.0688ZM13.4731 16.3163L13.9344 16.5091L13.9344 16.509L13.4731 16.3163ZM13.8814 15.7031L14.2367 16.0549L14.2378 16.0538L13.8814 15.7031ZM14.4876 15.2892L14.6842 15.749L14.6847 15.7488L14.4876 15.2892ZM15.2302 15.1377L15.2286 15.6377L15.2318 15.6377L15.2302 15.1377ZM15.9732 15.2892L15.776 15.7487L15.7769 15.7491L15.9732 15.2892ZM16.5789 15.7031L16.2223 16.0535L16.224 16.0552L16.5789 15.7031ZM16.9878 16.3163L16.5262 16.5086L16.5264 16.5091L16.9878 16.3163ZM17.137 17.0688L16.637 17.0674L16.637 17.0703L17.137 17.0688ZM16.9878 17.8212L16.5264 17.6285L16.5263 17.6288L16.9878 17.8212ZM16.5789 18.4346L16.2239 18.0825L16.2225 18.0839L16.5789 18.4346ZM15.9732 18.8484L15.7766 18.3887L15.7761 18.3889L15.9732 18.8484ZM0.976307 0.626868C0.700475 0.639953 0.487477 0.874167 0.500562 1.15C0.513647 1.42583 0.74786 1.63883 1.02369 1.62575L0.976307 0.626868ZM3.66254 1L4.15973 0.947059C4.13169 0.683794 3.9033 0.488016 3.63884 0.500562L3.66254 1ZM4.91422 12.7551L4.41703 12.808C4.42123 12.8475 4.43013 12.8864 4.44353 12.9238L4.91422 12.7551ZM5.29465 13.3329L4.9542 13.6991C4.96721 13.7112 4.98085 13.7226 4.99507 13.7332L5.29465 13.3329ZM5.96108 13.6419L5.84946 14.1293C5.88608 14.1377 5.92352 14.1419 5.96108 14.1419V13.6419ZM16.573 13.6419V14.1419C16.6351 14.1419 16.6965 14.1304 16.7543 14.1079L16.573 13.6419ZM17.1233 13.299L17.4614 13.6673C17.4711 13.6585 17.4804 13.6492 17.4893 13.6396L17.1233 13.299ZM17.4634 12.7546L17.9298 12.9346C17.9391 12.9105 17.9465 12.8859 17.952 12.8607L17.4634 12.7546ZM18.9957 5.70129L18.5162 5.55984C18.5127 5.5715 18.5097 5.58327 18.5071 5.59514L18.9957 5.70129ZM18.8817 5.31753L18.4398 5.55145C18.4439 5.55924 18.4482 5.56691 18.4527 5.57446L18.8817 5.31753ZM18.5219 5.02944L18.6517 4.54658C18.6081 4.53488 18.5632 4.52912 18.5182 4.52946L18.5219 5.02944ZM4.1183 4.63695C3.84217 4.63901 3.61999 4.86454 3.62205 5.14067C3.62411 5.41681 3.84963 5.63899 4.12577 5.63693L4.1183 4.63695ZM7.63458 18.5C7.44782 18.5005 7.26296 18.4628 7.09045 18.3889L6.69647 19.308C6.99396 19.4355 7.31382 19.5009 7.6374 19.5L7.63458 18.5ZM7.09028 18.3888C6.92355 18.3174 6.7716 18.2138 6.64344 18.0837L5.93099 18.7854C6.15018 19.008 6.4104 19.1855 6.69665 19.3081L7.09028 18.3888ZM6.64259 18.0828C6.51423 17.9532 6.41151 17.7989 6.34021 17.6284L5.4176 18.0141C5.53797 18.302 5.71223 18.5644 5.93184 18.7863L6.64259 18.0828ZM6.34024 17.6285C6.26646 17.4519 6.22861 17.262 6.22915 17.0703L5.22916 17.0674C5.22823 17.3926 5.2924 17.7145 5.41757 18.014L6.34024 17.6285ZM6.22915 17.0674C6.22858 16.8756 6.26645 16.6856 6.34022 16.5091L5.41759 16.1235C5.29236 16.423 5.22819 16.7451 5.22916 17.0703L6.22915 17.0674ZM6.34026 16.509C6.41144 16.3387 6.51409 16.1846 6.6425 16.0549L5.93193 15.3513C5.71227 15.5731 5.53792 15.8354 5.41755 16.1235L6.34026 16.509ZM6.64359 16.0538C6.7716 15.9237 6.92345 15.8202 7.09008 15.749L6.69685 14.8295C6.4104 14.952 6.15004 15.1297 5.93084 15.3524L6.64359 16.0538ZM7.09056 15.7488C7.26298 15.6748 7.44778 15.6371 7.63447 15.6377L7.63751 14.6377C7.31385 14.6367 6.9939 14.7021 6.69637 14.8297L7.09056 15.7488ZM7.63763 15.6377C7.82438 15.6371 8.00962 15.6748 8.18183 15.7487L8.57624 14.8298C8.27853 14.702 7.95795 14.6366 7.63435 14.6377L7.63763 15.6377ZM8.18278 15.7491C8.34886 15.82 8.50009 15.9232 8.62812 16.0535L9.34141 15.3527C9.12246 15.1298 8.86246 14.9519 8.57529 14.8294L8.18278 15.7491ZM8.62979 16.0552C8.75853 16.185 8.86137 16.339 8.93207 16.5086L9.85511 16.1239C9.73464 15.8349 9.5594 15.5724 9.33974 15.351L8.62979 16.0552ZM8.93228 16.5091C9.00579 16.685 9.0434 16.8749 9.04282 17.0674L10.0428 17.0703C10.0438 16.7458 9.98039 16.4236 9.85491 16.1235L8.93228 16.5091ZM9.04282 17.0703C9.04337 17.2627 9.00577 17.4525 8.93225 17.6285L9.85493 18.014C9.98035 17.7139 10.0437 17.3919 10.0428 17.0674L9.04282 17.0703ZM8.93212 17.6288C8.8613 17.7986 8.75839 17.9527 8.62969 18.0825L9.33983 18.7866C9.55944 18.5651 9.73459 18.3026 9.85506 18.0137L8.93212 17.6288ZM8.62835 18.0839C8.50009 18.2143 8.3487 18.3176 8.18247 18.3887L8.57559 19.3082C8.86247 19.1855 9.12225 19.0077 9.34118 18.7852L8.62835 18.0839ZM8.18196 18.3889C8.00965 18.4628 7.82433 18.5006 7.63748 18.5L7.63449 19.5C7.95799 19.501 8.27846 19.4356 8.5761 19.308L8.18196 18.3889ZM15.2288 18.5C15.042 18.5005 14.8571 18.4628 14.6846 18.3889L14.2906 19.308C14.5881 19.4355 14.908 19.5009 15.2316 19.5L15.2288 18.5ZM14.6845 18.3888C14.5177 18.3174 14.3658 18.2138 14.2376 18.0837L13.5252 18.7854C13.7444 19.008 14.0046 19.1855 14.2908 19.3081L14.6845 18.3888ZM14.2368 18.0828C14.1084 17.9532 14.0057 17.7989 13.9344 17.6284L13.0118 18.0141C13.1321 18.302 13.3064 18.5644 13.526 18.7863L14.2368 18.0828ZM13.9344 17.6285C13.8606 17.4519 13.8228 17.262 13.8233 17.0703L12.8233 17.0674C12.8224 17.3926 12.8866 17.7145 13.0117 18.014L13.9344 17.6285ZM13.8233 17.0674C13.8228 16.8756 13.8606 16.6856 13.9344 16.5091L13.0118 16.1235C12.8865 16.423 12.8224 16.7451 12.8233 17.0703L13.8233 17.0674ZM13.9344 16.509C14.0056 16.3387 14.1083 16.1846 14.2367 16.0549L13.5261 15.3513C13.3064 15.5731 13.1321 15.8354 13.0117 16.1235L13.9344 16.509ZM14.2378 16.0538C14.3658 15.9237 14.5176 15.8202 14.6842 15.749L14.291 14.8295C14.0046 14.952 13.7442 15.1297 13.525 15.3524L14.2378 16.0538ZM14.6847 15.7488C14.8572 15.6748 15.042 15.6371 15.2286 15.6377L15.2317 14.6377C14.908 14.6367 14.5881 14.7021 14.2905 14.8297L14.6847 15.7488ZM15.2318 15.6377C15.4186 15.6371 15.6038 15.6748 15.776 15.7487L16.1704 14.8298C15.8727 14.702 15.5521 14.6366 15.2285 14.6377L15.2318 15.6377ZM15.7769 15.7491C15.943 15.82 16.0943 15.9232 16.2223 16.0535L16.9356 15.3527C16.7166 15.1298 16.4566 14.9519 16.1695 14.8294L15.7769 15.7491ZM16.224 16.0552C16.3527 16.185 16.4555 16.339 16.5262 16.5086L17.4493 16.1239C17.3288 15.8349 17.1536 15.5724 16.9339 15.351L16.224 16.0552ZM16.5264 16.5091C16.6 16.685 16.6376 16.8749 16.637 17.0674L17.637 17.0703C17.638 16.7458 17.5746 16.4236 17.4491 16.1235L16.5264 16.5091ZM16.637 17.0703C16.6375 17.2627 16.5999 17.4525 16.5264 17.6285L17.4491 18.014C17.5745 17.7139 17.6379 17.3919 17.637 17.0674L16.637 17.0703ZM16.5263 17.6288C16.4555 17.7986 16.3526 17.9527 16.2239 18.0825L16.934 18.7866C17.1536 18.5651 17.3288 18.3026 17.4492 18.0137L16.5263 17.6288ZM16.2225 18.0839C16.0943 18.2143 15.9429 18.3176 15.7766 18.3887L16.1698 19.3082C16.4566 19.1855 16.7164 19.0077 16.9353 18.7852L16.2225 18.0839ZM15.7761 18.3889C15.6038 18.4628 15.4185 18.5006 15.2317 18.5L15.2287 19.5C15.5522 19.501 15.8726 19.4356 16.1703 19.308L15.7761 18.3889ZM1.02369 1.62575L3.68623 1.49944L3.63884 0.500562L0.976307 0.626868L1.02369 1.62575ZM3.16535 1.05294L4.41703 12.808L5.41141 12.7022L4.15973 0.947059L3.16535 1.05294ZM4.44353 12.9238C4.54948 13.2194 4.72446 13.4855 4.9542 13.6991L5.6351 12.9667C5.5232 12.8627 5.43719 12.7323 5.3849 12.5864L4.44353 12.9238ZM4.99507 13.7332C5.24935 13.9235 5.54027 14.0585 5.84946 14.1293L6.0727 13.1546C5.90016 13.115 5.7372 13.0396 5.59424 12.9326L4.99507 13.7332ZM5.96108 14.1419H16.573V13.1419H5.96108V14.1419ZM16.7543 14.1079C17.0152 14.0064 17.2549 13.8569 17.4614 13.6673L16.7851 12.9307C16.6697 13.0366 16.5363 13.1197 16.3917 13.176L16.7543 14.1079ZM17.4893 13.6396C17.6797 13.435 17.8291 13.1956 17.9298 12.9346L16.9969 12.5746C16.9418 12.7173 16.8603 12.8476 16.7572 12.9585L17.4893 13.6396ZM17.952 12.8607L19.4843 5.80744L18.5071 5.59514L16.9748 12.6484L17.952 12.8607ZM18.9957 5.70129C19.4753 5.84273 19.4754 5.84235 19.4755 5.84197C19.4756 5.84185 19.4757 5.84146 19.4758 5.84121C19.4759 5.8407 19.4761 5.84019 19.4762 5.83967C19.4765 5.83864 19.4768 5.8376 19.4771 5.83655C19.4777 5.83445 19.4783 5.8323 19.4789 5.83012C19.48 5.82574 19.4812 5.82119 19.4823 5.81648C19.4846 5.80704 19.4867 5.79694 19.4887 5.78619C19.4927 5.76466 19.496 5.74066 19.4979 5.71427C19.5019 5.66123 19.5005 5.60009 19.4904 5.53163C19.4701 5.39388 19.4157 5.23611 19.3106 5.0606L18.4527 5.57446C18.4999 5.65318 18.5026 5.68729 18.5012 5.67786C18.5005 5.67355 18.4992 5.6607 18.5007 5.63988C18.5015 5.62961 18.5029 5.61771 18.5054 5.60426C18.5067 5.59755 18.5082 5.59048 18.5099 5.58307C18.5108 5.57936 18.5118 5.57557 18.5128 5.5717C18.5133 5.56976 18.5139 5.56781 18.5144 5.56583C18.5147 5.56485 18.515 5.56385 18.5153 5.56285C18.5154 5.56236 18.5156 5.56185 18.5157 5.56135C18.5158 5.5611 18.5159 5.56073 18.5159 5.5606C18.516 5.56022 18.5162 5.55984 18.9957 5.70129ZM19.3236 5.08361C19.2545 4.95309 19.1594 4.83787 19.0439 4.74536L18.4188 5.52592C18.427 5.53252 18.4343 5.54113 18.4398 5.55145L19.3236 5.08361ZM19.0439 4.74536C18.9283 4.65283 18.7949 4.58506 18.6517 4.54658L18.3922 5.51231C18.4015 5.51481 18.4106 5.51933 18.4188 5.52592L19.0439 4.74536ZM18.5182 4.52946L4.1183 4.63695L4.12577 5.63693L18.5256 5.52943L18.5182 4.52946Z" fill="#1E5CA4"/>
</svg>
