<svg width="14" height="16" viewBox="0 0 14 16" fill="none" xmlns="http://www.w3.org/2000/svg">
<path d="M12 7.40699V3.33366C12 2.98004 11.8595 2.6409 11.6095 2.39085C11.3594 2.1408 11.0203 2.00033 10.6667 2.00033H7.88C7.6 1.22699 6.86667 0.666992 6 0.666992C5.13333 0.666992 4.4 1.22699 4.12 2.00033H1.33333C0.6 2.00033 0 2.60033 0 3.33366V12.667C0 13.0206 0.140476 13.3598 0.390524 13.6098C0.640573 13.8598 0.979711 14.0003 1.33333 14.0003H5.40667C6.24667 14.827 7.39333 15.3337 8.66667 15.3337C11.2467 15.3337 13.3333 13.247 13.3333 10.667C13.3333 9.39366 12.8267 8.24699 12 7.40699ZM6 2.00033C6.36667 2.00033 6.66667 2.30033 6.66667 2.66699C6.66667 3.03366 6.36667 3.33366 6 3.33366C5.63333 3.33366 5.33333 3.03366 5.33333 2.66699C5.33333 2.30033 5.63333 2.00033 6 2.00033ZM2 4.66699H10V6.00033H2V4.66699ZM4.05333 11.3337H2V10.0003H4.05333C4.02 10.2203 4 10.4403 4 10.667C4 10.8937 4.02 11.1137 4.05333 11.3337ZM2 8.66699V7.33366H5.40667C5 7.71366 4.69333 8.16699 4.45333 8.66699H2ZM8.66667 14.0003C6.82667 14.0003 5.33333 12.507 5.33333 10.667C5.33333 8.82699 6.82667 7.33366 8.66667 7.33366C10.5067 7.33366 12 8.82699 12 10.667C12 12.507 10.5067 14.0003 8.66667 14.0003ZM9 10.8337L10.9067 11.9603L10.4067 12.7737L8 11.3337V8.00033H9V10.8337Z" fill="#1E5CA4"/>
</svg>
