<svg width="11" height="13" viewBox="0 0 11 13" fill="none" xmlns="http://www.w3.org/2000/svg">
<path fill-rule="evenodd" clip-rule="evenodd" d="M0.35517 2.78616C0.338434 2.84233 0.333235 2.90153 0.339449 2.9598C0.349754 3.07086 0.401003 3.17408 0.483436 3.24921C0.565869 3.32433 0.673458 3.3657 0.784987 3.36568C0.799255 3.36568 0.815153 3.36492 2.04335 3.24492C5.15538 2.92955 7.02309 3.04852 10.1695 3.3639H10.2167C10.3276 3.36419 10.4344 3.32276 10.5161 3.24778C10.5978 3.1728 10.6484 3.06995 10.6576 2.95945C10.6689 2.84198 10.6333 2.7246 10.5586 2.63324C10.4839 2.54188 10.3762 2.48395 10.2588 2.47175C9.44698 2.39199 8.7165 2.32468 8.02685 2.27345C8.02654 2.26958 8.02585 2.26563 8.02516 2.26166C8.02422 2.25627 8.02328 2.25086 8.02328 2.24559L7.89251 1.47242L7.89231 1.4712C7.80304 0.923874 7.66932 0.104004 6.28007 0.104004H4.72122C3.33638 0.104004 3.20475 0.894802 3.10964 1.46621L3.1095 1.46706L2.97873 2.24594C2.97807 2.25112 2.97716 2.25625 2.97587 2.26131C2.64879 2.28619 2.30825 2.31654 1.95153 2.35313L0.738182 2.47211C0.679836 2.47759 0.62305 2.49457 0.571329 2.52213C0.519608 2.54968 0.474086 2.58716 0.436989 2.63253C0.399892 2.6779 0.371905 2.73 0.35517 2.78616ZM7.02001 1.6214L7.12005 2.2145C6.53065 2.18267 5.95926 2.16663 5.37863 2.16663C4.89679 2.16663 4.40667 2.17746 3.89446 2.20307L3.99807 1.61569L3.99888 1.61087C4.08669 1.08578 4.10061 1.00258 4.7298 1.00258H6.28829C6.91867 1.00258 6.93623 1.10407 7.02001 1.6214Z" fill="#DF5858"/>
<path fill-rule="evenodd" clip-rule="evenodd" d="M1.36883 10.8185C1.43468 11.7464 1.51739 12.8947 3.5933 12.8947H7.4127C9.48934 12.8947 9.57204 11.7464 9.63789 10.8185L10.0245 4.82753C10.0284 4.76892 10.0208 4.70988 10.002 4.65424C9.98314 4.59861 9.9535 4.54729 9.91479 4.50311C9.87608 4.45893 9.8292 4.42297 9.77652 4.39699C9.72384 4.37102 9.66649 4.35543 9.60788 4.35162C8.23574 4.10969 6.84645 3.97663 5.45334 3.9536C4.09288 3.97322 2.73643 4.10633 1.39812 4.35162C1.28011 4.36026 1.17026 4.41518 1.09228 4.50418C1.01431 4.59318 0.974577 4.7094 0.981526 4.82753L1.36883 10.8185ZM2.26085 10.7621L2.26062 10.7589L1.9044 5.24341C3.07153 4.99527 4.26023 4.8621 5.45334 4.84575C6.67896 4.86618 7.90001 4.99928 9.10125 5.24341L8.74539 10.7589C8.68575 11.6633 8.66249 12.0026 7.4127 12.0026H3.5933C2.35121 12.0026 2.32653 11.6637 2.26085 10.7621Z" fill="#DF5858"/>
</svg>
