<svg width="15" height="15" viewBox="0 0 15 15" fill="none" xmlns="http://www.w3.org/2000/svg">
<path fill-rule="evenodd" clip-rule="evenodd" d="M6.15145 0.515883L5.51851 1.34053C5.45191 1.42755 5.36063 1.49219 5.25625 1.52603C5.15231 1.55966 5.0404 1.5613 4.93538 1.52996L3.93855 1.23483C3.5456 1.11845 3.12078 1.19149 2.78909 1.43245C2.45751 1.67342 2.2566 2.05499 2.24612 2.46455L2.21883 3.50375C2.21588 3.61337 2.17996 3.71939 2.11576 3.80772C2.05112 3.89637 1.96149 3.9633 1.85842 4.00009L0.878502 4.34674C0.492114 4.48365 0.191087 4.79252 0.0646665 5.18251C-0.0622037 5.57217 -0.000296145 5.99897 0.231933 6.3369L0.820851 7.19352C0.882756 7.28349 0.916056 7.39038 0.916056 7.5C0.916056 7.60962 0.882756 7.71651 0.820851 7.80648L0.231933 8.66311C-0.000296145 9.00103 -0.0621897 9.4278 0.0646665 9.81749C0.191098 10.2075 0.492114 10.5164 0.878502 10.6533L1.85842 10.9999C1.96149 11.0367 2.05112 11.1036 2.11576 11.1923C2.17996 11.2806 2.21588 11.3866 2.21883 11.4962L2.24612 12.5354C2.2566 12.945 2.4575 13.3266 2.78909 13.5675C3.12078 13.8085 3.5456 13.8815 3.93855 13.7652L4.93538 13.47C5.04041 13.4387 5.15232 13.4403 5.25625 13.474C5.36063 13.5078 5.45191 13.5724 5.51851 13.6595L6.15145 14.4841C6.40093 14.8093 6.78766 15 7.19752 15C7.60739 15 7.99411 14.8093 8.2436 14.4841L8.87654 13.6595C8.94314 13.5724 9.03441 13.5078 9.13879 13.474C9.24273 13.4403 9.35464 13.4387 9.45966 13.47L10.4565 13.7652C10.8494 13.8816 11.2743 13.8085 11.606 13.5675C11.9375 13.3266 12.1384 12.945 12.1489 12.5354L12.1762 11.4962C12.1792 11.3866 12.2151 11.2806 12.2793 11.1923C12.3439 11.1036 12.4336 11.0367 12.5366 10.9999L13.5165 10.6533C13.9029 10.5164 14.204 10.2075 14.3304 9.81749C14.4572 9.42783 14.3953 9.00103 14.1631 8.66311L13.5742 7.80648C13.5123 7.71651 13.479 7.60962 13.479 7.5C13.479 7.39038 13.5123 7.28349 13.5742 7.19352L14.1631 6.3369C14.3953 5.99897 14.4572 5.5722 14.3304 5.18251C14.2039 4.79252 13.9029 4.48364 13.5165 4.34674L12.5366 4.00009C12.4336 3.9633 12.3439 3.89637 12.2793 3.80772C12.2151 3.71939 12.1792 3.61337 12.1762 3.50375L12.1489 2.46455C12.1384 2.05502 11.9375 1.67341 11.606 1.43245C11.2743 1.19149 10.8494 1.11846 10.4565 1.23483L9.45966 1.52996C9.35463 1.5613 9.24272 1.55966 9.13879 1.52603C9.03441 1.49219 8.94314 1.42755 8.87654 1.34053L8.2436 0.515883C7.99412 0.190734 7.60739 0 7.19752 0C6.78766 0 6.40093 0.19074 6.15145 0.515883ZM6.66898 0.912976C6.79475 0.748657 6.99041 0.652141 7.19752 0.652141C7.40463 0.652141 7.60029 0.748657 7.72607 0.912976L8.35909 1.73774C8.50583 1.92914 8.7076 2.07161 8.93722 2.14629C9.16672 2.22097 9.41358 2.22392 9.64481 2.15546L10.6416 1.86033C10.8402 1.80127 11.0548 1.83817 11.2224 1.96013C11.3901 2.08175 11.4917 2.27446 11.497 2.48146L11.524 3.52077C11.5306 3.76206 11.6099 3.99582 11.7517 4.19114C11.8935 4.38646 12.0914 4.53417 12.3191 4.61475L13.299 4.96173C13.4943 5.03084 13.6462 5.18675 13.7102 5.38404C13.7744 5.58089 13.7431 5.79653 13.6257 5.96739L13.0368 6.82402C12.9002 7.02295 12.8268 7.25868 12.8268 7.49997C12.8268 7.74127 12.9002 7.97698 13.0368 8.17593L13.6257 9.03256C13.7431 9.20342 13.7744 9.41905 13.7102 9.61591C13.6462 9.8132 13.4943 9.96912 13.299 10.0382L12.3191 10.3852C12.0915 10.4658 11.8935 10.6135 11.7517 10.8088C11.6099 11.0041 11.5306 11.2379 11.524 11.4792L11.497 12.5185C11.4917 12.7255 11.3901 12.9182 11.2224 13.0398C11.0548 13.1618 10.8402 13.1987 10.6416 13.1396L9.64481 12.8445C9.41357 12.776 9.16672 12.779 8.93722 12.8537C8.70761 12.9283 8.50583 13.0708 8.35909 13.2622L7.72607 14.087C7.60029 14.2513 7.40463 14.3478 7.19752 14.3478C6.99041 14.3478 6.79475 14.2513 6.66898 14.087L6.03595 13.2622C5.88921 13.0708 5.68744 12.9283 5.45783 12.8537C5.22833 12.779 4.98146 12.776 4.75023 12.8445L3.7534 13.1396C3.5548 13.1987 3.34027 13.1618 3.17268 13.0398C3.00497 12.9182 2.90333 12.7255 2.89808 12.5185L2.87101 11.4792C2.86446 11.2379 2.78519 11.0041 2.64336 10.8088C2.50154 10.6135 2.3036 10.4658 2.07594 10.3852L1.09602 10.0382C0.900697 9.9691 0.748823 9.81319 0.684844 9.61591C0.620644 9.41905 0.65198 9.20342 0.769349 9.03256L1.35827 8.17593C1.49485 7.977 1.56822 7.74127 1.56822 7.49997C1.56822 7.25868 1.49485 7.02297 1.35827 6.82402L0.769349 5.96739C0.65198 5.79652 0.620644 5.58089 0.684844 5.38404C0.748825 5.18674 0.900697 5.03082 1.09602 4.96173L2.07594 4.61475C2.30358 4.53418 2.50154 4.38645 2.64336 4.19114C2.78519 3.99581 2.86446 3.76204 2.87101 3.52077L2.89808 2.48146C2.90333 2.27445 3.00497 2.08174 3.17268 1.96013C3.34027 1.83817 3.55482 1.80127 3.7534 1.86033L4.75023 2.15546C4.98148 2.22392 5.22832 2.22097 5.45783 2.14629C5.68743 2.07161 5.88921 1.92913 6.03595 1.73774L6.66898 0.912976Z" fill="#1E5CA4"/>
<path fill-rule="evenodd" clip-rule="evenodd" d="M5.24174 3.91309C4.34176 3.91309 3.61133 4.64352 3.61133 5.5435C3.61133 6.44347 4.34176 7.1739 5.24174 7.1739C6.14172 7.1739 6.87215 6.44347 6.87215 5.5435C6.87215 4.64352 6.14172 3.91309 5.24174 3.91309ZM5.24174 4.56523C5.78174 4.56523 6.22001 5.00349 6.22001 5.5435C6.22001 6.0835 5.78174 6.52176 5.24174 6.52176C4.70173 6.52176 4.26347 6.0835 4.26347 5.5435C4.26347 5.00349 4.70173 4.56523 5.24174 4.56523Z" fill="#1E5CA4"/>
<path fill-rule="evenodd" clip-rule="evenodd" d="M9.15385 7.82617C8.25387 7.82617 7.52344 8.5566 7.52344 9.45658C7.52344 10.3566 8.25387 11.087 9.15385 11.087C10.0538 11.087 10.7843 10.3566 10.7843 9.45658C10.7843 8.5566 10.0538 7.82617 9.15385 7.82617ZM9.15385 8.47831C9.69385 8.47831 10.1321 8.91658 10.1321 9.45658C10.1321 9.99658 9.69385 10.4348 9.15385 10.4348C8.61384 10.4348 8.17558 9.99658 8.17558 9.45658C8.17558 8.91658 8.61384 8.47831 9.15385 8.47831Z" fill="#1E5CA4"/>
<path fill-rule="evenodd" clip-rule="evenodd" d="M4.1678 10.9912L10.6895 4.46956C10.8167 4.34236 10.8167 4.13569 10.6895 4.00848C10.5623 3.88129 10.3556 3.88129 10.2284 4.00848L3.70673 10.5302C3.57953 10.6574 3.57953 10.864 3.70673 10.9912C3.83392 11.1184 4.04059 11.1184 4.1678 10.9912Z" fill="#1E5CA4"/>
</svg>
