<svg width="41" height="27" viewBox="0 0 41 27" fill="none" xmlns="http://www.w3.org/2000/svg">
<path d="M4.62161 26.3085C3.33278 26.3085 2.39734 25.5393 1.98852 24.0842H0.602683C0.207719 24.0842 0.0899291 23.9664 0.0899291 23.5715C0.0899291 21.6937 0.0899291 19.8089 0.0899291 17.9311C0.0885088 17.7933 0.104816 17.6559 0.138439 17.5223C0.475659 16.2612 0.819803 15.0024 1.17088 13.7459C1.26789 13.3717 1.35105 13.3093 1.73908 13.3093H8.25943V13.0252C8.2486 12.767 8.29161 12.5092 8.38572 12.2685C8.47983 12.0277 8.62299 11.8092 8.80611 11.6267C8.98922 11.4443 9.20828 11.3019 9.44938 11.2086C9.69047 11.1154 9.9483 11.0733 10.2065 11.0851H12.3477C12.445 10.3055 12.8097 9.58384 13.3796 9.04305C13.9494 8.50227 14.6892 8.17584 15.4728 8.11937C16.1886 8.06866 16.9008 8.25892 17.4961 8.65984C17.9122 8.92718 18.264 9.28324 18.5264 9.70252C18.7887 10.1218 18.9551 10.5939 19.0136 11.0851C19.7619 11.0851 20.4964 11.0851 21.2309 11.0851C21.4776 11.0804 21.7227 11.1253 21.9517 11.2172C22.1808 11.309 22.389 11.4459 22.5641 11.6198C22.7393 11.7936 22.8777 12.0008 22.9712 12.2292C23.0648 12.4575 23.1115 12.7023 23.1087 12.949C23.1087 16.5106 23.1087 20.0653 23.1087 23.6269C23.1087 23.9526 22.977 24.0773 22.6375 24.0842H20.4964C20.4018 24.6825 20.1044 25.23 19.654 25.635C19.2036 26.04 18.6276 26.2778 18.0227 26.3085C16.6992 26.3501 15.7638 25.5809 15.3203 24.0912H7.14384C7.04731 24.6966 6.74253 25.2493 6.28209 25.6541C5.82165 26.0589 5.23441 26.2903 4.62161 26.3085ZM15.3688 23.3289C15.4675 22.6877 15.8007 22.1059 16.3038 21.6963C16.8068 21.2867 17.444 21.0783 18.092 21.1116C18.6878 21.1557 19.2517 21.398 19.6937 21.7999C20.1358 22.2017 20.4305 22.74 20.5311 23.3289H22.3881V13.0737C22.4081 12.9051 22.3897 12.7341 22.3341 12.5737C22.2785 12.4132 22.1872 12.2675 22.0672 12.1474C21.9471 12.0273 21.8013 11.9361 21.6409 11.8805C21.4804 11.8249 21.3095 11.8064 21.1408 11.8265H19.1036H19.0343C18.972 12.3285 18.7969 12.81 18.5221 13.2348C18.2473 13.6596 17.8799 14.0167 17.4476 14.2794C16.8477 14.6599 16.1385 14.8305 15.4312 14.7645C14.6636 14.6975 13.9421 14.3692 13.3873 13.8346C12.8324 13.2999 12.4777 12.5911 12.3823 11.8265C12.3246 11.8227 12.2668 11.8227 12.2091 11.8265H10.1303C9.97862 11.8206 9.82736 11.8462 9.686 11.9016C9.54464 11.957 9.41623 12.041 9.30888 12.1484C9.20153 12.2557 9.11754 12.3841 9.06215 12.5255C9.00675 12.6668 8.98115 12.8181 8.98699 12.9698V23.1765C8.98398 23.2273 8.98398 23.2782 8.98699 23.3289H15.3688ZM1.8915 14.0646L1.33024 16.1434C1.28866 16.2889 1.25402 16.4413 1.20552 16.5868C0.936331 17.4017 0.816604 18.2585 0.852124 19.116C0.88677 20.4395 0.852124 21.7629 0.852124 23.0795V23.3497H1.98852C2.04732 22.9774 2.18538 22.622 2.39339 22.3076C2.60139 21.9932 2.87449 21.7271 3.19419 21.5273C3.66261 21.2315 4.21524 21.0976 4.76714 21.1462C5.35269 21.1947 5.90506 21.4382 6.33593 21.8376C6.7668 22.2371 7.05128 22.7695 7.14384 23.3497H8.25943V14.0646H1.8915ZM13.1168 11.4384C13.1127 11.9526 13.2613 12.4565 13.5437 12.8862C13.8261 13.316 14.2296 13.6522 14.7032 13.8525C15.1769 14.0527 15.6992 14.108 16.2042 14.0112C16.7093 13.9144 17.1742 13.67 17.5403 13.3088C17.9063 12.9476 18.1569 12.486 18.2604 11.9823C18.3639 11.4786 18.3157 10.9555 18.1218 10.4793C17.9279 10.003 17.597 9.59503 17.1711 9.30692C16.7452 9.0188 16.2433 8.86353 15.7291 8.86077C15.0423 8.86071 14.383 9.13119 13.8941 9.61362C13.4052 10.0961 13.1259 10.7516 13.1168 11.4384ZM17.9672 21.8322C17.6 21.8336 17.2413 21.9439 16.9367 22.1491C16.6321 22.3543 16.3952 22.6452 16.2559 22.985C16.1166 23.3249 16.0812 23.6984 16.1542 24.0583C16.2272 24.4183 16.4053 24.7485 16.666 25.0072C16.9267 25.266 17.2582 25.4416 17.6187 25.5119C17.9792 25.5822 18.3524 25.5441 18.6912 25.4023C19.03 25.2604 19.3192 25.0213 19.5221 24.7152C19.725 24.4091 19.8326 24.0496 19.8312 23.6823C19.8276 23.4379 19.7758 23.1965 19.6786 22.9721C19.5815 22.7478 19.441 22.5447 19.2653 22.3748C19.0895 22.2048 18.882 22.0712 18.6545 21.9817C18.4269 21.8922 18.184 21.8484 17.9395 21.853L17.9672 21.8322ZM2.72301 23.6962C2.7244 24.0638 2.83483 24.4227 3.04033 24.7274C3.24584 25.0322 3.53718 25.2691 3.87743 25.4082C4.21768 25.5473 4.59156 25.5822 4.9517 25.5087C5.31184 25.4351 5.64203 25.2563 5.90049 24.9949C6.15894 24.7336 6.33404 24.4014 6.40356 24.0404C6.47308 23.6795 6.4339 23.306 6.29102 22.9674C6.14814 22.6287 5.90798 22.3401 5.60093 22.138C5.29388 21.9359 4.93377 21.8295 4.5662 21.8322C4.32233 21.834 4.08119 21.8839 3.85658 21.9789C3.63197 22.0739 3.42828 22.2122 3.25713 22.3859C3.08597 22.5596 2.95071 22.7654 2.85907 22.9914C2.76743 23.2174 2.72119 23.4592 2.72301 23.7031V23.6962Z" fill="white"/>
<path d="M4.58714 26.4324C3.27752 26.4324 2.32822 25.6425 1.89861 24.2012H0.630553C0.173226 24.2012 1.51555e-05 24.028 1.51555e-05 23.5707V17.9303C-0.000646751 17.7803 0.0203761 17.6309 0.0623965 17.4868C0.394998 16.2257 0.755302 14.9715 1.0879 13.7104C1.19877 13.2877 1.33043 13.1907 1.78082 13.1907H8.17646V13.0244C8.16255 12.7478 8.20679 12.4713 8.30634 12.2128C8.40588 11.9543 8.55855 11.7195 8.75443 11.5236C8.9503 11.3277 9.18503 11.1751 9.44354 11.0756C9.70205 10.976 9.97855 10.9318 10.2552 10.9457H12.2993C12.4262 10.1624 12.8131 9.44454 13.3975 8.90782C13.982 8.3711 14.7302 8.04673 15.5214 7.98692C16.2565 7.93788 16.9872 8.13272 17.6002 8.54125C18.0152 8.80834 18.3684 9.16104 18.6361 9.57572C18.9038 9.99039 19.0798 10.4575 19.1523 10.9457H21.2311C21.4935 10.9401 21.7544 10.9874 21.9981 11.0848C22.2419 11.1822 22.4635 11.3278 22.6497 11.5128C22.836 11.6977 22.9831 11.9183 23.0822 12.1614C23.1813 12.4044 23.2305 12.665 23.2267 12.9274C23.2267 15.9763 23.2267 19.0274 23.2267 22.0809V23.6053C23.2267 23.9933 23.0326 24.1804 22.6308 24.1804H20.5867C20.466 24.784 20.1478 25.3302 19.6823 25.733C19.2169 26.1357 18.6306 26.372 18.0159 26.4047C16.6301 26.4532 15.6946 25.7118 15.2442 24.1943H7.25486C7.13017 24.8066 6.80227 25.3588 6.3243 25.7613C5.84634 26.1638 5.24636 26.393 4.62178 26.4116H4.58714V26.4324ZM1.98869 23.9587H2.07877V24.0488C2.46681 25.4346 3.34683 26.1899 4.55944 26.1899H4.59408C5.18133 26.1745 5.74467 25.954 6.18639 25.5667C6.6281 25.1795 6.92031 24.6498 7.01236 24.0696V23.9726H15.459V24.0557C15.8748 25.4416 16.7271 26.183 17.9258 26.183H18.0367C18.6149 26.1557 19.1657 25.9288 19.5953 25.5409C20.0249 25.153 20.3067 24.6281 20.3926 24.0557V23.9587H22.6377C22.9079 23.9587 22.9911 23.8825 22.9911 23.6261V22.1017C22.9911 19.0528 22.9911 16.0017 22.9911 12.9482C22.9939 12.7179 22.9504 12.4893 22.8631 12.2761C22.7759 12.0629 22.6466 11.8694 22.4831 11.7072C22.3195 11.5449 22.125 11.4172 21.9111 11.3316C21.6973 11.246 21.4683 11.2043 21.238 11.209H18.9236V11.112C18.866 10.6375 18.7052 10.1814 18.4526 9.77564C18.2001 9.36986 17.8618 9.02424 17.4616 8.76299C16.8839 8.38284 16.1975 8.20271 15.5076 8.25023C14.7526 8.3078 14.0407 8.62385 13.4916 9.14514C12.9425 9.66643 12.59 10.3611 12.4933 11.112V11.209H10.2483C10.0052 11.1961 9.76221 11.2343 9.53489 11.3213C9.30757 11.4082 9.10105 11.5419 8.92863 11.7136C8.75621 11.8854 8.62174 12.0914 8.53396 12.3184C8.44617 12.5454 8.40703 12.7883 8.419 13.0314V13.4402H1.78082C1.44129 13.4402 1.41355 13.4402 1.32347 13.7797C0.983942 15.0408 0.630567 16.302 0.297965 17.5561C0.26731 17.6809 0.251031 17.8088 0.249456 17.9372V23.5776C0.249456 23.9033 0.311817 23.9656 0.637489 23.9656L1.98869 23.9587ZM4.5802 25.6841C4.05756 25.6823 3.55664 25.4748 3.18578 25.1065C2.81491 24.7383 2.60392 24.2388 2.59846 23.7162C2.60147 23.1981 2.80513 22.7014 3.16666 22.3303C3.53383 21.9612 4.03189 21.752 4.5525 21.7483C5.07626 21.7483 5.57856 21.9564 5.94891 22.3267C6.31926 22.6971 6.52731 23.1994 6.52731 23.7231C6.52731 24.2469 6.31926 24.7492 5.94891 25.1195C5.57856 25.4899 5.07626 25.6979 4.5525 25.6979L4.5802 25.6841ZM4.5802 21.977C4.35245 21.977 4.12696 22.022 3.91672 22.1096C3.70648 22.1972 3.51564 22.3255 3.35524 22.4872C3.19485 22.6489 3.06807 22.8407 2.98218 23.0517C2.89629 23.2626 2.85301 23.4884 2.85484 23.7162C2.8585 24.175 3.04334 24.6139 3.36912 24.9371C3.69489 25.2602 4.13519 25.4416 4.59408 25.4416C5.05351 25.4416 5.49412 25.2591 5.81899 24.9342C6.14386 24.6093 6.32637 24.1687 6.32637 23.7093C6.32637 23.2498 6.14386 22.8092 5.81899 22.4843C5.49412 22.1595 5.05351 21.977 4.59408 21.977H4.5802ZM17.9535 25.6841C17.4315 25.6823 16.9314 25.4746 16.5616 25.1061C16.1919 24.7376 15.9824 24.2382 15.9787 23.7162C15.9765 23.459 16.0256 23.204 16.1232 22.966C16.2207 22.728 16.3648 22.5119 16.5469 22.3303C16.7283 22.1469 16.9441 22.0011 17.1819 21.9013C17.4197 21.8014 17.6749 21.7494 17.9328 21.7483C18.4565 21.7483 18.9588 21.9564 19.3292 22.3267C19.6995 22.6971 19.9076 23.1994 19.9076 23.7231C19.9076 24.2469 19.6995 24.7492 19.3292 25.1195C18.9588 25.4899 18.4565 25.6979 17.9328 25.6979L17.9535 25.6841ZM17.9535 21.977C17.7252 21.9759 17.499 22.0208 17.2883 22.1089C17.0776 22.1969 16.8868 22.3265 16.7271 22.4897C16.566 22.6507 16.4384 22.8419 16.3516 23.0524C16.2648 23.2629 16.2205 23.4885 16.2212 23.7162C16.2249 24.175 16.4098 24.6139 16.7356 24.9371C17.0613 25.2602 17.5016 25.4416 17.9605 25.4416C18.4199 25.4416 18.8605 25.2591 19.1854 24.9342C19.5103 24.6093 19.6928 24.1687 19.6928 23.7093C19.6928 23.2498 19.5103 22.8092 19.1854 22.4843C18.8605 22.1595 18.4199 21.977 17.9605 21.977H17.9535ZM15.459 23.4529H8.91789V23.2797C8.91789 23.2381 8.91789 23.2034 8.91789 23.1757V20.404C8.91789 17.928 8.91789 15.4543 8.91789 12.9829C8.91104 12.8154 8.93898 12.6484 8.99993 12.4923C9.06089 12.3362 9.15355 12.1944 9.27204 12.0759C9.39054 11.9574 9.53231 11.8647 9.68841 11.8038C9.84451 11.7428 10.0116 11.7149 10.179 11.7217H12.2578H12.3964H12.5349V11.8188C12.6214 12.5597 12.9584 13.2488 13.4902 13.7718C14.0221 14.2949 14.7168 14.6204 15.459 14.6944C16.1403 14.759 16.8235 14.5931 17.3992 14.2232C17.8169 13.9702 18.1713 13.6253 18.4355 13.2146C18.6997 12.8039 18.8667 12.3384 18.9236 11.8534V11.7703H19.0345H21.1133C21.3012 11.7452 21.4924 11.7637 21.6719 11.8245C21.8515 11.8852 22.0146 11.9866 22.1487 12.1206C22.2828 12.2547 22.3841 12.4179 22.4449 12.5974C22.5056 12.777 22.5242 12.9682 22.4991 13.1561V23.5499H20.4203V23.4598C20.328 22.8957 20.0478 22.3794 19.6252 21.9945C19.2026 21.6096 18.6624 21.3788 18.0921 21.3395C17.4744 21.3081 16.8669 21.5068 16.387 21.8971C15.9071 22.2874 15.5888 22.8417 15.4937 23.4529H15.459ZM9.14656 23.2104H15.2581C15.4023 22.4909 15.8259 21.858 16.436 21.4503C16.9219 21.1237 17.5005 20.9633 18.0852 20.993C18.6906 21.0338 19.2659 21.2721 19.7228 21.6714C20.1796 22.0707 20.4929 22.6089 20.6144 23.2034H22.2774V13.0729C22.298 12.9207 22.2831 12.7657 22.234 12.6201C22.1849 12.4746 22.1028 12.3423 21.9941 12.2337C21.8855 12.125 21.7532 12.0429 21.6077 11.9938C21.4621 11.9447 21.3071 11.9298 21.1548 11.9504C20.6282 11.9504 20.0947 11.9504 19.5681 11.9504H19.1523C19.0785 12.4532 18.895 12.9335 18.6147 13.3574C18.3345 13.7813 17.9645 14.1384 17.5309 14.4033C16.911 14.7925 16.1815 14.97 15.4521 14.9092C14.6719 14.8381 13.9379 14.5083 13.3666 13.9723C12.7954 13.4362 12.4197 12.7245 12.2993 11.9504H11.8143C11.283 11.9504 10.7426 11.9504 10.1929 11.9504C10.0575 11.9445 9.92246 11.9668 9.79622 12.0159C9.66997 12.065 9.55531 12.1399 9.45953 12.2356C9.36374 12.3314 9.28888 12.4461 9.23977 12.5724C9.19067 12.6986 9.16837 12.8337 9.17426 12.969C9.17426 15.445 9.17426 17.9188 9.17426 20.3902V23.2104H9.14656ZM8.39126 23.446H7.05393V23.3489C6.96407 22.7953 6.69269 22.2872 6.28252 21.9046C5.87234 21.5221 5.34663 21.2867 4.78807 21.2355C4.26255 21.1925 3.73729 21.3214 3.29138 21.6028C2.98455 21.7922 2.72228 22.0456 2.52255 22.3458C2.32282 22.646 2.19035 22.9858 2.13422 23.342V23.446H0.74838V23.051C0.74838 22.6629 0.74838 22.268 0.74838 21.8799C0.74838 20.9653 0.74838 20.016 0.74838 19.1083C0.708569 18.237 0.82834 17.3658 1.10178 16.5375C1.1359 16.4401 1.16367 16.3406 1.18492 16.2396L1.81546 13.9529H8.41207L8.39126 23.446ZM7.24797 23.2034H8.14876V14.1955H1.97482L1.39973 16.2742C1.39973 16.3782 1.34429 16.4821 1.30964 16.5861C1.05136 17.3889 0.936436 18.2309 0.970119 19.0736C0.970119 20.0021 0.970119 20.9514 0.970119 21.8453C0.970119 22.2333 0.970119 22.6283 0.970119 23.0163V23.1688H1.88474C1.95692 22.7986 2.10505 22.4474 2.31971 22.1374C2.53438 21.8273 2.81097 21.5651 3.13203 21.3672C3.62125 21.0524 4.20197 20.9109 4.78118 20.9653C5.38059 21.0192 5.94615 21.2668 6.39244 21.6705C6.83872 22.0743 7.14143 22.6124 7.25486 23.2034H7.24797ZM15.7085 14.1955C15.3503 14.1946 14.9958 14.123 14.6653 13.9849C14.3348 13.8468 14.0348 13.6448 13.7825 13.3905C13.5302 13.1363 13.3305 12.8347 13.1949 12.5032C13.0593 12.1717 12.9904 11.8166 12.9923 11.4584C12.9977 10.741 13.2861 10.0547 13.7947 9.54874C14.3033 9.04273 14.991 8.75785 15.7085 8.75605C16.4061 8.79127 17.0634 9.09318 17.5447 9.59936C18.026 10.1055 18.2943 10.7773 18.2943 11.4758C18.2943 12.1742 18.026 12.846 17.5447 13.3522C17.0634 13.8583 16.4061 14.1603 15.7085 14.1955ZM13.2348 11.4584C13.232 11.785 13.294 12.1089 13.4171 12.4115C13.5402 12.714 13.7219 12.9892 13.9519 13.2211C14.1819 13.453 14.4555 13.6371 14.757 13.7627C15.0585 13.8883 15.3819 13.953 15.7085 13.9529C16.3428 13.9194 16.9401 13.6438 17.3773 13.1829C17.8144 12.722 18.0581 12.111 18.0581 11.4758C18.0581 10.8406 17.8144 10.2295 17.3773 9.76864C16.9401 9.30775 16.3428 9.03214 15.7085 8.99858C15.0548 8.99857 14.4277 9.25728 13.9642 9.7182C13.5007 10.1791 13.2384 10.8048 13.2348 11.4584Z" fill="white"/>
<path d="M2.29322 17.7718C1.89133 17.7718 1.7389 17.5778 1.83591 17.1967C2.023 16.5037 2.20315 15.8108 2.39024 15.1664C2.39605 15.1096 2.41348 15.0547 2.44146 15.0049C2.46944 14.9552 2.50735 14.9117 2.55285 14.8773C2.59836 14.8428 2.65048 14.8181 2.70595 14.8047C2.76142 14.7912 2.81907 14.7893 2.87529 14.7992H7.12285C7.45545 14.7992 7.5802 14.9308 7.5802 15.2634C7.5802 15.9563 7.5802 16.6146 7.5802 17.2867C7.5802 17.6471 7.4624 17.7718 7.09515 17.7718H2.29322ZM6.83184 15.5614H6.73482H3.23558C3.11086 15.5614 3.04849 15.5614 3.01384 15.7277C2.90298 16.1573 2.78521 16.5869 2.66049 17.0373H6.81801L6.83184 15.5614Z" fill="white"/>
<path d="M3.2083 17.8892H2.29364C2.19792 17.8992 2.1012 17.8868 2.01104 17.8532C1.92089 17.8195 1.83973 17.7654 1.77395 17.6952C1.72465 17.6164 1.69403 17.5273 1.68442 17.4349C1.67481 17.3424 1.68646 17.2489 1.71851 17.1617L2.27977 15.1314C2.28823 15.0622 2.31054 14.9955 2.34532 14.9351C2.38011 14.8747 2.42667 14.8219 2.48227 14.7799C2.53786 14.7379 2.60136 14.7075 2.66895 14.6905C2.73653 14.6735 2.80686 14.6703 2.87571 14.681H7.12327C7.52516 14.681 7.70534 14.8612 7.70534 15.2631V17.2864C7.70534 17.716 7.52518 17.8892 7.09557 17.8892H3.24294H3.2083ZM5.11383 14.9235H2.84103C2.59851 14.9235 2.53617 14.9651 2.47381 15.1938C2.28672 15.8867 2.10657 16.5796 1.91948 17.224C1.89717 17.2754 1.88565 17.3308 1.88565 17.3869C1.88565 17.4429 1.89717 17.4983 1.91948 17.5497C1.96432 17.5872 2.01629 17.6151 2.07228 17.6318C2.12828 17.6484 2.1871 17.6535 2.24513 17.6467H7.04706C7.34502 17.6467 7.41433 17.5774 7.41433 17.2864V15.2631C7.41433 14.9928 7.33811 14.9235 7.0748 14.9235H5.11383ZM6.9154 17.1339H2.46687L2.6124 16.6073C2.70248 16.2955 2.78562 15.9837 2.86184 15.6788C2.86693 15.6395 2.87979 15.6016 2.89969 15.5674C2.9196 15.5331 2.94615 15.5032 2.97776 15.4793C3.00938 15.4554 3.04544 15.4381 3.08383 15.4284C3.12223 15.4186 3.16218 15.4166 3.20136 15.4224H6.78375H6.8877V15.5333L6.9154 17.1339ZM2.75789 16.8914H6.6452V15.6649H3.1806C3.10438 15.6649 3.09744 15.6649 3.08358 15.7342C3.00736 16.0461 2.91729 16.3579 2.83414 16.6697L2.75789 16.8914Z" fill="white"/>
<path d="M17.9326 24.0764C17.9825 24.0783 18.0323 24.0699 18.079 24.0519C18.1256 24.0339 18.1681 24.0065 18.2038 23.9715C18.2395 23.9364 18.2676 23.8945 18.2865 23.8482C18.3054 23.8019 18.3146 23.7522 18.3137 23.7022C18.3137 23.6048 18.275 23.5114 18.2061 23.4425C18.1372 23.3737 18.0438 23.335 17.9464 23.335C17.849 23.335 17.7556 23.3737 17.6867 23.4425C17.6178 23.5114 17.5792 23.6048 17.5792 23.7022C17.5773 23.7984 17.6133 23.8916 17.6794 23.9616C17.7455 24.0315 17.8364 24.0728 17.9326 24.0764Z" fill="white"/>
<path d="M17.9464 24.2018C17.8177 24.1946 17.6968 24.138 17.609 24.0437C17.5211 23.9494 17.4732 23.8248 17.4752 23.6959C17.4761 23.6322 17.4895 23.5693 17.5147 23.5108C17.54 23.4523 17.5764 23.3994 17.6221 23.355C17.6678 23.3106 17.7218 23.2756 17.781 23.2521C17.8402 23.2285 17.9034 23.2169 17.9671 23.2178C18.0649 23.2184 18.1603 23.248 18.2411 23.303C18.3219 23.3579 18.3845 23.4357 18.4209 23.5264C18.4574 23.6171 18.4659 23.7166 18.4456 23.8122C18.4252 23.9078 18.3769 23.9952 18.3067 24.0632C18.2598 24.1104 18.2035 24.1472 18.1413 24.1711C18.0792 24.195 18.0128 24.2054 17.9464 24.2018ZM17.9464 23.9593C18.0126 23.9573 18.0761 23.9329 18.1265 23.89C18.1566 23.8684 18.1816 23.8405 18.1996 23.8081C18.2176 23.7758 18.2281 23.7398 18.2305 23.7029C18.2314 23.6699 18.2256 23.637 18.2134 23.6063C18.2012 23.5756 18.1829 23.5477 18.1595 23.5244C18.1362 23.501 18.1083 23.4827 18.0776 23.4705C18.0469 23.4583 18.014 23.4525 17.981 23.4534C17.9486 23.4525 17.9163 23.4581 17.8861 23.4699C17.8558 23.4816 17.8283 23.4994 17.805 23.522C17.7818 23.5446 17.7633 23.5716 17.7507 23.6015C17.738 23.6314 17.7316 23.6635 17.7316 23.6959C17.7315 23.7616 17.7566 23.8248 17.8017 23.8725C17.8468 23.9202 17.9085 23.9488 17.9741 23.9523L17.9464 23.9593Z" fill="white"/>
<path d="M4.20617 23.7032C4.20784 23.7533 4.21973 23.8025 4.24115 23.8479C4.26257 23.8932 4.29307 23.9337 4.33072 23.9668C4.36837 23.9999 4.41239 24.0249 4.46009 24.0404C4.5078 24.0558 4.55816 24.0613 4.60808 24.0566C4.70548 24.0502 4.79632 24.0053 4.86065 23.9319C4.92497 23.8584 4.9575 23.7625 4.95107 23.6651C4.94464 23.5677 4.89977 23.4768 4.82635 23.4125C4.75293 23.3482 4.65697 23.3157 4.55957 23.3221C4.51103 23.3229 4.46317 23.3336 4.41886 23.3534C4.37454 23.3732 4.33467 23.4018 4.30167 23.4374C4.26866 23.473 4.24318 23.5148 4.22677 23.5605C4.21036 23.6062 4.20336 23.6547 4.20617 23.7032Z" fill="white"/>
<path d="M4.57336 24.2008C4.44645 24.199 4.32512 24.1483 4.23473 24.0592C4.14434 23.9701 4.09192 23.8495 4.08835 23.7226C4.08557 23.6589 4.09537 23.5953 4.1172 23.5354C4.13903 23.4755 4.17245 23.4204 4.21557 23.3735C4.25869 23.3265 4.31067 23.2885 4.3685 23.2616C4.42633 23.2347 4.48888 23.2195 4.5526 23.2168C4.68308 23.2085 4.81148 23.2524 4.90959 23.3389C5.0077 23.4253 5.06749 23.5471 5.07576 23.6776C5.08403 23.8081 5.04012 23.9365 4.9537 24.0346C4.86729 24.1327 4.74542 24.1925 4.61494 24.2008H4.57336ZM4.57336 23.4593C4.5409 23.4602 4.50894 23.4676 4.47939 23.4811C4.44984 23.4945 4.42329 23.5138 4.40132 23.5377C4.37935 23.5616 4.36241 23.5897 4.3515 23.6203C4.34058 23.6508 4.33593 23.6833 4.3378 23.7157C4.33772 23.75 4.34513 23.7839 4.35949 23.815C4.37385 23.8461 4.39481 23.8737 4.42094 23.8959C4.44647 23.9181 4.47612 23.9351 4.50823 23.9458C4.54034 23.9565 4.57429 23.9607 4.60804 23.9582C4.67175 23.9512 4.73031 23.92 4.77159 23.871C4.81287 23.8219 4.83369 23.7589 4.82974 23.6949C4.82884 23.6631 4.8217 23.6317 4.80868 23.6026C4.79566 23.5736 4.77704 23.5473 4.75387 23.5254C4.7307 23.5036 4.70342 23.4865 4.67364 23.4751C4.64386 23.4638 4.61215 23.4584 4.5803 23.4593H4.57336Z" fill="white"/>
<path d="M34.9648 21.3676H27.2388V11.1816H34.9925L34.9648 21.3676ZM28.2504 20.3282H33.9255V12.221H28.2504V20.3282Z" fill="white"/>
<path d="M32.5602 15.4229C32.4777 15.422 32.3959 15.4374 32.3195 15.4684C32.243 15.4993 32.1734 15.5451 32.1148 15.6031C32.0561 15.6611 32.0096 15.7302 31.9778 15.8063C31.946 15.8824 31.9297 15.9641 31.9297 16.0465V16.2683C31.946 16.4232 32.0191 16.5666 32.1349 16.6709C32.2507 16.7751 32.401 16.8328 32.5568 16.8328C32.7126 16.8328 32.8629 16.7751 32.9787 16.6709C33.0945 16.5666 33.1676 16.4232 33.1839 16.2683V16.0812C33.1886 15.9964 33.1759 15.9116 33.1467 15.8319C33.1175 15.7522 33.0723 15.6793 33.0139 15.6176C32.9556 15.556 32.8852 15.5069 32.8072 15.4735C32.7292 15.44 32.6451 15.4228 32.5602 15.4229Z" fill="white" stroke="white" stroke-width="0.35" stroke-miterlimit="10"/>
<path d="M40.4802 0.884766H16.0201C15.8835 0.886587 15.7531 0.942144 15.6571 1.03941C15.5612 1.13667 15.5074 1.26782 15.5074 1.40446V5.68669C15.5065 5.75461 15.519 5.82203 15.5444 5.88504C15.5697 5.94806 15.6074 6.0054 15.6551 6.05375C15.7028 6.1021 15.7596 6.14049 15.8223 6.16669C15.8849 6.19289 15.9522 6.20639 16.0201 6.20638H17.5861C17.6898 6.81956 17.9802 7.3858 18.4176 7.82781V8.87413L19.4501 10.5302V8.52767C20.1041 8.79636 20.831 8.82996 21.507 8.62274C22.183 8.41552 22.7661 7.98031 23.1572 7.39127C23.4359 7.81149 23.8143 8.1562 24.2587 8.39466C24.703 8.63311 25.1994 8.75791 25.7037 8.75791C26.2079 8.75791 26.7044 8.63311 27.1487 8.39466C27.593 8.1562 27.9714 7.81149 28.2502 7.39127C28.5297 7.81147 28.9088 8.15609 29.3537 8.39445C29.7985 8.63281 30.2954 8.75753 30.8001 8.75753C31.3048 8.75753 31.8017 8.63281 32.2466 8.39445C32.6914 8.15609 33.0705 7.81147 33.35 7.39127C33.7399 7.97976 34.3219 8.41474 34.9967 8.62198C35.6715 8.82922 36.3973 8.79589 37.0502 8.52767V20.536H23.6699V21.5753H37.5699C37.7077 21.5753 37.8399 21.5206 37.9374 21.4231C38.0348 21.3257 38.0896 21.1935 38.0896 21.0556V7.81396C38.5227 7.36972 38.8103 6.80418 38.9142 6.19253H40.4802C40.618 6.19253 40.7502 6.13776 40.8477 6.0403C40.9451 5.94284 40.9999 5.81067 40.9999 5.67284V1.40446C40.9981 1.26718 40.9427 1.13604 40.8457 1.03896C40.7486 0.941889 40.6174 0.88656 40.4802 0.884766ZM39.9605 5.15315H38.443C38.3057 5.15495 38.1746 5.21028 38.0775 5.30735C37.9804 5.40443 37.9251 5.53557 37.9233 5.67284C37.9233 6.2113 37.7094 6.72769 37.3287 7.10844C36.9479 7.48918 36.4315 7.70309 35.8931 7.70309C35.3546 7.70309 34.8382 7.48918 34.4574 7.10844C34.0767 6.72769 33.8628 6.2113 33.8628 5.67284C33.8713 5.60003 33.8642 5.52624 33.8421 5.45635C33.82 5.38645 33.7834 5.32202 33.7347 5.26728C33.6859 5.21254 33.6261 5.16873 33.5592 5.13873C33.4923 5.10874 33.4199 5.09325 33.3466 5.09325C33.2733 5.09325 33.2008 5.10874 33.1339 5.13873C33.0671 5.16873 33.0073 5.21254 32.9585 5.26728C32.9098 5.32202 32.8731 5.38645 32.851 5.45635C32.829 5.52624 32.8219 5.60003 32.8304 5.67284C32.8304 6.2113 32.6165 6.72769 32.2357 7.10844C31.855 7.48918 31.3386 7.70309 30.8001 7.70309C30.2617 7.70309 29.7452 7.48918 29.3645 7.10844C28.9837 6.72769 28.7699 6.2113 28.7699 5.67284C28.7699 5.53501 28.7151 5.40282 28.6177 5.30536C28.5202 5.2079 28.388 5.15315 28.2502 5.15315C28.1123 5.15315 27.9802 5.2079 27.8827 5.30536C27.7852 5.40282 27.7305 5.53501 27.7305 5.67284C27.7466 5.94897 27.7062 6.22549 27.6116 6.48543C27.5171 6.74537 27.3704 6.98324 27.1806 7.18446C26.9908 7.38568 26.7619 7.54598 26.5079 7.65555C26.254 7.76513 25.9803 7.82164 25.7037 7.82164C25.4271 7.82164 25.1534 7.76513 24.8994 7.65555C24.6455 7.54598 24.4166 7.38568 24.2268 7.18446C24.037 6.98324 23.8903 6.74537 23.7957 6.48543C23.7012 6.22549 23.6607 5.94897 23.6769 5.67284C23.6769 5.53501 23.6221 5.40282 23.5247 5.30536C23.4272 5.2079 23.295 5.15315 23.1572 5.15315C23.0194 5.15315 22.8872 5.2079 22.7897 5.30536C22.6922 5.40282 22.6375 5.53501 22.6375 5.67284C22.6375 6.2113 22.4236 6.72769 22.0429 7.10844C21.6621 7.48918 21.1457 7.70309 20.6072 7.70309C20.0688 7.70309 19.5524 7.48918 19.1716 7.10844C18.7909 6.72769 18.577 6.2113 18.577 5.67284C18.577 5.5362 18.5232 5.40506 18.4272 5.3078C18.3313 5.21053 18.2009 5.15497 18.0642 5.15315H16.5398V1.92414H39.9605V5.15315Z" fill="white"/>
<path d="M16.976 10.9936L16.5395 10.5501C16.5318 10.5469 16.5236 10.5452 16.5153 10.5452C16.5069 10.5452 16.4987 10.5469 16.491 10.5501C16.4732 10.5432 16.4534 10.5432 16.4356 10.5501L14.9735 12.0191L14.2806 11.3262C14.2665 11.3131 14.2479 11.3058 14.2286 11.3058C14.2093 11.3058 14.1908 11.3131 14.1767 11.3262L13.7817 11.7281C13.7685 11.7422 13.7612 11.7608 13.7612 11.7801C13.7612 11.7994 13.7685 11.8179 13.7817 11.832L14.9319 12.9823C14.9477 12.9876 14.9647 12.9876 14.9804 12.9823C14.9983 12.9893 15.0181 12.9893 15.0359 12.9823L16.9483 11.0698C16.9597 11.061 16.9683 11.0492 16.9732 11.0357C16.9781 11.0222 16.9791 11.0076 16.976 10.9936Z" fill="white"/>
<path d="M11.0656 18.2219L13.2414 20.0928C13.2748 20.1203 13.315 20.138 13.3578 20.1441C13.4006 20.1502 13.4442 20.1445 13.4839 20.1274C13.5234 20.109 13.5568 20.0795 13.5801 20.0427C13.6034 20.0059 13.6157 19.9632 13.6156 19.9196L13.6156 19.0603L19.7826 19.0603C19.8432 19.0603 19.9014 19.0363 19.9443 18.9934C19.9871 18.9505 20.0112 18.8923 20.0112 18.8317L20.0112 17.4459C20.0112 17.3852 19.9871 17.327 19.9443 17.2842C19.9014 17.2413 19.8432 17.2172 19.7826 17.2172L13.6156 17.2172L13.6156 16.2887C13.6159 16.2468 13.6043 16.2057 13.5822 16.1702C13.5602 16.1346 13.5285 16.106 13.4909 16.0877L13.3939 16.0877C13.341 16.0854 13.2892 16.1027 13.2483 16.1362L11.0726 17.8962C11.0458 17.9163 11.0242 17.9425 11.0098 17.9727C10.9953 18.0028 10.9883 18.036 10.9894 18.0695C10.9911 18.0987 10.9986 18.1274 11.0118 18.1536C11.0249 18.1798 11.0432 18.2031 11.0656 18.2219Z" fill="white"/>
</svg>
