<svg width="13" height="13" viewBox="0 0 13 13" fill="none" xmlns="http://www.w3.org/2000/svg">
<path fill-rule="evenodd" clip-rule="evenodd" d="M1.35345 11.6499C1.67507 11.956 2.10334 12.1245 2.54732 12.1194C2.5867 12.1194 2.63595 12.1175 2.68283 12.1115H2.70956C2.74369 12.1096 2.78119 12.1078 2.81869 12.1078L4.75453 11.8344C5.22629 11.7452 5.66347 11.5249 6.0158 11.1987L11.0898 6.12528C11.3707 5.84923 11.6122 5.53558 11.8072 5.19334C11.9719 4.9024 12.074 4.58028 12.1071 4.24758C12.1446 3.84298 12.0767 3.43554 11.9105 3.06478C11.7116 2.6324 11.4335 2.24125 11.0901 1.91165C10.8122 1.62695 10.494 1.38431 10.146 1.19129C9.78833 0.991831 9.38656 0.884478 8.97705 0.878906C8.57584 0.90238 8.18337 1.00578 7.82272 1.18314C7.46208 1.3605 7.14068 1.60821 6.87714 1.91165L1.80353 6.98553C1.63844 7.15845 1.50172 7.35639 1.39849 7.57203C1.29065 7.78443 1.21598 8.01209 1.17693 8.24707L0.903728 10.1833C0.859209 10.4527 0.877161 10.7286 0.956464 10.9899C1.03223 11.2393 1.16875 11.466 1.35345 11.6499ZM8.04063 2.04733C8.30017 1.91969 8.58284 1.8453 8.87158 1.82842V1.83025C9.16462 1.83359 9.45208 1.90939 9.70876 2.05081C9.95922 2.18966 10.1883 2.36419 10.3885 2.56901C10.6354 2.80629 10.8357 3.08784 10.9788 3.39896C11.0986 3.66575 11.1472 3.95906 11.1198 4.25024C11.0965 4.48968 11.0231 4.72154 10.9045 4.93086C10.7642 5.17723 10.5906 5.40303 10.3885 5.60177L9.502 6.46948C8.79947 6.21279 8.16006 5.80172 7.63004 5.264C7.12678 4.75342 6.73606 4.14252 6.48136 3.47198L7.36019 2.57167C7.54982 2.35327 7.78108 2.17498 8.04063 2.04733ZM5.8883 4.07955L2.37264 7.68117C2.25394 7.80561 2.15548 7.94799 2.08113 8.10305C2.03221 8.25582 2.00684 8.41516 2.00605 8.57557C1.98055 8.86883 1.93767 9.36008 1.82404 10.1697C1.7919 10.3636 1.80458 10.5622 1.86139 10.7503C1.90969 10.9083 1.90995 10.9085 1.99428 10.982L1.9947 10.9824L2.03425 11.0176C2.12123 11.1159 2.23978 11.1809 2.36934 11.2017C2.38097 11.2017 2.66144 11.1778 3.04245 11.1384C3.39946 11.1009 3.91997 11.0431 4.3711 10.9718C4.69716 10.9431 5.00767 10.8199 5.26468 10.6172L8.86593 7.0921C8.18593 6.83435 7.56678 6.43122 7.05116 5.90831C6.53854 5.38844 6.14269 4.76457 5.8883 4.07955Z" fill="#46AB44"/>
</svg>
