<svg width="48" height="48" viewBox="0 0 48 48" fill="none" xmlns="http://www.w3.org/2000/svg">
<path d="M23.1374 46.9993C22.1529 46.9993 21.1684 46.9993 20.1848 46.9965C19.1812 46.988 18.2458 46.1022 18.144 45.0616C18.1167 44.7027 18.1212 44.3221 18.1249 43.9548C18.1276 43.7272 18.1294 43.4911 18.1249 43.2579C18.1221 43.1342 18.043 43.0265 17.9285 42.9925C16.504 42.561 15.1514 41.9774 13.9096 41.2597C13.8678 41.2361 13.8223 41.2238 13.7769 41.2238C13.7096 41.2238 13.6441 41.2493 13.5923 41.2984C13.4123 41.4703 13.2414 41.6544 13.076 41.832C12.7787 42.1521 12.4969 42.4543 12.166 42.6932C11.8333 42.9132 11.4397 43.0284 11.0279 43.0284C10.6679 43.0284 10.3179 42.9378 10.017 42.765C9.73976 42.612 9.51341 42.3749 9.27433 42.1247L9.23433 42.0822C8.65072 41.4731 8.0662 40.8669 7.48168 40.2606C6.79262 39.5457 6.10446 38.8318 5.41813 38.1142C4.68816 37.3606 4.62634 36.03 5.28268 35.2094C5.5054 34.9441 5.75993 34.6853 6.00538 34.4341C6.16537 34.2708 6.32991 34.1027 6.48899 33.9299C6.57172 33.8401 6.58808 33.7051 6.53081 33.5975C5.81629 32.2518 5.25632 30.8476 4.86633 29.4226C4.83361 29.3046 4.7318 29.2205 4.61271 29.2167C4.50453 29.213 4.39545 29.212 4.28636 29.212C4.16 29.212 4.03455 29.2139 3.90819 29.2158C3.78456 29.2177 3.66093 29.2196 3.5373 29.2196C3.32549 29.2196 3.04641 29.2148 2.76733 29.1808C1.86555 29.0401 1.10559 28.1969 1.00195 27.2176V20.8019C1.09559 19.8179 1.85374 18.9699 2.77097 18.8244C3.04641 18.7904 3.33095 18.7857 3.5473 18.7857C3.67002 18.7857 3.79365 18.7876 3.91638 18.7895C4.04182 18.7914 4.16727 18.7933 4.29272 18.7933C4.39908 18.7933 4.50544 18.7923 4.61271 18.7886C4.7318 18.7848 4.83452 18.7017 4.86633 18.5827C5.25632 17.1558 5.81629 15.7516 6.53081 14.4078C6.58808 14.2992 6.57172 14.1651 6.4899 14.0754C6.33173 13.9026 6.16628 13.7355 6.0072 13.5731C5.75902 13.3209 5.50267 13.0593 5.27723 12.7864C4.62816 11.9705 4.68998 10.6456 5.41358 9.89774C6.68353 8.57285 8.03802 7.16581 9.55523 5.5954C9.92976 5.20256 10.4706 4.97875 11.0397 4.97875C11.4297 4.97875 11.8033 5.08357 12.1188 5.28283C12.466 5.51608 12.7596 5.83337 13.0696 6.16955C13.2369 6.34991 13.4096 6.53689 13.5932 6.71065C13.6451 6.75975 13.7105 6.7843 13.7769 6.7843C13.8223 6.7843 13.8687 6.77203 13.9096 6.74842C15.145 6.03073 16.4968 5.44714 17.9276 5.01464C18.043 4.9797 18.1221 4.8711 18.124 4.74645C18.1267 4.52076 18.1258 4.29317 18.124 4.07315C18.1221 3.74075 18.1194 3.39701 18.133 3.06178C18.1758 2.17128 18.8157 1.34311 19.6539 1.09664C19.8884 1.02109 20.1321 1.00598 20.4293 1.00598C20.4829 1.00598 20.7293 1.00787 20.7293 1.00787C21.1375 1.00787 21.5456 1.00787 21.9538 1.00787H24.1101C24.7709 1.00787 25.4318 1.00787 26.0927 1.00976C26.9654 1.01731 27.8135 1.6859 28.0626 2.56601C28.1826 3.01173 28.1717 3.48389 28.1599 3.98344C28.1535 4.23557 28.1481 4.49715 28.1599 4.75684C28.1653 4.87771 28.2444 4.98159 28.3562 5.01464C29.8107 5.45375 31.1589 6.03734 32.3643 6.74747C32.4061 6.77203 32.4524 6.7843 32.4988 6.7843C32.5624 6.7843 32.6252 6.76164 32.6761 6.71631C32.887 6.52934 33.0806 6.31875 33.2679 6.11478C33.6778 5.66906 34.066 5.24789 34.5969 5.08074C34.8051 5.01086 35.0205 4.97592 35.2414 4.97592C35.805 4.97592 36.3477 5.20067 36.7286 5.59257C37.444 6.33103 38.1576 7.07327 38.8703 7.81551C39.413 8.38021 39.9558 8.94492 40.5003 9.50773L40.5675 9.57667C40.8303 9.8458 41.0775 10.0998 41.2266 10.4133C41.5693 11.1027 41.5311 11.962 41.1312 12.608C40.8975 12.9526 40.6048 13.2463 40.2939 13.557C40.1276 13.7241 39.9548 13.897 39.793 14.0783C39.713 14.168 39.6976 14.3011 39.7539 14.4078C40.4621 15.7403 41.0221 17.1454 41.4193 18.5846C41.4521 18.7036 41.5557 18.7867 41.6748 18.7895C41.7811 18.7923 41.8875 18.7933 41.9948 18.7933C42.1166 18.7933 42.2384 18.7923 42.3602 18.7904C42.4802 18.7895 42.6002 18.7876 42.7202 18.7876C43.0111 18.7876 43.232 18.7961 43.4365 18.8141C44.2028 18.9047 44.8974 19.4874 45.1583 20.2636C45.291 20.629 45.2883 21.0257 45.2855 21.4449C45.2855 21.512 45.2855 21.5781 45.2855 21.6451C45.2855 23.2155 45.2855 24.7888 45.2855 26.3611C45.2855 26.4263 45.2855 26.4933 45.2855 26.5594C45.2883 26.9825 45.291 27.3819 45.1592 27.7417C45.1583 27.7455 45.1564 27.7483 45.1555 27.7521C45.0619 28.0392 44.8801 28.3262 44.581 28.6558C44.4828 28.7644 44.4819 28.9334 44.5792 29.043C46.0228 30.6597 46.8827 32.7834 47 35.0234V35.9129C46.8755 38.134 46.0455 40.2219 44.6619 41.7914C44.5801 41.8867 44.4756 41.9066 44.4019 41.9066C44.2328 41.9066 44.0319 41.7999 43.9929 41.6025C43.991 41.593 43.9883 41.5836 43.9856 41.5742C43.9301 41.39 44.061 41.2134 44.2665 40.966L44.3128 40.9094C45.3764 39.5646 46.03 37.8639 46.1555 36.1169C46.28 34.4426 45.9128 32.7164 45.1219 31.2574C44.2238 29.5869 42.7956 28.2582 41.103 27.5179C40.1021 27.0741 38.984 26.8399 37.8713 26.8399C37.0141 26.8399 36.1732 26.974 35.3714 27.2403C33.5633 27.8295 31.9897 29.0666 30.9416 30.722C30.0234 32.1564 29.5362 33.8968 29.5716 35.6221C29.5962 37.4324 30.1953 39.2275 31.2579 40.6742C32.3915 42.2342 34.016 43.3542 35.8305 43.8283C36.4877 44.0039 37.1722 44.0927 37.864 44.0927C39.0212 44.0927 40.1848 43.8386 41.2284 43.358C41.3184 43.3174 41.4066 43.2721 41.4921 43.2277C41.633 43.1559 41.7657 43.087 41.9011 43.0416C41.9266 43.035 41.9529 43.0312 41.9793 43.0312C42.1529 43.0312 42.3257 43.1701 42.3647 43.34C42.3657 43.3438 42.3666 43.3485 42.3675 43.3523C42.4147 43.5251 42.3311 43.7338 42.1802 43.8179C40.8857 44.5516 39.3958 44.9388 37.8695 44.9388C36.3432 44.9388 34.8442 44.5488 33.5533 43.8103C32.7542 43.3665 31.9988 42.7716 31.3034 42.0397C31.2507 41.9849 31.1807 41.9557 31.1089 41.9557C31.0707 41.9557 31.0325 41.9642 30.9961 41.9812C30.1734 42.3674 29.2844 42.7083 28.3535 42.9925C28.2417 43.0265 28.1635 43.1304 28.1581 43.2513C28.1472 43.5072 28.1526 43.765 28.1581 44.0143C28.169 44.4893 28.1781 44.9378 28.0799 45.3703C27.8563 46.2882 26.999 46.9899 26.0863 46.9984C25.1037 47.0002 24.1192 47.0012 23.1356 47.0012L23.1374 46.9993ZM20.2684 46.1466C21.2238 46.1485 22.1792 46.1494 23.1356 46.1494C24.0919 46.1494 25.0464 46.1494 26.0018 46.1475C26.0163 46.1475 26.03 46.1475 26.0445 46.1475C26.7054 46.1475 27.2945 45.5743 27.3308 44.8954C27.3463 44.4912 27.3436 44.0889 27.3408 43.6989C27.339 43.374 27.3363 43.0379 27.3445 42.7102C27.3445 42.7055 27.3445 42.7007 27.3445 42.696C27.3408 42.5119 27.4954 42.3315 27.689 42.2947C27.6954 42.2937 27.7026 42.2918 27.709 42.29C28.6053 42.0435 29.4817 41.7309 30.3134 41.3626C30.3889 41.3286 30.4462 41.2616 30.4689 41.1794C30.4916 41.0973 30.4771 41.0085 30.4298 40.9386C29.6416 39.7781 29.1035 38.4239 28.8735 37.0225C28.859 36.9366 28.808 36.862 28.7335 36.8204C28.6935 36.7978 28.649 36.7864 28.6044 36.7864C28.5671 36.7864 28.529 36.794 28.4944 36.811C26.8572 37.5617 25.0146 37.9593 23.1656 37.9593C20.7184 37.9593 18.3521 37.2916 16.324 36.0272C13.7569 34.4568 11.7433 32.0157 10.6525 29.1535C9.68613 26.6453 9.45069 23.7991 9.98975 21.1371C10.5552 18.2956 12.0042 15.6562 14.0696 13.7034C14.1014 13.6741 14.1369 13.6401 14.1723 13.6052C14.3205 13.4616 14.4605 13.3266 14.6068 13.3266H14.6386C14.7459 13.3266 14.8495 13.3776 14.9277 13.4663C15.005 13.5542 15.0441 13.6646 15.035 13.7685C15.035 13.7751 15.0341 13.7817 15.0341 13.7884C15.0314 13.9413 14.905 14.0688 14.7132 14.2464L14.6768 14.2794C12.1878 16.5902 10.6379 20.0436 10.5306 23.5168C10.4188 26.3507 11.2261 29.1903 12.8033 31.5114C14.4614 33.9799 16.9058 35.7921 19.6848 36.6117C19.7093 36.6193 19.7348 36.6221 19.7593 36.6221C19.8184 36.6221 19.8757 36.6023 19.9239 36.5645C19.9921 36.5107 20.0321 36.4276 20.0321 36.3388V34.5116C20.0321 32.7079 20.0321 30.9052 20.0321 29.1025C20.0321 28.9901 19.9684 28.889 19.8693 28.8437C17.8503 27.9173 16.2804 26.057 15.6695 23.8662C15.1814 22.1626 15.2768 20.3231 15.9359 18.6847C16.5649 17.1077 17.6822 15.7752 19.083 14.9329C19.3703 14.762 19.6775 14.6675 19.9475 14.6675C20.1802 14.6675 20.3757 14.7383 20.5293 14.8772C20.9584 15.2653 20.9529 15.949 20.9111 16.6166C20.9111 16.6223 20.9111 16.627 20.9111 16.6327C20.8975 18.0548 20.902 19.4996 20.9066 20.8963V21.2589C20.9211 22.3496 21.702 23.3676 22.7256 23.6339C22.8528 23.6754 22.9874 23.6962 23.1265 23.6962C23.4155 23.6962 23.7246 23.6084 24.0701 23.428C24.87 23.0031 25.3964 22.0927 25.3818 21.1616C25.3827 19.7187 25.3836 18.2701 25.3818 16.8206C25.3818 16.8168 25.3818 16.813 25.3818 16.8102C25.3791 16.7413 25.3764 16.6723 25.3727 16.6024C25.35 16.1067 25.3255 15.5939 25.5291 15.1756C25.6745 14.8668 25.9982 14.6609 26.3363 14.6609C26.37 14.6609 26.4045 14.6628 26.4381 14.6675C26.9736 14.728 27.4508 15.0632 27.8935 15.4022C29.3035 16.492 30.338 18.1332 30.7298 19.9038C31.1452 21.7254 30.887 23.717 30.0216 25.3696C29.2353 26.8965 27.9554 28.1308 26.4172 28.8437C26.3191 28.889 26.2554 28.991 26.2554 29.1025V30.9524C26.2554 32.7485 26.2554 34.5456 26.2554 36.3417C26.2554 36.4314 26.2963 36.5154 26.3654 36.5683C26.4127 36.6051 26.4709 36.625 26.5281 36.625C26.5545 36.625 26.58 36.6212 26.6054 36.6136C27.3817 36.3747 28.0372 36.1131 28.6081 35.8128C28.7008 35.7637 28.759 35.6636 28.7571 35.556C28.7299 33.8326 29.1944 32.0639 30.0644 30.5747C31.247 28.5255 33.1951 26.9806 35.4087 26.3356C35.5105 26.3063 35.5868 26.2176 35.6041 26.1099C36.2141 22.3213 35.1314 18.3372 32.7088 15.4541C30.8489 13.1982 28.2872 11.657 25.4973 11.1169C24.7355 10.9648 23.9492 10.8883 23.161 10.8883C21.1129 10.8883 19.0848 11.4039 17.2958 12.3794C17.2913 12.3823 17.2867 12.3851 17.2822 12.3879C17.204 12.437 17.1113 12.4635 17.0204 12.4635C16.9449 12.4635 16.8367 12.4455 16.7504 12.3577C16.7467 12.3539 16.7431 12.3502 16.7395 12.3473C16.654 12.2689 16.6095 12.1415 16.6213 12.0045C16.6322 11.8752 16.6904 11.7666 16.7804 11.7071C18.6903 10.6183 20.8938 10.0432 23.151 10.0432C25.2846 10.0432 27.3781 10.5616 29.2062 11.5418C31.9388 12.9762 34.1342 15.3597 35.3905 18.2531C36.4068 20.5658 36.7841 23.1532 36.4814 25.7369C36.4714 25.8238 36.4995 25.9097 36.5595 25.972C36.6114 26.0259 36.6804 26.0551 36.7523 26.0551C36.7632 26.0551 36.7741 26.0551 36.7859 26.0532C37.1404 26.0079 37.504 25.9853 37.8649 25.9853C39.9676 25.9853 42.0029 26.7322 43.5965 28.0892C43.6465 28.1317 43.7083 28.1534 43.7692 28.1534C43.8301 28.1534 43.891 28.1326 43.941 28.0902C44.2919 27.7955 44.4874 27.3583 44.4665 26.9192V25.4668C44.4665 24.0059 44.4665 22.5451 44.4665 21.0842C44.5074 20.3703 43.9774 19.7168 43.3056 19.6536C43.302 19.6536 43.2992 19.6536 43.2956 19.6536C43.0811 19.6422 42.8465 19.6366 42.5566 19.6366C42.4102 19.6366 42.2629 19.6375 42.1166 19.6394C41.9711 19.6403 41.8266 19.6422 41.682 19.6422C41.4593 19.6422 41.2766 19.6394 41.1075 19.6318C40.9539 19.6224 40.8039 19.4826 40.7648 19.307C40.3321 17.5751 39.673 15.9235 38.804 14.3899C38.8022 14.3871 38.8004 14.3833 38.7985 14.3804C38.6976 14.218 38.7231 13.9819 38.854 13.8554C38.8576 13.8516 38.8613 13.8488 38.864 13.845C39.0812 13.6127 39.3076 13.3795 39.5258 13.1538C39.7721 12.8997 40.0276 12.6372 40.2721 12.3719C40.6257 12.0008 40.7403 11.419 40.5539 10.9271C40.4512 10.6475 40.2539 10.4454 40.0803 10.2679C40.0448 10.232 40.0094 10.1961 39.9758 10.1593C38.9694 9.1149 37.9658 8.07236 36.9622 7.02888L36.515 6.56428C36.4732 6.52178 36.435 6.48117 36.3959 6.43962C36.2595 6.29514 36.1196 6.14594 35.9405 6.02507C35.7378 5.89286 35.5032 5.82392 35.2569 5.82392C34.9051 5.82392 34.5687 5.96557 34.3324 6.21393C34.1005 6.44718 33.8669 6.69176 33.6415 6.92973C33.4069 7.17525 33.1642 7.43022 32.9215 7.67386C32.9188 7.67669 32.917 7.67858 32.9142 7.68141C32.8424 7.75979 32.7361 7.80417 32.6224 7.80417C32.5388 7.80417 32.4606 7.78056 32.3952 7.73524C32.3915 7.7324 32.387 7.72957 32.3833 7.72768C30.9443 6.84191 29.3744 6.16388 27.7172 5.71438C27.7108 5.71249 27.7045 5.71155 27.6981 5.70966C27.5036 5.67189 27.3463 5.49247 27.3481 5.30927C27.3481 5.30549 27.3481 5.30266 27.3481 5.29888C27.339 4.96837 27.3417 4.62841 27.3445 4.30073C27.3472 3.90978 27.3499 3.50655 27.3345 3.10616C27.2954 2.4253 26.7063 1.85493 26.0482 1.85493C26.0327 1.85493 26.0173 1.85493 26.0018 1.85587C24.9573 1.85493 23.9128 1.85398 22.8674 1.85398C22.0038 1.85398 21.1411 1.85398 20.2784 1.85587C20.2648 1.85587 20.2511 1.85587 20.2375 1.85587C19.5775 1.85587 18.9903 2.43002 18.9539 3.10899C18.9403 3.5075 18.9421 3.90506 18.9448 4.2894C18.9466 4.61897 18.9494 4.95987 18.9412 5.29321C18.9412 5.29699 18.9412 5.30077 18.9412 5.30455C18.9439 5.48869 18.7948 5.66528 18.6021 5.70683C18.5976 5.70777 18.593 5.70872 18.5885 5.71061C16.9767 6.14688 15.4386 6.80413 14.0178 7.66536C13.9023 7.73524 13.7705 7.80889 13.6578 7.80889C13.6396 7.80889 13.6232 7.80701 13.6069 7.80323C13.6014 7.80228 13.5969 7.80134 13.5914 7.8004C13.4569 7.77868 13.3432 7.65686 13.2114 7.51521C13.1687 7.46894 13.1251 7.42267 13.0814 7.38017C12.9414 7.23663 12.7987 7.08743 12.656 6.93728C12.4106 6.67948 12.1569 6.41224 11.8951 6.1601C11.6651 5.94385 11.3624 5.82676 11.0388 5.82676C10.6688 5.82676 10.3206 5.97974 10.0825 6.24698C9.50523 6.84757 8.92798 7.44722 8.34982 8.04686C7.58076 8.84576 6.8108 9.64466 6.04265 10.4454C5.54631 10.9318 5.50903 11.7845 5.96174 12.3105C6.20355 12.5806 6.45445 12.8374 6.69626 13.0858C6.84807 13.2416 7.00079 13.3984 7.14987 13.557C7.18533 13.5957 7.22533 13.6354 7.26441 13.675C7.41259 13.8242 7.54168 13.9536 7.55167 14.1056C7.55167 14.1113 7.55168 14.116 7.55349 14.1217C7.56713 14.2369 7.49895 14.371 7.41532 14.5212C6.59081 15.9811 5.95629 17.5845 5.52903 19.2862C5.52903 19.29 5.52722 19.2928 5.52631 19.2966C5.48722 19.4798 5.33541 19.6243 5.17269 19.6328C4.99269 19.6384 4.79088 19.6422 4.54271 19.6422C4.39999 19.6422 4.25636 19.6422 4.11364 19.6403C3.9691 19.6403 3.82547 19.6384 3.68093 19.6384C3.45003 19.6384 3.26095 19.6413 3.08459 19.646C2.41735 19.6536 1.82646 20.273 1.82555 20.9728C1.81737 22.3383 1.81919 23.7274 1.8201 25.0711C1.8201 25.6906 1.82101 26.3101 1.8201 26.9286C1.8001 27.2875 1.9301 27.651 2.17736 27.9277C2.42007 28.1987 2.75279 28.3555 3.08914 28.3583C3.26277 28.364 3.45639 28.3668 3.69275 28.3668C3.83638 28.3668 3.9791 28.3668 4.12273 28.3649C4.26454 28.3649 4.40726 28.3631 4.54908 28.3631C4.79452 28.3631 4.99451 28.3659 5.17723 28.3725C5.32995 28.3801 5.48267 28.5236 5.52176 28.6992C5.9572 30.433 6.60535 32.0629 7.45168 33.554C7.45532 33.5597 7.45804 33.5653 7.46168 33.5701C7.56258 33.7221 7.5944 33.9657 7.45622 34.1178C7.22169 34.3775 6.97261 34.6334 6.73171 34.8798C6.47627 35.1414 6.21173 35.4124 5.96083 35.6929C5.50358 36.2236 5.54449 37.0782 6.04447 37.5655C7.51077 39.0934 8.97071 40.6091 10.0807 41.7592C10.3197 42.0255 10.667 42.1785 11.0361 42.1785C11.3561 42.1785 11.6579 42.0624 11.8842 41.8527C12.1597 41.5864 12.4233 41.3097 12.6778 41.0425C12.9151 40.7932 13.1596 40.5354 13.4087 40.2927C13.4869 40.2162 13.5832 40.2002 13.6505 40.2002C13.7478 40.2002 13.8505 40.2332 13.9323 40.2918C13.9378 40.2955 13.9432 40.2993 13.9487 40.3022C15.3886 41.1823 16.9486 41.8527 18.5858 42.2956C18.5912 42.2966 18.5958 42.2985 18.6012 42.2994C18.7912 42.3391 18.9403 42.5138 18.9394 42.697C18.9476 43.0388 18.9457 43.3807 18.9439 43.7112C18.9412 44.0965 18.9385 44.494 18.953 44.8887C18.9876 45.5743 19.5748 46.1494 20.2366 46.1494C20.2475 46.1494 20.2593 46.1494 20.2702 46.1494L20.2684 46.1466ZM19.8266 15.5382C19.7848 15.5382 19.743 15.5486 19.7039 15.5684C18.0158 16.4514 16.7186 18.2531 16.3168 20.2693C15.9959 21.8567 16.2477 23.5857 17.0067 25.0126C17.7585 26.4461 19.0266 27.6038 20.4857 28.1874C20.492 28.1903 20.4984 28.1921 20.5048 28.194C20.6802 28.2488 20.8538 28.4131 20.8466 28.619C20.8466 28.6227 20.8466 28.6265 20.8466 28.6312C20.8511 30.3018 20.8502 32.0006 20.8493 33.6428C20.8493 34.6475 20.8484 35.6523 20.8493 36.6571C20.8493 36.7959 20.9457 36.9139 21.0775 36.9366C21.7538 37.0537 22.4492 37.1132 23.1437 37.1132C23.8383 37.1132 24.5246 37.0556 25.2055 36.9413C25.3373 36.9196 25.4346 36.8006 25.4346 36.6618C25.4355 35.5494 25.4346 34.436 25.4346 33.3236C25.4346 31.7862 25.4336 30.1969 25.4373 28.6331C25.4373 28.6284 25.4373 28.6237 25.4373 28.619C25.4264 28.3961 25.6336 28.2309 25.83 28.1723C25.8373 28.1704 25.8454 28.1676 25.8527 28.1648C28.1235 27.2516 29.8162 24.9465 30.0634 22.4308C30.3853 19.6809 28.9199 16.7932 26.5781 15.5694C26.54 15.5495 26.4972 15.5391 26.4554 15.5391C26.4054 15.5391 26.3545 15.5533 26.3109 15.5826C26.23 15.6355 26.1818 15.7271 26.1827 15.8262C26.2036 17.5704 26.2063 19.3778 26.1918 21.3505C26.1545 23.0371 24.7091 24.5348 23.0956 24.5565C22.272 24.5008 21.4793 24.0947 20.9184 23.4412C20.382 22.8274 20.0784 21.9993 20.083 21.1683C20.083 20.7376 20.083 20.3089 20.083 19.8811C20.0811 18.5515 20.0802 17.1775 20.1002 15.8272C20.1021 15.728 20.053 15.6355 19.9721 15.5826C19.9275 15.5542 19.8775 15.5391 19.8275 15.5391L19.8266 15.5382Z" fill="black" stroke="#333333" stroke-width="0.2"/>
</svg>
