<svg width="21" height="25" viewBox="0 0 21 25" fill="none" xmlns="http://www.w3.org/2000/svg">
<path d="M15.1112 0.285554C15.0713 0.24563 15.0257 0.214261 14.9743 0.191447C14.923 0.168633 14.8631 0.157227 14.8032 0.157227H3.98099C2.85171 0.157227 1.93631 1.07548 1.93631 2.2019V11.353H1.5C0.673004 11.353 0 12.026 0 12.853V16.834C0 17.661 0.673004 18.334 1.5 18.334H1.93631V22.3549C1.93631 23.4842 2.85456 24.3996 3.98099 24.3996H18.9553C20.0846 24.3996 21 23.4814 21 22.3549V6.35685C21 6.23707 20.9515 6.12871 20.8717 6.04886L15.1112 0.285554ZM1.5 17.4614C1.15209 17.4614 0.869772 17.1791 0.869772 16.8312V12.853C0.869772 12.5051 1.15209 12.2228 1.5 12.2228H11.0903C11.4382 12.2228 11.7205 12.5051 11.7205 12.853V16.834C11.7205 17.1819 11.4382 17.4643 11.0903 17.4643H1.5V17.4614ZM20.1302 22.3521C20.1302 22.9994 19.6027 23.527 18.9553 23.527H3.98099C3.33365 23.527 2.80608 22.9994 2.80608 22.3521V18.3312H11.0903C11.9173 18.3312 12.5903 17.6582 12.5903 16.8312V12.853C12.5903 12.026 11.9173 11.353 11.0903 11.353H2.80323V2.2019C2.80323 1.55456 3.3308 1.027 3.97814 1.027H14.3669V4.74278C14.3669 5.87206 15.2852 6.78745 16.4116 6.78745H20.1274V22.3521H20.1302Z" fill="white"/>
<path d="M3.97076 13.3386C3.85384 13.3072 3.60574 13.293 3.22646 13.293H2.22266V16.3956H2.85003V15.2264H3.25783C3.54015 15.2264 3.75688 15.2122 3.90802 15.1808C4.01923 15.158 4.1276 15.1067 4.23311 15.0325C4.33863 14.9584 4.42703 14.8557 4.49547 14.7274C4.56391 14.5962 4.59813 14.4365 4.59813 14.2483C4.59813 14.0002 4.53825 13.8006 4.41847 13.6437C4.29585 13.4869 4.14756 13.3842 3.97076 13.3386ZM3.8795 14.4964C3.83102 14.5648 3.76828 14.6162 3.68273 14.6475C3.60003 14.6789 3.43463 14.696 3.18653 14.696H2.84433V13.8177H3.14661C3.3719 13.8177 3.52304 13.8234 3.59718 13.8376C3.69984 13.8548 3.78254 13.9032 3.84813 13.9745C3.91372 14.0487 3.94794 14.1399 3.94794 14.254C3.95079 14.3452 3.92798 14.4279 3.8795 14.4964Z" fill="white"/>
<path d="M7.30797 13.638C7.17679 13.5011 7.02279 13.407 6.84028 13.3529C6.70625 13.3129 6.50949 13.293 6.24998 13.293H5.10645V16.3956H6.2842C6.51519 16.3956 6.70055 16.3728 6.83743 16.33C7.02279 16.2702 7.16823 16.1875 7.2766 16.0819C7.41918 15.9422 7.5304 15.7597 7.6074 15.5344C7.67013 15.3491 7.7015 15.1295 7.7015 14.8757C7.7015 14.5848 7.66728 14.3395 7.59884 14.1428C7.5361 13.9403 7.43915 13.7749 7.30797 13.638ZM6.99428 15.4118C6.9515 15.5515 6.89732 15.6513 6.82888 15.7112C6.76329 15.7711 6.67774 15.8139 6.57508 15.8395C6.49808 15.8595 6.3726 15.8681 6.1958 15.8681H5.72812V13.8148H6.01044C6.26709 13.8148 6.43819 13.8234 6.52375 13.8433C6.64067 13.869 6.73762 13.9175 6.81462 13.9888C6.89162 14.0601 6.94865 14.1599 6.99143 14.2882C7.0342 14.4165 7.05416 14.6019 7.05416 14.8414C7.05702 15.0838 7.03705 15.2749 6.99428 15.4118Z" fill="white"/>
<path d="M8.2417 16.3928H8.86907V15.0753H10.1638V14.5506H8.86907V13.8177H10.3691V13.293H8.2417V16.3928Z" fill="white"/>
</svg>
