<svg width="30" height="29" viewBox="0 0 30 29" fill="none" xmlns="http://www.w3.org/2000/svg">
<path d="M17.4952 28.036C15.8342 27.3114 14.258 26.4059 12.7953 25.336C11.2409 24.1913 9.7705 22.9367 8.39527 21.582C7.03681 20.2088 5.78044 18.7383 4.63624 17.182C3.58318 15.7294 2.68877 14.1682 1.96827 12.525C1.32511 11.0503 0.978201 9.46355 0.947272 7.85501C0.94598 6.86597 1.1298 5.88543 1.48926 4.96402C1.87407 3.99734 2.47229 3.1301 3.23926 2.42703C3.67629 1.96467 4.20154 1.59452 4.78394 1.33844C5.36635 1.08236 5.99411 0.94554 6.63026 0.936035C7.13982 0.936738 7.64311 1.04832 8.10523 1.26303C8.61441 1.49256 9.04938 1.85967 9.36121 2.32303L12.3983 6.60004C12.651 6.94412 12.8618 7.31707 13.0263 7.71103C13.1902 8.07794 13.2783 8.47422 13.2853 8.87604C13.2788 9.38443 13.1351 9.88162 12.8693 10.315C12.6257 10.7223 12.3302 11.0961 11.9902 11.427L11.1033 12.355C11.1126 12.3871 11.1257 12.418 11.1422 12.447C11.4543 12.9618 11.8117 13.4477 12.2102 13.899C12.8532 14.631 13.4582 15.299 14.0542 15.913C14.8312 16.672 15.4673 17.274 16.0713 17.771C16.5353 18.1868 17.0433 18.5506 17.5863 18.856L17.6162 18.869L17.6553 18.83L18.5203 17.979C18.8639 17.6202 19.2609 17.3166 19.6973 17.079C20.0781 16.8498 20.5094 16.7176 20.9533 16.694C21.3979 16.6688 21.8422 16.7511 22.2483 16.934C22.6353 17.1004 23.0039 17.3065 23.3483 17.549L27.6882 20.636C28.1506 20.9386 28.5137 21.3705 28.7323 21.878C28.9183 22.3262 29.0167 22.8058 29.0222 23.291C29.0188 23.9286 28.8768 24.5577 28.6062 25.135C28.3398 25.7102 27.9848 26.2399 27.5542 26.705C26.8707 27.4879 26.015 28.1017 25.0542 28.498C24.1224 28.8318 23.1379 28.9937 22.1483 28.976C22.0333 28.976 21.9003 28.976 21.7753 28.976C21.4709 28.9731 21.1669 28.9514 20.8652 28.911C19.7103 28.7587 18.5784 28.4648 17.4952 28.036ZM6.62525 2.90701C6.24051 2.91956 5.86222 3.00943 5.51295 3.17126C5.16367 3.3331 4.8506 3.56361 4.59229 3.84903C4.03326 4.36017 3.59612 4.99034 3.31324 5.69302C3.03727 6.3836 2.89872 7.12138 2.90528 7.86502C2.93486 9.20909 3.22844 10.5342 3.76929 11.765C4.42717 13.275 5.25375 14.7058 6.23328 16.03C7.30852 17.5025 8.49182 18.893 9.77332 20.19C11.0757 21.477 12.471 22.6662 13.9482 23.748C15.2806 24.7364 16.7237 25.566 18.2483 26.22C19.1764 26.6973 20.1908 26.9837 21.2315 27.0623C22.2721 27.141 23.3179 27.0103 24.3073 26.678C24.9968 26.3901 25.6095 25.9449 26.0963 25.378C26.3992 25.0529 26.6482 24.6816 26.8342 24.278C26.9827 23.9627 27.0628 23.6195 27.0692 23.271C27.0671 23.0449 27.0164 22.8218 26.9203 22.617C26.8406 22.4541 26.7151 22.3178 26.5592 22.225L22.2113 19.137C21.9889 18.9776 21.7494 18.8434 21.4973 18.737C21.3705 18.6478 21.2176 18.6032 21.0626 18.6102C20.9077 18.6173 20.7594 18.6756 20.6412 18.776C20.36 18.9303 20.1057 19.1292 19.8883 19.365L18.8883 20.346C18.6377 20.5788 18.328 20.7384 17.993 20.8075C17.6581 20.8766 17.3106 20.8526 16.9883 20.738L16.6353 20.581C15.9749 20.204 15.3543 19.7611 14.7832 19.259C14.1552 18.723 13.4723 18.095 12.6483 17.284C12.0043 16.629 11.3693 15.936 10.7023 15.165C10.1937 14.5992 9.74651 13.9811 9.36829 13.321L9.21131 12.929C9.14351 12.7171 9.10648 12.4965 9.10133 12.274C9.09976 12.0485 9.14255 11.825 9.2273 11.616C9.31289 11.4059 9.44123 11.2158 9.60425 11.058L10.5852 10.038C10.8095 9.81786 11.0072 9.57219 11.1743 9.30603C11.2601 9.17288 11.3087 9.01926 11.3153 8.86102C11.3058 8.71704 11.2719 8.57571 11.2152 8.44302C11.0983 8.19796 10.9562 7.96572 10.7913 7.75003L7.76429 3.46103C7.64029 3.2854 7.4723 3.14539 7.27723 3.05502C7.07238 2.96139 6.85045 2.911 6.62525 2.90701Z" fill="#6E7191"/>
</svg>
