<svg width="11" height="11" viewBox="0 0 11 11" fill="none" xmlns="http://www.w3.org/2000/svg">
<path d="M2.78744 6.77084C2.64378 6.77084 2.50601 6.82791 2.40442 6.92949C2.30284 7.03107 2.24577 7.16885 2.24577 7.31251V8.27776C1.54761 7.48822 1.1623 6.47062 1.16244 5.41667C1.1622 5.25736 1.17161 5.09818 1.19061 4.94001C1.20094 4.86855 1.19689 4.79576 1.17869 4.72589C1.16048 4.65603 1.1285 4.59051 1.08461 4.53319C1.04072 4.47586 0.985816 4.42789 0.923122 4.39209C0.860428 4.35629 0.79121 4.33338 0.719536 4.32472C0.647863 4.31605 0.57518 4.3218 0.50576 4.34163C0.43634 4.36145 0.371585 4.39496 0.315299 4.44017C0.259014 4.48538 0.212335 4.54139 0.178006 4.6049C0.143677 4.66842 0.122391 4.73815 0.115398 4.81001C0.0909335 5.0113 0.0788136 5.2139 0.0791068 5.41667C0.0798459 6.70919 0.544405 7.95852 1.38832 8.93751H0.620773C0.477115 8.93751 0.339339 8.99457 0.237757 9.09616C0.136175 9.19774 0.0791068 9.33551 0.0791068 9.47917C0.0791068 9.62283 0.136175 9.76061 0.237757 9.86219C0.339339 9.96377 0.477115 10.0208 0.620773 10.0208H2.78744C2.87215 10.0197 2.95537 9.99842 3.03018 9.95866C3.10499 9.91891 3.16922 9.86185 3.21752 9.79226C3.22348 9.78413 3.23161 9.77763 3.23757 9.76896C3.24136 9.76355 3.24136 9.75705 3.24461 9.75163C3.27041 9.70807 3.28975 9.661 3.30202 9.61188C3.31015 9.58425 3.31595 9.55598 3.31936 9.52738C3.32098 9.51113 3.32911 9.49651 3.32911 9.47917V7.31251C3.32911 7.16885 3.27204 7.03107 3.17046 6.92949C3.06887 6.82791 2.9311 6.77084 2.78744 6.77084ZM3.59994 2.16667H2.63415C3.42387 1.46847 4.44166 1.08316 5.49577 1.08334C5.65511 1.08299 5.8143 1.09258 5.97244 1.11205C6.11517 1.12929 6.25889 1.08912 6.372 1.00039C6.48512 0.911658 6.55835 0.781627 6.57559 0.638902C6.59283 0.496177 6.55266 0.352449 6.46393 0.239337C6.3752 0.126225 6.24517 0.052995 6.10244 0.0357559C5.90113 0.0115444 5.69853 -0.000394278 5.49577 5.92055e-06C4.20326 0.000745108 2.95393 0.465304 1.97494 1.30921V0.541673C1.97494 0.398014 1.91787 0.260239 1.81629 0.158656C1.71471 0.0570742 1.57693 5.92055e-06 1.43327 5.92055e-06C1.28961 5.92055e-06 1.15184 0.0570742 1.05026 0.158656C0.948675 0.260239 0.891607 0.398014 0.891607 0.541673V2.70834C0.89495 2.74419 0.90203 2.77959 0.912732 2.81396C0.925791 2.8808 0.951731 2.94445 0.989107 3.00138L0.995607 3.01059C1.03134 3.06256 1.0761 3.10769 1.12777 3.14384C1.13373 3.14817 1.13698 3.15467 1.14294 3.15901C1.15052 3.16442 1.15919 3.16605 1.16732 3.17038C1.19815 3.18888 1.23083 3.20413 1.26482 3.21588C1.31043 3.23179 1.35799 3.24144 1.40619 3.24459C1.41594 3.24459 1.42352 3.25001 1.43327 3.25001H3.59994C3.7436 3.25001 3.88137 3.19294 3.98296 3.09136C4.08454 2.98977 4.14161 2.852 4.14161 2.70834C4.14161 2.56468 4.08454 2.42691 3.98296 2.32532C3.88137 2.22374 3.7436 2.16667 3.59994 2.16667ZM10.0783 8.01884C10.0652 7.95218 10.0392 7.88871 10.0019 7.83196L9.99594 7.82276C9.96005 7.77074 9.9151 7.72561 9.86323 7.68951C9.85727 7.68517 9.85457 7.67867 9.84807 7.67434C9.84265 7.67055 9.83561 7.67055 9.82965 7.66676C9.76092 7.62844 9.68557 7.60345 9.60756 7.59309C9.59023 7.59146 9.57561 7.58334 9.55827 7.58334H7.39161C7.24795 7.58334 7.11017 7.64041 7.00859 7.74199C6.90701 7.84357 6.84994 7.98135 6.84994 8.12501C6.84994 8.26867 6.90701 8.40644 7.00859 8.50802C7.11017 8.6096 7.24795 8.66667 7.39161 8.66667H8.35686C7.5673 9.36479 6.54971 9.7501 5.49577 9.75001C5.33643 9.75018 5.17723 9.74041 5.01911 9.72076C4.87638 9.70352 4.73265 9.74368 4.61954 9.83241C4.50643 9.92115 4.4332 10.0512 4.41596 10.1939C4.39872 10.3366 4.43889 10.4804 4.52762 10.5935C4.61635 10.7066 4.74638 10.7798 4.88911 10.797C5.09042 10.8213 5.29301 10.8334 5.49577 10.8333C6.78829 10.8326 8.03762 10.368 9.01661 9.52413V10.2917C9.01661 10.4353 9.07367 10.5731 9.17526 10.6747C9.27684 10.7763 9.41461 10.8333 9.55827 10.8333C9.70193 10.8333 9.83971 10.7763 9.94129 10.6747C10.0429 10.5731 10.0999 10.4353 10.0999 10.2917V8.12501C10.0964 8.08914 10.0892 8.05319 10.0783 8.01884ZM10.3708 1.89584C10.5144 1.89584 10.6522 1.83877 10.7538 1.73719C10.8554 1.63561 10.9124 1.49783 10.9124 1.35417C10.9124 1.21051 10.8554 1.07274 10.7538 0.971156C10.6522 0.869574 10.5144 0.812506 10.3708 0.812506H8.20411C8.16881 0.815952 8.13396 0.823031 8.10011 0.833631L8.09632 0.834173C8.03065 0.847452 7.96813 0.873194 7.91215 0.910006L7.90132 0.917048C7.84955 0.952836 7.80461 0.997596 7.76861 1.04921C7.76427 1.05463 7.75777 1.05788 7.75344 1.06384C7.74965 1.06926 7.74965 1.0763 7.74586 1.08226C7.70725 1.15144 7.68224 1.22738 7.67219 1.30596C7.67057 1.32221 7.66244 1.33684 7.66244 1.35417V3.52084C7.66244 3.6645 7.71951 3.80227 7.82109 3.90386C7.92267 4.00544 8.06045 4.06251 8.20411 4.06251C8.34777 4.06251 8.48554 4.00544 8.58712 3.90386C8.68871 3.80227 8.74577 3.6645 8.74577 3.52084V2.55505C9.44393 3.3448 9.82923 4.36257 9.82911 5.41667C9.82916 5.57599 9.81958 5.73518 9.8004 5.89334C9.78327 6.03589 9.82337 6.17941 9.91192 6.29243C10.0005 6.40545 10.1302 6.47874 10.2727 6.49621C10.2947 6.49878 10.3167 6.50005 10.3388 6.50001C10.4711 6.49977 10.5986 6.45117 10.6975 6.36337C10.7964 6.27556 10.8597 6.15462 10.8756 6.02334C10.9003 5.82206 10.9126 5.61946 10.9124 5.41667C10.9117 4.12416 10.4471 2.87482 9.60323 1.89584H10.3708Z" fill="white"/>
</svg>
