<svg width="13" height="11" viewBox="0 0 13 11" fill="none" xmlns="http://www.w3.org/2000/svg">
<path d="M8.42188 9.71075V8.68835C8.42188 8.14604 8.20645 7.62593 7.82298 7.24246C7.4395 6.85899 6.9194 6.64355 6.37709 6.64355H2.7987C2.25639 6.64355 1.73629 6.85899 1.35281 7.24246C0.969339 7.62593 0.753906 8.14604 0.753906 8.68835V9.71075" stroke="#636363" stroke-linecap="round" stroke-linejoin="round"/>
<path d="M4.58776 4.59935C5.71707 4.59935 6.63256 3.68387 6.63256 2.55456C6.63256 1.42525 5.71707 0.509766 4.58776 0.509766C3.45845 0.509766 2.54297 1.42525 2.54297 2.55456C2.54297 3.68387 3.45845 4.59935 4.58776 4.59935Z" stroke="#636363" stroke-linecap="round" stroke-linejoin="round"/>
<path d="M8.93262 4.59955L9.95501 5.62194L11.9998 3.57715" stroke="#636363" stroke-linecap="round" stroke-linejoin="round"/>
</svg>
