<svg width="24" height="26" viewBox="0 0 24 26" fill="none" xmlns="http://www.w3.org/2000/svg">
<path d="M6.25023 25.5H12.4202C12.5528 25.5 12.68 25.4473 12.7738 25.3536C12.8676 25.2598 12.9202 25.1326 12.9202 25C12.9202 24.8674 12.8676 24.7402 12.7738 24.6464C12.68 24.5527 12.5528 24.5 12.4202 24.5H6.25023C3.76023 24.5 1.74023 22.84 1.74023 20.79V6.22H7.00023C7.13284 6.22 7.26002 6.16732 7.35379 6.07355C7.44756 5.97978 7.50023 5.85261 7.50023 5.72V1.5H16.2702C18.7602 1.5 20.7902 3.16 20.7902 5.21V13.29C20.7902 13.4226 20.8429 13.5498 20.9367 13.6436C21.0305 13.7373 21.1576 13.79 21.2902 13.79C21.4228 13.79 21.55 13.7373 21.6438 13.6436C21.7376 13.5498 21.7902 13.4226 21.7902 13.29V5.21C21.7902 2.61 19.3102 0.5 16.2702 0.5H6.86023C6.77483 0.507815 6.6942 0.542872 6.63023 0.6L1.14023 5.24C1.0273 5.26305 0.925795 5.32442 0.852904 5.41371C0.780013 5.503 0.740211 5.61473 0.740234 5.73V20.79C0.740234 23.39 3.21023 25.5 6.25023 25.5ZM6.45023 5.22H2.72023L4.72023 3.57L6.50023 2.07L6.45023 5.22Z" fill="white"/>
<path d="M5.87988 10.8799H16.5899C16.7225 10.8799 16.8497 10.8272 16.9434 10.7334C17.0372 10.6397 17.0899 10.5125 17.0899 10.3799C17.0899 10.2473 17.0372 10.1201 16.9434 10.0263C16.8497 9.93256 16.7225 9.87988 16.5899 9.87988H5.87988C5.74727 9.87988 5.6201 9.93256 5.52633 10.0263C5.43256 10.1201 5.37988 10.2473 5.37988 10.3799C5.37988 10.5125 5.43256 10.6397 5.52633 10.7334C5.6201 10.8272 5.74727 10.8799 5.87988 10.8799Z" fill="white"/>
<path d="M13.7999 14.0703C13.7999 13.9377 13.7472 13.8105 13.6534 13.7168C13.5597 13.623 13.4325 13.5703 13.2999 13.5703H5.87988C5.74727 13.5703 5.6201 13.623 5.52633 13.7168C5.43256 13.8105 5.37988 13.9377 5.37988 14.0703C5.37988 14.2029 5.43256 14.3301 5.52633 14.4239C5.6201 14.5176 5.74727 14.5703 5.87988 14.5703H13.2999C13.4325 14.5703 13.5597 14.5176 13.6534 14.4239C13.7472 14.3301 13.7999 14.2029 13.7999 14.0703Z" fill="white"/>
<path d="M5.87988 17.2695C5.74727 17.2695 5.6201 17.3222 5.52633 17.416C5.43256 17.5097 5.37988 17.6369 5.37988 17.7695C5.37988 17.9021 5.43256 18.0293 5.52633 18.1231C5.6201 18.2169 5.74727 18.2695 5.87988 18.2695H10.2399C10.3717 18.267 10.4974 18.2135 10.5906 18.1203C10.6838 18.027 10.7373 17.9013 10.7399 17.7695C10.7399 17.6369 10.6872 17.5097 10.5934 17.416C10.4997 17.3222 10.3725 17.2695 10.2399 17.2695H5.87988Z" fill="white"/>
<path d="M17.7602 25.5C18.6645 25.4997 19.5549 25.2764 20.3523 24.8499C21.1498 24.4234 21.8297 23.8068 22.332 23.0548C22.8343 22.3027 23.1434 21.4384 23.2319 20.5384C23.3205 19.6384 23.1857 18.7305 22.8396 17.895C22.4935 17.0595 21.9467 16.3222 21.2476 15.7485C20.5486 15.1748 19.7188 14.7823 18.8319 14.6058C17.9449 14.4293 17.0281 14.4742 16.1627 14.7366C15.2972 14.9989 14.5098 15.4707 13.8702 16.11C12.8431 17.1441 12.2666 18.5425 12.2666 20C12.2666 21.4575 12.8431 22.8559 13.8702 23.89C14.3798 24.4024 14.986 24.8086 15.6538 25.085C16.3215 25.3614 17.0375 25.5024 17.7602 25.5ZM14.5802 16.82C15.2093 16.1901 16.0111 15.761 16.8842 15.5869C17.7572 15.4128 18.6623 15.5016 19.4849 15.842C20.3075 16.1824 21.0107 16.7592 21.5054 17.4994C22.0001 18.2395 22.2641 19.1097 22.2641 20C22.2641 20.8903 22.0001 21.7605 21.5054 22.5006C21.0107 23.2408 20.3075 23.8176 19.4849 24.158C18.6623 24.4984 17.7572 24.5872 16.8842 24.4131C16.0111 24.239 15.2093 23.8099 14.5802 23.18C14.1593 22.7642 13.8252 22.2691 13.5971 21.7232C13.369 21.1773 13.2516 20.5916 13.2516 20C13.2516 19.4084 13.369 18.8227 13.5971 18.2768C13.8252 17.7309 14.1593 17.2358 14.5802 16.82Z" fill="white"/>
<path d="M15.8602 21.9C15.9525 21.9943 16.0783 22.0482 16.2102 22.05C16.3453 22.0497 16.4748 21.9958 16.5702 21.9L17.7602 20.71L19.0002 21.9C19.0456 21.9471 19.0999 21.9847 19.16 22.0104C19.2202 22.0362 19.2848 22.0497 19.3502 22.05C19.4853 22.0497 19.6148 21.9958 19.7102 21.9C19.8018 21.8066 19.8531 21.6809 19.8531 21.55C19.8531 21.4192 19.8018 21.2935 19.7102 21.2L18.4702 20L19.6702 18.8C19.7618 18.7066 19.8131 18.5809 19.8131 18.45C19.8131 18.3192 19.7618 18.1935 19.6702 18.1C19.6237 18.0532 19.5684 18.016 19.5075 17.9906C19.4466 17.9652 19.3812 17.9521 19.3152 17.9521C19.2492 17.9521 19.1839 17.9652 19.1229 17.9906C19.062 18.016 19.0067 18.0532 18.9602 18.1L17.7602 19.29L16.5702 18.1C16.5237 18.0532 16.4684 18.016 16.4075 17.9906C16.3466 17.9652 16.2812 17.9521 16.2152 17.9521C16.1492 17.9521 16.0839 17.9652 16.0229 17.9906C15.962 18.016 15.9067 18.0532 15.8602 18.1C15.7686 18.1935 15.7173 18.3192 15.7173 18.45C15.7173 18.5809 15.7686 18.7066 15.8602 18.8L17.0602 20L15.8602 21.2C15.7686 21.2935 15.7173 21.4192 15.7173 21.55C15.7173 21.6809 15.7686 21.8066 15.8602 21.9Z" fill="white"/>
</svg>
