<svg width="50" height="50" viewBox="0 0 50 50" fill="none" xmlns="http://www.w3.org/2000/svg">
<g clip-path="url(#clip0_2323_4565)">
<path d="M20.1248 -0.186466C20.3049 -0.334252 20.5859 -0.317318 20.7506 -0.154907C21.7997 0.800314 22.9605 1.637 24.2213 2.28972C26.5851 3.53128 29.2699 4.06546 31.9262 4.07085C33.0438 4.0416 34.1868 4.4457 34.9866 5.23774C35.6631 5.88431 36.0326 6.82413 35.9764 7.75934C35.9741 13.0173 35.9787 18.2752 35.9749 23.5332C35.9903 23.8034 35.7417 24.0504 35.4707 24.0281C35.2198 24.0227 35.0035 23.7887 35.0197 23.5378C35.0135 18.1744 35.0204 12.811 35.0158 7.44684C35.002 6.81259 34.6717 6.21606 34.1991 5.8058C33.5995 5.28239 32.7975 5.02068 32.007 5.02453C29.928 5.02761 27.8366 4.73819 25.8708 4.04622C23.851 3.34654 21.9945 2.2166 20.3904 0.81032C16.9867 3.33038 12.8364 4.82287 8.60599 5.03223C7.80471 5.07533 7.0042 5.40015 6.45001 5.98899C6.05976 6.39848 5.81345 6.95422 5.82038 7.52458C5.82192 17.0168 5.82038 26.5097 5.82115 36.0026C5.82961 36.9856 6.32685 37.9208 7.06193 38.5589C7.47604 38.936 7.98329 39.1847 8.46359 39.4648C11.3223 41.0951 14.1803 42.7261 17.039 44.3564C17.7056 44.7282 18.3529 45.1638 19.1034 45.3501C19.362 45.4248 19.6299 45.4571 19.8924 45.511C20.1895 45.5856 20.3219 45.9774 20.151 46.2253C20.0563 46.3746 19.8716 46.4616 19.6969 46.44C18.9141 46.3423 18.1497 46.0913 17.4639 45.7019C14.0502 43.7522 10.6334 41.8079 7.22049 39.8559C5.86733 39.0684 4.86746 37.6021 4.86515 36.0073C4.86438 26.512 4.86515 17.0175 4.86438 7.52227C4.85746 6.7895 5.1361 6.06673 5.60486 5.50714C6.35148 4.60119 7.52145 4.09779 8.68527 4.07239C11.5502 3.89843 14.3835 3.14026 16.9367 1.82481C18.0574 1.25214 19.1203 0.570938 20.1248 -0.186466Z" fill="#333333"/>
<path d="M26.9755 15.2757C27.3596 14.9047 27.9646 14.7915 28.4564 15.0009C28.7897 15.1279 29.0176 15.415 29.2646 15.6574C29.6634 16.0515 29.7734 16.695 29.5402 17.2023C29.4232 17.4824 29.1861 17.6818 28.9775 17.8927C25.9348 20.9346 22.8945 23.9789 19.8502 27.0185C19.1167 27.7613 17.8012 27.7497 17.0769 27C15.255 25.1781 13.4338 23.3554 11.6111 21.535C11.2255 21.174 11.0754 20.5883 11.2448 20.0872C11.3641 19.6861 11.7043 19.4183 11.9898 19.1358C12.5056 18.654 13.3915 18.6778 13.8826 19.1843C15.4097 20.7137 16.9422 22.2378 18.4647 23.771C21.315 20.9531 24.1345 18.1028 26.9755 15.2757ZM27.7999 15.8768C27.5921 15.9553 27.4666 16.1554 27.3065 16.2978C24.4847 19.1196 21.6629 21.9407 18.8419 24.7632C18.6656 24.9664 18.3246 24.9895 18.1384 24.7886C16.5042 23.1607 14.8763 21.5265 13.2437 19.897C13.1021 19.7369 12.8435 19.6838 12.6672 19.8193C12.5025 19.9609 12.347 20.1156 12.2061 20.2819C12.073 20.4574 12.1269 20.716 12.287 20.8561C14.0442 22.6149 15.8046 24.3722 17.5618 26.1318C17.7473 26.3242 17.9505 26.5282 18.2223 26.5851C18.5779 26.6852 18.972 26.5559 19.226 26.2934C22.3303 23.1914 25.433 20.0872 28.5365 16.9837C28.7266 16.8266 28.772 16.5157 28.5865 16.3371C28.3648 16.1331 28.1555 15.7667 27.7999 15.8768Z" fill="#333333"/>
<path d="M29.427 24.7748C29.4539 24.1252 30.042 23.5641 30.6916 23.5679C31.3336 23.5671 31.9755 23.5648 32.6175 23.5687C33.2271 23.5818 33.7774 24.0867 33.8436 24.6925C33.8875 25.2182 33.8421 25.747 33.8683 26.2743C35.2007 26.539 36.473 27.0794 37.6122 27.8168C37.9709 27.4619 38.3172 27.094 38.6882 26.7515C39.1732 26.3251 39.9683 26.3589 40.424 26.8146C40.875 27.2626 41.3261 27.7098 41.771 28.1639C42.2113 28.6211 42.2305 29.4032 41.8118 29.8812C41.4692 30.2514 41.0967 30.5939 40.7472 30.9595C41.4962 32.0972 42.0196 33.378 42.2998 34.7104C42.7708 34.7111 43.2419 34.7073 43.713 34.7111C44.2225 34.705 44.7105 35.0383 44.9007 35.5101C45.0438 35.8349 44.9876 36.1967 44.9976 36.5408C44.9953 37.0041 45.003 37.4667 44.9946 37.9301C44.9692 38.562 44.4127 39.1155 43.7807 39.1378C43.2873 39.147 42.7939 39.1386 42.3013 39.1409C42.0181 40.4717 41.5008 41.7564 40.7457 42.8902C41.0828 43.2466 41.44 43.5837 41.7817 43.9355C42.1612 44.3419 42.2251 44.9992 41.9318 45.4718C41.6724 45.8474 41.3053 46.1322 40.9966 46.4655C40.7188 46.7218 40.4848 47.0336 40.1592 47.2337C39.6897 47.5069 39.0516 47.44 38.6528 47.0697C38.3003 46.7303 37.9601 46.3785 37.6122 46.0337C36.4707 46.7765 35.193 47.3053 33.8606 47.5855C33.8552 48.0889 33.8744 48.593 33.8506 49.0964C33.8121 49.7245 33.2556 50.2633 32.6267 50.2826C31.9686 50.2895 31.3097 50.2895 30.6516 50.2833C30.0197 50.2641 29.4593 49.7168 29.4278 49.0856C29.4201 48.5876 29.4216 48.0904 29.4293 47.5932C28.0938 47.3037 26.8115 46.7803 25.6661 46.0345C25.3159 46.3839 24.9726 46.7418 24.6124 47.0821C24.1213 47.5285 23.2923 47.4985 22.8367 47.0151C22.3918 46.5679 21.9422 46.1253 21.4997 45.6758C21.0448 45.2009 21.0563 44.3773 21.5189 43.9116C21.8522 43.5737 22.1855 43.2342 22.5303 42.9071C21.7914 41.7548 21.2618 40.4748 20.9709 39.1378C20.4744 39.1424 19.9772 39.1455 19.4799 39.1378C18.8264 39.1055 18.2691 38.5074 18.2799 37.8531C18.2792 37.2135 18.273 36.5731 18.283 35.9335C18.3022 35.2838 18.8842 34.7127 19.5353 34.7119C20.0133 34.7081 20.4913 34.7065 20.9693 34.7142C21.2657 33.3811 21.7814 32.0956 22.5311 30.9511C22.1824 30.6024 21.8283 30.2591 21.4881 29.9035C21.054 29.4363 21.0555 28.6404 21.4973 28.1785C21.9384 27.7252 22.3902 27.2818 22.8374 26.8338C23.2962 26.3481 24.1321 26.3197 24.6216 26.7753C24.978 27.1156 25.3182 27.4719 25.6708 27.8168C26.8099 27.0701 28.0908 26.5437 29.4239 26.265C29.427 25.7678 29.4185 25.2713 29.427 24.7748ZM30.5108 24.5947C30.4092 24.6671 30.3707 24.7995 30.3784 24.9195C30.3753 25.5099 30.3853 26.1003 30.3753 26.6899C30.3737 26.927 30.1659 27.1225 29.9358 27.1433C28.4856 27.3903 27.0963 27.9722 25.8955 28.822C25.7039 28.9683 25.4106 28.9359 25.2513 28.7558C24.8372 28.3471 24.43 27.9307 24.0159 27.5227C23.8912 27.3749 23.6441 27.3726 23.5132 27.5127C23.0868 27.9291 22.6681 28.3533 22.2478 28.7751C22.1054 28.8928 22.0685 29.1253 22.2024 29.2654C22.6288 29.7126 23.0799 30.1375 23.5094 30.5831C23.671 30.7502 23.6656 31.0226 23.524 31.2012C22.6742 32.4004 22.1 33.7913 21.853 35.2399C21.8291 35.4724 21.619 35.6679 21.3827 35.6633C20.7946 35.6702 20.2058 35.661 19.6177 35.6656C19.4283 35.644 19.2313 35.8003 19.2413 35.9973C19.2359 36.6147 19.2367 37.232 19.2405 37.8501C19.2298 38.0448 19.4206 38.2041 19.61 38.1841C20.2011 38.188 20.7923 38.1787 21.3834 38.1872C21.622 38.1826 21.8329 38.3827 21.8545 38.6182C22.1039 40.0615 22.6742 41.4485 23.5209 42.6446C23.6656 42.8247 23.6718 43.1042 23.5048 43.2727C23.076 43.7176 22.625 44.1417 22.2001 44.5889C22.0669 44.726 22.1077 44.9538 22.2447 45.0723C22.6696 45.4972 23.0907 45.9252 23.5209 46.3454C23.6495 46.4855 23.8919 46.4748 24.0136 46.3293C24.44 45.9113 24.8549 45.481 25.2836 45.0646C25.4499 44.8991 25.7354 44.8976 25.9155 45.0415C27.1071 45.8844 28.4856 46.4555 29.9235 46.7049C30.1613 46.7241 30.3776 46.9227 30.3761 47.169C30.3884 47.7894 30.3691 48.4114 30.3838 49.0325C30.4015 49.2196 30.5893 49.3473 30.7709 49.3327C31.3651 49.3312 31.9594 49.3358 32.5544 49.3304C32.7299 49.3319 32.8953 49.1834 32.8977 49.004C32.9092 48.3914 32.893 47.7779 32.9038 47.1652C32.9023 46.942 33.087 46.7418 33.3071 46.7157C34.7188 46.4717 36.0812 45.929 37.2589 45.1108C37.4475 44.9392 37.763 44.8576 37.9701 45.0462C38.4165 45.4733 38.8414 45.9244 39.2879 46.3524C39.4218 46.4909 39.6643 46.4678 39.7836 46.32C40.2069 45.8944 40.6349 45.4726 41.0567 45.0446C41.1883 44.9253 41.1929 44.6998 41.0667 44.5759C40.6495 44.1456 40.2169 43.7307 39.799 43.302C39.6073 43.128 39.605 42.8163 39.7705 42.6254C40.6141 41.4339 41.1783 40.0507 41.4254 38.6121C41.4492 38.3896 41.6386 38.198 41.8657 38.1887C42.4799 38.1749 43.0949 38.1918 43.7099 38.1826C43.8839 38.1887 44.0447 38.0271 44.0386 37.8531C44.044 37.2374 44.0424 36.6208 44.0393 36.005C44.0486 35.8288 43.8877 35.6617 43.7107 35.6679C43.0957 35.6564 42.4791 35.6741 41.8641 35.661C41.6401 35.6533 41.4523 35.4632 41.4261 35.2446C41.1775 33.7906 40.6002 32.3958 39.7489 31.1912C39.6004 31.0049 39.6211 30.7171 39.7943 30.5531C40.2131 30.1236 40.6464 29.7064 41.0651 29.2762C41.1921 29.153 41.1883 28.9282 41.059 28.8089C40.6387 28.3817 40.2108 27.9607 39.7882 27.5351C39.6681 27.3865 39.4256 27.3603 39.2894 27.4981C38.8568 27.9145 38.4404 28.3479 38.0117 28.7689C37.8485 28.9513 37.5475 28.959 37.3613 28.8082C36.1582 27.9538 34.7596 27.3834 33.3056 27.1348C33.0909 27.1071 32.9077 26.9154 32.9038 26.6961C32.8923 26.0811 32.9092 25.4653 32.8977 24.8503C32.8977 24.6694 32.7283 24.5131 32.549 24.5231C31.984 24.5185 31.4198 24.5254 30.8556 24.5208C30.7371 24.5216 30.6062 24.5124 30.5108 24.5947Z" fill="#333333"/>
<path d="M30.8958 31.6083C32.0712 31.4428 33.3027 31.6752 34.3265 32.2787C35.2925 32.836 36.076 33.7019 36.534 34.7195C37.1359 36.0341 37.1644 37.5974 36.6179 38.936C36.2107 39.9459 35.4864 40.8249 34.5743 41.4191C33.5529 42.0941 32.2944 42.3943 31.0783 42.265C29.8629 42.1434 28.6991 41.583 27.8408 40.714C26.9356 39.8165 26.3691 38.5842 26.2844 37.3119C26.1944 36.1296 26.5146 34.9227 27.1781 33.9405C28.0148 32.6851 29.3972 31.8068 30.8958 31.6083ZM30.7434 32.6043C29.2771 32.8991 28.0078 33.9944 27.4991 35.3999C27.0519 36.5883 27.1604 37.9669 27.7854 39.0715C28.3396 40.069 29.2933 40.8364 30.3886 41.1574C31.4385 41.4714 32.6038 41.3721 33.5845 40.8841C34.515 40.4269 35.2748 39.6326 35.6866 38.6812C36.1515 37.6282 36.173 36.3913 35.7504 35.3221C35.3333 34.2484 34.4773 33.3548 33.4236 32.8906C32.59 32.5158 31.6378 32.4188 30.7434 32.6043Z" fill="#333333"/>
</g>
<defs>
<clipPath id="clip0_2323_4565">
<rect width="50" height="50" fill="white"/>
</clipPath>
</defs>
</svg>
