<svg width="13" height="9" viewBox="0 0 13 9" fill="none" xmlns="http://www.w3.org/2000/svg">
<path fill-rule="evenodd" clip-rule="evenodd" d="M12.9998 0.767575C12.9998 0.343655 12.6764 0 12.2776 0H11.5553C11.1565 0 10.8331 0.343655 10.8331 0.767575V7.4199C10.8331 7.84382 11.1565 8.18747 11.5553 8.18747H12.2776C12.6764 8.18747 12.9998 7.84382 12.9998 7.4199V0.767575ZM7.9671 1.6382H8.68932C9.08819 1.6382 9.41154 1.99011 9.41154 2.4242V7.40218C9.41154 7.83628 9.08819 8.18818 8.68932 8.18818H7.9671C7.56823 8.18818 7.24488 7.83628 7.24488 7.40218V2.4242C7.24488 1.99011 7.56823 1.6382 7.9671 1.6382ZM5.03357 3.41145H4.31135C3.91247 3.41145 3.58913 3.76783 3.58913 4.20745V7.39147C3.58913 7.83109 3.91247 8.18747 4.31135 8.18747H5.03357C5.43244 8.18747 5.75578 7.83109 5.75578 7.39147V4.20745C5.75578 3.76783 5.43244 3.41145 5.03357 3.41145ZM1.44444 5.04965H0.72222C0.323349 5.04965 0 5.40094 0 5.83428V7.40355C0 7.83689 0.323349 8.18818 0.72222 8.18818H1.44444C1.84331 8.18818 2.16666 7.83689 2.16666 7.40355V5.83428C2.16666 5.40094 1.84331 5.04965 1.44444 5.04965Z" fill="white"/>
</svg>
