<svg width="45" height="45" viewBox="0 0 45 45" fill="none" xmlns="http://www.w3.org/2000/svg">
<path d="M6.2052 4.00034H38.7948C42.2053 4.00034 45 6.795 45 10.2055V34.2688C45 37.6793 42.2053 40.474 38.7948 40.474H6.2052C2.79467 40.474 -4.53292e-08 37.6793 -4.53292e-08 34.2688V10.2055C-4.53292e-08 6.795 2.79467 4 6.2052 4V4.00034ZM14.2578 11.7688C12.2211 11.7688 10.563 13.4269 10.563 15.4635C10.563 17.5002 12.2211 19.1583 14.2578 19.1583C16.2945 19.1583 17.9525 17.5002 17.9525 15.4635C18.0001 13.4269 16.3421 11.7688 14.2578 11.7688ZM10.042 33.3689H35.6684C36.9474 33.3689 37.7527 31.9477 37.0419 30.8583L28.184 17.2162C27.5208 16.2213 26.0525 16.2213 25.4366 17.2634L19.7048 26.6898C19.4679 27.116 18.8996 27.1636 18.5679 26.8319L16.5784 24.9373C15.9153 24.3214 14.9204 24.3214 14.2573 24.9845L8.85726 30.6687C7.86302 31.6636 8.57342 33.3689 10.0418 33.3689L10.042 33.3689Z" fill="#1E5CA4" fill-opacity="0.5"/>
</svg>
